AcariSans-ExtraBold.ufo
<glyph name="exclam" format="2">
  <advance width="636"/>
  <unicode hex="0021"/>
  <outline>
    <contour>
      <point x="422" y="443" type="line"/>
      <point x="215" y="443" type="line"/>
      <point x="187" y="1433" type="line"/>
      <point x="450" y="1433" type="line"/>
    </contour>
    <contour>
      <point x="463" y="0" type="line"/>
      <point x="174" y="0" type="line"/>
      <point x="174" y="286" type="line"/>
      <point x="463" y="286" type="line"/>
    </contour>
  </outline>
</glyph>
<glyph name="quotedbl" format="2">
  <advance width="974"/>
  <unicode hex="0022"/>
  <outline>
    <contour>
      <point x="420" y="829" type="line"/>
      <point x="193" y="829" type="line"/>
      <point x="193" y="1413" type="line"/>
      <point x="420" y="1413" type="line"/>
    </contour>
    <contour>
      <point x="782" y="829" type="line"/>
      <point x="556" y="829" type="line"/>
      <point x="556" y="1413" type="line"/>
      <point x="782" y="1413" type="line"/>
    </contour>
  </outline>
</glyph>
<glyph name="dollar" format="2">
  <advance width="1135"/>
  <unicode hex="0024"/>
  <outline>
    <contour>
      <point x="683" y="-246" type="line"/>
      <point x="453" y="-246" type="line"/>
      <point x="453" y="-12" type="line"/>
      <point x="375" y="4"/>
      <point x="235" y="71"/>
      <point x="123" y="173"/>
      <point x="46" y="309"/>
      <point x="33" y="391" type="qcurve"/>
      <point x="308" y="447" type="line"/>
      <point x="324" y="343"/>
      <point x="469" y="235"/>
      <point x="587" y="235" type="qcurve" smooth="yes"/>
      <point x="703" y="235"/>
      <point x="807" y="321"/>
      <point x="807" y="409" type="qcurve" smooth="yes"/>
      <point x="807" y="433"/>
      <point x="798" y="455" type="qcurve"/>
      <point x="778" y="497"/>
      <point x="734" y="527" type="qcurve" smooth="yes"/>
      <point x="712" y="541"/>
      <point x="688" y="553" type="qcurve" smooth="yes"/>
      <point x="656" y="569"/>
      <point x="508" y="633" type="qcurve"/>
      <point x="386" y="682"/>
      <point x="330" y="714" type="qcurve" smooth="yes"/>
      <point x="127" y="832"/>
      <point x="127" y="1049" type="qcurve" smooth="yes"/>
      <point x="127" y="1190"/>
      <point x="224" y="1296" type="qcurve" smooth="yes"/>
      <point x="312" y="1392"/>
      <point x="453" y="1426" type="qcurve"/>
      <point x="453" y="1659" type="line"/>
      <point x="683" y="1659" type="line"/>
      <point x="683" y="1432" type="line"/>
      <point x="913" y="1390"/>
      <point x="1019" y="1197" type="qcurve"/>
      <point x="789" y="1063" type="line"/>
      <point x="717" y="1189"/>
      <point x="574" y="1189" type="qcurve" smooth="yes"/>
      <point x="506" y="1189"/>
      <point x="458" y="1154" type="qcurve"/>
      <point x="408" y="1114"/>
      <point x="408" y="1058" type="qcurve" smooth="yes"/>
      <point x="408" y="999"/>
      <point x="491" y="946" type="qcurve" smooth="yes"/>
      <point x="548" y="910"/>
      <point x="679" y="858" type="qcurve" smooth="yes"/>
      <point x="731" y="837"/>
      <point x="834" y="793"/>
      <point x="877" y="769" type="qcurve" smooth="yes"/>
      <point x="1025" y="687"/>
      <point x="1071" y="536" type="qcurve" smooth="yes"/>
      <point x="1087" y="483"/>
      <point x="1088" y="407" type="qcurve"/>
      <point x="1088" y="326"/>
      <point x="1029" y="182"/>
      <point x="919" y="68"/>
      <point x="770" y="-6"/>
      <point x="683" y="-17" type="qcurve"/>
    </contour>
  </outline>
</glyph>
<glyph name="percent" format="2">
  <advance width="1529"/>
  <unicode hex="0025"/>
  <outline>
    <contour>
      <point x="473" y="-27" type="qcurve"/>
      <point x="238" y="-27" type="line"/>
      <point x="470" y="404"/>
      <point x="710" y="853" type="qcurve" smooth="yes"/>
      <point x="1041" y="1469" type="line"/>
      <point x="1276" y="1469" type="line"/>
      <point x="945" y="853" type="line" smooth="yes"/>
      <point x="705" y="404"/>
    </contour>
    <contour>
      <point x="367" y="757" type="qcurve" smooth="yes"/>
      <point x="347" y="757" type="line" smooth="yes"/>
      <point x="270" y="757"/>
      <point x="160" y="820"/>
      <point x="90" y="921"/>
      <point x="59" y="1042"/>
      <point x="59" y="1097" type="qcurve" smooth="yes"/>
      <point x="59" y="1156"/>
      <point x="92" y="1276"/>
      <point x="161" y="1374"/>
      <point x="272" y="1436"/>
      <point x="348" y="1436" type="qcurve" smooth="yes"/>
      <point x="355" y="1436" type="line" smooth="yes"/>
      <point x="423" y="1436"/>
      <point x="532" y="1377"/>
      <point x="606" y="1279"/>
      <point x="625" y="1217" type="qcurve" smooth="yes"/>
      <point x="642" y="1160"/>
      <point x="642" y="1103" type="qcurve"/>
      <point x="641" y="1033"/>
      <point x="625" y="976" type="qcurve" smooth="yes"/>
      <point x="607" y="915"/>
      <point x="571" y="866" type="qcurve" smooth="yes"/>
      <point x="492" y="757"/>
    </contour>
    <contour>
      <point x="350" y="951" type="qcurve" smooth="yes"/>
      <point x="389" y="951"/>
      <point x="441" y="1037"/>
      <point x="441" y="1096" type="qcurve" smooth="yes"/>
      <point x="441" y="1163"/>
      <point x="390" y="1239"/>
      <point x="348" y="1239" type="qcurve" smooth="yes"/>
      <point x="305" y="1239"/>
      <point x="257" y="1158"/>
      <point x="257" y="1097" type="qcurve" smooth="yes"/>
      <point x="257" y="1037"/>
      <point x="306" y="951"/>
    </contour>
    <contour>
      <point x="1189" y="-14" type="qcurve" smooth="yes"/>
      <point x="1175" y="-14" type="line" smooth="yes"/>
      <point x="1100" y="-14"/>
      <point x="989" y="51"/>
      <point x="918" y="154"/>
      <point x="886" y="277"/>
      <point x="886" y="332" type="qcurve" smooth="yes"/>
      <point x="886" y="391"/>
      <point x="917" y="514"/>
      <point x="987" y="614"/>
      <point x="1097" y="679"/>
      <point x="1176" y="679" type="qcurve" smooth="yes"/>
      <point x="1183" y="679" type="line" smooth="yes"/>
      <point x="1252" y="679"/>
      <point x="1360" y="619"/>
      <point x="1434" y="518"/>
      <point x="1469" y="398"/>
      <point x="1469" y="341" type="qcurve"/>
      <point x="1467" y="193"/>
      <point x="1397" y="97" type="qcurve"/>
      <point x="1318" y="-14"/>
    </contour>
    <contour>
      <point x="1180" y="180" type="qcurve" smooth="yes"/>
      <point x="1215" y="180"/>
      <point x="1267" y="267"/>
      <point x="1267" y="334" type="qcurve" smooth="yes"/>
      <point x="1267" y="398"/>
      <point x="1215" y="483"/>
      <point x="1176" y="483" type="qcurve" smooth="yes"/>
      <point x="1137" y="483"/>
      <point x="1084" y="401"/>
      <point x="1084" y="332" type="qcurve" smooth="yes"/>
      <point x="1084" y="270"/>
      <point x="1134" y="180"/>
    </contour>
  </outline>
</glyph>
<glyph name="ampersand" format="2">
  <advance width="1384"/>
  <unicode hex="0026"/>
  <outline>
    <contour>
      <point x="1150" y="-83" type="line"/>
      <point x="967" y="124" type="line"/>
      <point x="878" y="52"/>
      <point x="663" y="-24"/>
      <point x="547" y="-24" type="qcurve" smooth="yes"/>
      <point x="535" y="-24" type="line" smooth="yes"/>
      <point x="441" y="-24"/>
      <point x="359" y="-1" type="qcurve" smooth="yes"/>
      <point x="271" y="23"/>
      <point x="141" y="117"/>
      <point x="65" y="254"/>
      <point x="65" y="339" type="qcurve" smooth="yes"/>
      <point x="65" y="413"/>
      <point x="110" y="532"/>
      <point x="194" y="635"/>
      <point x="312" y="724"/>
      <point x="385" y="765" type="qcurve"/>
      <point x="225" y="915"/>
      <point x="225" y="1090" type="qcurve" smooth="yes"/>
      <point x="225" y="1096" type="line" smooth="yes"/>
      <point x="225" y="1172"/>
      <point x="298" y="1297"/>
      <point x="417" y="1385"/>
      <point x="560" y="1429"/>
      <point x="639" y="1430" type="qcurve"/>
      <point x="714" y="1430"/>
      <point x="854" y="1378"/>
      <point x="961" y="1285"/>
      <point x="1024" y="1161"/>
      <point x="1024" y="1093" type="qcurve" smooth="yes"/>
      <point x="1024" y="980"/>
      <point x="958" y="885" type="qcurve" smooth="yes"/>
      <point x="901" y="801"/>
      <point x="778" y="719" type="qcurve"/>
      <point x="948" y="533" type="line"/>
      <point x="971" y="603"/>
      <point x="971" y="669" type="qcurve"/>
      <point x="970" y="697" type="line"/>
      <point x="1033" y="690"/>
      <point x="1096" y="685" type="qcurve"/>
      <point x="1241" y="670" type="line"/>
      <point x="1231" y="476"/>
      <point x="1137" y="323" type="qcurve"/>
      <point x="1165" y="292" type="line" smooth="yes"/>
      <point x="1203" y="249"/>
      <point x="1241" y="208" type="qcurve" smooth="yes"/>
      <point x="1275" y="171"/>
      <point x="1309" y="132" type="qcurve" smooth="yes"/>
      <point x="1345" y="92" type="line"/>
      <point x="1212" y="-26"/>
      <point x="1183" y="-53" type="qcurve" smooth="yes"/>
    </contour>
    <contour>
      <point x="598" y="887" type="qcurve"/>
      <point x="674" y="930"/>
      <point x="766" y="1027"/>
      <point x="766" y="1088" type="qcurve" smooth="yes"/>
      <point x="766" y="1140"/>
      <point x="701" y="1218"/>
      <point x="633" y="1218" type="qcurve" smooth="yes"/>
      <point x="601" y="1218"/>
      <point x="536" y="1193"/>
      <point x="493" y="1135"/>
      <point x="493" y="1086" type="qcurve" smooth="yes"/>
      <point x="493" y="1010"/>
    </contour>
    <contour>
      <point x="538" y="206" type="qcurve" smooth="yes"/>
      <point x="688" y="206"/>
      <point x="806" y="308" type="qcurve"/>
      <point x="560" y="586" type="line"/>
      <point x="493" y="546"/>
      <point x="391" y="470"/>
      <point x="333" y="385"/>
      <point x="333" y="333" type="qcurve" smooth="yes"/>
      <point x="333" y="270"/>
      <point x="442" y="206"/>
    </contour>
  </outline>
</glyph>
<glyph name="quotesingle" format="2">
  <advance width="611"/>
  <unicode hex="0027"/>
  <outline>
    <contour>
      <point x="420" y="858" type="line"/>
      <point x="193" y="858" type="line"/>
      <point x="193" y="1442" type="line"/>
      <point x="420" y="1442" type="line"/>
    </contour>
  </outline>
</glyph>
<glyph name="parenright" format="2">
  <advance width="577"/>
  <unicode hex="0029"/>
  <outline>
    <contour>
      <point x="238" y="-154" type="qcurve"/>
      <point x="-3" y="-154" type="line"/>
      <point x="71" y="-56"/>
      <point x="175" y="122"/>
      <point x="240" y="318"/>
      <point x="271" y="548"/>
      <point x="272" y="701" type="qcurve"/>
      <point x="272" y="835"/>
      <point x="241" y="1072"/>
      <point x="173" y="1284"/>
      <point x="69" y="1475"/>
      <point x="-5" y="1563" type="qcurve"/>
      <point x="243" y="1563" type="line"/>
      <point x="356" y="1441"/>
      <point x="486" y="1015"/>
      <point x="486" y="707" type="qcurve" smooth="yes"/>
      <point x="486" y="686" type="line" smooth="yes"/>
      <point x="486" y="537"/>
      <point x="427" y="209"/>
      <point x="370" y="64" type="qcurve"/>
      <point x="311" y="-80"/>
    </contour>
  </outline>
</glyph>
<glyph name="asterisk" format="2">
  <advance width="911"/>
  <unicode hex="002A"/>
  <outline>
    <contour>
      <point x="562" y="829" type="line"/>
      <point x="457" y="1029" type="line"/>
      <point x="349" y="829" type="line"/>
      <point x="171" y="942" type="line"/>
      <point x="324" y="1090" type="line"/>
      <point x="104" y="1117" type="line"/>
      <point x="173" y="1302" type="line"/>
      <point x="375" y="1226" type="line"/>
      <point x="347" y="1413" type="line"/>
      <point x="567" y="1413" type="line"/>
      <point x="539" y="1226" type="line"/>
      <point x="741" y="1302" type="line"/>
      <point x="807" y="1117" type="line"/>
      <point x="587" y="1090" type="line"/>
      <point x="740" y="942" type="line"/>
    </contour>
  </outline>
</glyph>
<glyph name="plus" format="2">
  <advance width="1249"/>
  <unicode hex="002B"/>
  <outline>
    <contour>
      <point x="728" y="106" type="line"/>
      <point x="522" y="106" type="line"/>
      <point x="522" y="520" type="line"/>
      <point x="65" y="520" type="line"/>
      <point x="65" y="728" type="line"/>
      <point x="522" y="728" type="line"/>
      <point x="522" y="1143" type="line"/>
      <point x="728" y="1143" type="line"/>
      <point x="728" y="728" type="line"/>
      <point x="1185" y="728" type="line"/>
      <point x="1185" y="520" type="line"/>
      <point x="728" y="520" type="line"/>
    </contour>
  </outline>
</glyph>
<glyph name="hyphen" format="2">
  <advance width="876"/>
  <unicode hex="002D"/>
  <outline>
    <contour>
      <point x="741" y="486" type="line"/>
      <point x="135" y="486" type="line"/>
      <point x="135" y="692" type="line"/>
      <point x="741" y="692" type="line"/>
    </contour>
  </outline>
</glyph>
<glyph name="period" format="2">
  <advance width="642"/>
  <unicode hex="002E"/>
  <outline>
    <contour>
      <point x="451" y="0" type="line"/>
      <point x="191" y="0" type="line"/>
      <point x="191" y="286" type="line"/>
      <point x="451" y="286" type="line"/>
    </contour>
  </outline>
</glyph>
<glyph name="slash" format="2">
  <advance width="936"/>
  <unicode hex="002F"/>
  <outline>
    <contour>
      <point x="198" y="-430" type="line"/>
      <point x="-52" y="-430" type="line"/>
      <point x="736" y="1516" type="line"/>
      <point x="988" y="1516" type="line"/>
    </contour>
  </outline>
</glyph>
<glyph name="zero" format="2">
  <advance width="1200"/>
  <unicode hex="0030"/>
  <outline>
    <contour>
      <point x="609" y="-20" type="qcurve" smooth="yes"/>
      <point x="458" y="-20"/>
      <point x="237" y="102"/>
      <point x="92" y="309"/>
      <point x="21" y="569"/>
      <point x="21" y="707" type="qcurve" smooth="yes"/>
      <point x="21" y="836"/>
      <point x="93" y="1118"/>
      <point x="262" y="1347"/>
      <point x="406" y="1405" type="qcurve"/>
      <point x="490" y="1436"/>
      <point x="595" y="1436" type="qcurve" smooth="yes"/>
      <point x="738" y="1436"/>
      <point x="954" y="1314"/>
      <point x="1027" y="1215" type="qcurve" smooth="yes"/>
      <point x="1105" y="1108"/>
      <point x="1182" y="844"/>
      <point x="1182" y="706" type="qcurve" smooth="yes"/>
      <point x="1182" y="579"/>
      <point x="1114" y="322"/>
      <point x="974" y="110"/>
      <point x="757" y="-20"/>
    </contour>
    <contour>
      <point x="603" y="249" type="line" smooth="yes"/>
      <point x="677" y="249"/>
      <point x="730" y="289" type="qcurve" smooth="yes"/>
      <point x="833" y="365"/>
      <point x="872" y="543" type="qcurve"/>
      <point x="888" y="621"/>
      <point x="889" y="721" type="qcurve"/>
      <point x="889" y="895"/>
      <point x="816" y="1022" type="qcurve"/>
      <point x="733" y="1162"/>
      <point x="595" y="1162" type="qcurve" smooth="yes"/>
      <point x="590" y="1162" type="line" smooth="yes"/>
      <point x="518" y="1162"/>
      <point x="409" y="1083"/>
      <point x="334" y="952"/>
      <point x="317" y="871" type="qcurve" smooth="yes"/>
      <point x="301" y="796"/>
      <point x="301" y="721" type="qcurve" smooth="yes"/>
      <point x="301" y="693" type="line" smooth="yes"/>
      <point x="301" y="585"/>
      <point x="333" y="488" type="qcurve" smooth="yes"/>
      <point x="350" y="436"/>
      <point x="400" y="347"/>
      <point x="434" y="315" type="qcurve" smooth="yes"/>
      <point x="502" y="249"/>
      <point x="595" y="249" type="qcurve" smooth="yes"/>
    </contour>
  </outline>
</glyph>
<glyph name="five" format="2">
  <advance width="1200"/>
  <unicode hex="0035"/>
  <outline>
    <contour>
      <point x="590" y="-20" type="qcurve" smooth="yes"/>
      <point x="582" y="-20" type="line" smooth="yes"/>
      <point x="493" y="-20"/>
      <point x="323" y="49"/>
      <point x="183" y="170"/>
      <point x="83" y="332"/>
      <point x="65" y="422" type="qcurve"/>
      <point x="131" y="440"/>
      <point x="198" y="457" type="qcurve" smooth="yes"/>
      <point x="264" y="474"/>
      <point x="330" y="492" type="qcurve"/>
      <point x="353" y="379"/>
      <point x="415" y="313" type="qcurve" smooth="yes"/>
      <point x="484" y="239"/>
      <point x="591" y="239" type="qcurve" smooth="yes"/>
      <point x="598" y="239" type="line" smooth="yes"/>
      <point x="644" y="239"/>
      <point x="729" y="281"/>
      <point x="798" y="353"/>
      <point x="817" y="399" type="qcurve" smooth="yes"/>
      <point x="835" y="441"/>
      <point x="835" y="483" type="qcurve" smooth="yes"/>
      <point x="835" y="489" type="line" smooth="yes"/>
      <point x="835" y="588"/>
      <point x="771" y="655" type="qcurve" smooth="yes"/>
      <point x="703" y="727"/>
      <point x="587" y="727" type="qcurve" smooth="yes"/>
      <point x="556" y="727"/>
      <point x="491" y="709"/>
      <point x="431" y="677"/>
      <point x="379" y="633"/>
      <point x="362" y="604" type="qcurve"/>
      <point x="104" y="660" type="line"/>
      <point x="133" y="811"/>
      <point x="245" y="1413" type="qcurve"/>
      <point x="1060" y="1413" type="line"/>
      <point x="1060" y="1150" type="line"/>
      <point x="471" y="1150" type="line"/>
      <point x="428" y="945" type="line"/>
      <point x="480" y="963"/>
      <point x="528" y="975" type="qcurve" smooth="yes"/>
      <point x="572" y="985"/>
      <point x="641" y="986" type="qcurve"/>
      <point x="762" y="986"/>
      <point x="990" y="845"/>
      <point x="1123" y="619"/>
      <point x="1123" y="498" type="qcurve" smooth="yes"/>
      <point x="1123" y="487" type="line" smooth="yes"/>
      <point x="1123" y="387"/>
      <point x="1037" y="202"/>
      <point x="890" y="63"/>
      <point x="697" y="-20"/>
    </contour>
  </outline>
</glyph>
<glyph name="six" format="2">
  <advance width="1200"/>
  <unicode hex="0036"/>
  <outline>
    <contour>
      <point x="612" y="-20" type="qcurve" smooth="yes"/>
      <point x="592" y="-20" type="line" smooth="yes"/>
      <point x="490" y="-20"/>
      <point x="299" y="56"/>
      <point x="153" y="193"/>
      <point x="111" y="283" type="qcurve" smooth="yes"/>
      <point x="71" y="367"/>
      <point x="71" y="460" type="qcurve" smooth="yes"/>
      <point x="71" y="473" type="line" smooth="yes"/>
      <point x="71" y="613"/>
      <point x="149" y="724" type="qcurve"/>
      <point x="577" y="1413" type="line"/>
      <point x="905" y="1413" type="line"/>
      <point x="602" y="967" type="line"/>
      <point x="603" y="964" type="line"/>
      <point x="602" y="963" type="line"/>
      <point x="616" y="963" type="line" smooth="yes"/>
      <point x="749" y="963"/>
      <point x="867" y="901" type="qcurve" smooth="yes"/>
      <point x="992" y="834"/>
      <point x="1059" y="728" type="qcurve" smooth="yes"/>
      <point x="1131" y="615"/>
      <point x="1131" y="492" type="qcurve" smooth="yes"/>
      <point x="1131" y="471" type="line" smooth="yes"/>
      <point x="1131" y="411"/>
      <point x="1115" y="353" type="qcurve"/>
      <point x="1076" y="222"/>
      <point x="978" y="130" type="qcurve"/>
      <point x="929" y="82"/>
      <point x="869" y="48" type="qcurve" smooth="yes"/>
      <point x="749" y="-20"/>
    </contour>
    <contour>
      <point x="610" y="247" type="line" smooth="yes"/>
      <point x="655" y="247"/>
      <point x="697" y="264" type="qcurve" smooth="yes"/>
      <point x="743" y="282"/>
      <point x="814" y="347"/>
      <point x="854" y="431"/>
      <point x="854" y="474" type="qcurve" smooth="yes"/>
      <point x="854" y="486" type="line" smooth="yes"/>
      <point x="854" y="532"/>
      <point x="834" y="572" type="qcurve" smooth="yes"/>
      <point x="790" y="659"/>
      <point x="696" y="695" type="qcurve" smooth="yes"/>
      <point x="652" y="712"/>
      <point x="595" y="713" type="qcurve"/>
      <point x="551" y="713"/>
      <point x="508" y="696" type="qcurve" smooth="yes"/>
      <point x="461" y="677"/>
      <point x="389" y="614"/>
      <point x="349" y="530"/>
      <point x="349" y="487" type="qcurve" smooth="yes"/>
      <point x="349" y="474" type="line" smooth="yes"/>
      <point x="349" y="429"/>
      <point x="391" y="346"/>
      <point x="463" y="282"/>
      <point x="509" y="264" type="qcurve" smooth="yes"/>
      <point x="550" y="247"/>
      <point x="594" y="247" type="qcurve" smooth="yes"/>
    </contour>
  </outline>
</glyph>
<glyph name="seven" format="2">
  <advance width="1200"/>
  <unicode hex="0037"/>
  <outline>
    <contour>
      <point x="500" y="0" type="line"/>
      <point x="187" y="0" type="line"/>
      <point x="787" y="1153" type="line"/>
      <point x="87" y="1153" type="line"/>
      <point x="87" y="1413" type="line"/>
      <point x="1133" y="1413" type="line"/>
      <point x="1133" y="1268" type="line"/>
    </contour>
  </outline>
</glyph>
<glyph name="less" format="2">
  <advance width="1245"/>
  <unicode hex="003C"/>
  <outline>
    <contour>
      <point x="1039" y="146" type="line"/>
      <point x="27" y="674" type="line"/>
      <point x="1039" y="1201" type="line"/>
      <point x="1153" y="1005" type="line"/>
      <point x="467" y="674" type="line"/>
      <point x="1153" y="343" type="line"/>
    </contour>
  </outline>
</glyph>
<glyph name="at" format="2">
  <advance width="1999"/>
  <unicode hex="0040"/>
  <outline>
    <contour>
      <point x="991" y="-348" type="qcurve" smooth="yes"/>
      <point x="870" y="-348"/>
      <point x="642" y="-294"/>
      <point x="440" y="-190"/>
      <point x="272" y="-40"/>
      <point x="151" y="154"/>
      <point x="84" y="388"/>
      <point x="84" y="521" type="qcurve" smooth="yes"/>
      <point x="84" y="766"/>
      <point x="200" y="979" type="qcurve"/>
      <point x="315" y="1187"/>
      <point x="521" y="1307" type="qcurve" smooth="yes"/>
      <point x="738" y="1432"/>
      <point x="1007" y="1432" type="qcurve" smooth="yes"/>
      <point x="1144" y="1432"/>
      <point x="1384" y="1367"/>
      <point x="1587" y="1250"/>
      <point x="1747" y="1085"/>
      <point x="1859" y="886"/>
      <point x="1918" y="660"/>
      <point x="1918" y="540" type="qcurve" smooth="yes"/>
      <point x="1918" y="529" type="line" smooth="yes"/>
      <point x="1918" y="418"/>
      <point x="1889" y="311" type="qcurve" smooth="yes"/>
      <point x="1859" y="199"/>
      <point x="1740" y="24"/>
      <point x="1564" y="-83"/>
      <point x="1448" y="-83" type="qcurve" smooth="yes"/>
      <point x="1345" y="-83"/>
      <point x="1210" y="2"/>
      <point x="1178" y="80" type="qcurve"/>
      <point x="1169" y="111"/>
      <point x="1163" y="141" type="qcurve"/>
      <point x="1038" y="37"/>
      <point x="871" y="36" type="qcurve"/>
      <point x="793" y="36"/>
      <point x="667" y="100"/>
      <point x="578" y="213"/>
      <point x="556" y="288" type="qcurve" smooth="yes"/>
      <point x="535" y="358"/>
      <point x="535" y="435" type="qcurve"/>
      <point x="536" y="522"/>
      <point x="551" y="593" type="qcurve" smooth="yes"/>
      <point x="585" y="749"/>
      <point x="671" y="866" type="qcurve" smooth="yes"/>
      <point x="714" y="926"/>
      <point x="769" y="971" type="qcurve" smooth="yes"/>
      <point x="885" y="1068"/>
      <point x="1027" y="1068" type="qcurve" smooth="yes"/>
      <point x="1195" y="1068"/>
      <point x="1284" y="950" type="qcurve"/>
      <point x="1300" y="1019" type="line"/>
      <point x="1511" y="1019" type="line"/>
      <point x="1500" y="961"/>
      <point x="1464" y="804" type="qcurve"/>
      <point x="1420" y="620"/>
      <point x="1382" y="441" type="qcurve"/>
      <point x="1359" y="313"/>
      <point x="1359" y="233" type="qcurve" smooth="yes"/>
      <point x="1359" y="170"/>
      <point x="1397" y="128"/>
      <point x="1444" y="128" type="qcurve"/>
      <point x="1494" y="130"/>
      <point x="1519" y="139" type="qcurve" smooth="yes"/>
      <point x="1616" y="176"/>
      <point x="1668" y="298" type="qcurve"/>
      <point x="1714" y="402"/>
      <point x="1714" y="545" type="qcurve" smooth="yes"/>
      <point x="1714" y="721"/>
      <point x="1630" y="880" type="qcurve"/>
      <point x="1542" y="1040"/>
      <point x="1389" y="1131" type="qcurve" smooth="yes"/>
      <point x="1222" y="1230"/>
      <point x="1009" y="1230" type="qcurve" smooth="yes"/>
      <point x="855" y="1230"/>
      <point x="591" y="1126"/>
      <point x="399" y="938"/>
      <point x="290" y="680"/>
      <point x="290" y="525" type="qcurve" smooth="yes"/>
      <point x="290" y="514" type="line" smooth="yes"/>
      <point x="290" y="419"/>
      <point x="314" y="335" type="qcurve" smooth="yes"/>
      <point x="364" y="159"/>
      <point x="499" y="40" type="qcurve" smooth="yes"/>
      <point x="564" y="-18"/>
      <point x="643" y="-59" type="qcurve" smooth="yes"/>
      <point x="796" y="-137"/>
      <point x="980" y="-137" type="qcurve"/>
      <point x="1062" y="-136"/>
      <point x="1172" y="-117"/>
      <point x="1233" y="-98" type="qcurve"/>
      <point x="1305" y="-295" type="line"/>
      <point x="1226" y="-322"/>
      <point x="1077" y="-348"/>
    </contour>
    <contour>
      <point x="893" y="245" type="qcurve" smooth="yes"/>
      <point x="973" y="245"/>
      <point x="1093" y="326"/>
      <point x="1174" y="455"/>
      <point x="1215" y="605"/>
      <point x="1215" y="673" type="qcurve" smooth="yes"/>
      <point x="1215" y="763"/>
      <point x="1140" y="859"/>
      <point x="1057" y="859" type="qcurve" smooth="yes"/>
      <point x="979" y="859"/>
      <point x="859" y="782"/>
      <point x="776" y="658"/>
      <point x="733" y="508"/>
      <point x="733" y="435" type="qcurve" smooth="yes"/>
      <point x="733" y="245"/>
    </contour>
  </outline>
</glyph>
<glyph name="A" format="2">
  <advance width="1355"/>
  <unicode hex="0041"/>
  <outline>
    <contour>
      <point x="1358" y="0" type="line"/>
      <point x="1052" y="0" type="line"/>
      <point x="943" y="307" type="line"/>
      <point x="416" y="307" type="line"/>
      <point x="305" y="0" type="line"/>
      <point x="-4" y="0" type="line"/>
      <point x="573" y="1413" type="line"/>
      <point x="784" y="1413" type="line"/>
    </contour>
    <contour>
      <point x="846" y="546" type="line"/>
      <point x="680" y="996" type="line"/>
      <point x="512" y="546" type="line"/>
    </contour>
  </outline>
</glyph>
<glyph name="D" format="2">
  <advance width="1410"/>
  <unicode hex="0044"/>
  <outline>
    <contour>
      <point x="596" y="0" type="qcurve" smooth="yes"/>
      <point x="173" y="0" type="line"/>
      <point x="173" y="1413" type="line"/>
      <point x="598" y="1413" type="line" smooth="yes"/>
      <point x="964" y="1413"/>
      <point x="1340" y="1041"/>
      <point x="1340" y="696" type="qcurve" smooth="yes"/>
      <point x="1340" y="479"/>
      <point x="1169" y="167"/>
      <point x="837" y="0"/>
    </contour>
    <contour>
      <point x="571" y="260" type="line" smooth="yes"/>
      <point x="824" y="260"/>
      <point x="1056" y="471"/>
      <point x="1056" y="707" type="qcurve" smooth="yes"/>
      <point x="1056" y="951"/>
      <point x="847" y="1151"/>
      <point x="599" y="1151" type="qcurve" smooth="yes"/>
      <point x="456" y="1151" type="line"/>
      <point x="456" y="260" type="line"/>
    </contour>
  </outline>
</glyph>
<glyph name="K" format="2">
  <advance width="1503"/>
  <unicode hex="004B"/>
  <outline>
    <contour>
      <point x="1502" y="0" type="line"/>
      <point x="1147" y="0" type="line"/>
      <point x="725" y="638" type="line"/>
      <point x="456" y="360" type="line"/>
      <point x="456" y="0" type="line"/>
      <point x="173" y="0" type="line"/>
      <point x="173" y="1413" type="line"/>
      <point x="456" y="1413" type="line"/>
      <point x="456" y="705" type="line"/>
      <point x="1115" y="1413" type="line"/>
      <point x="1498" y="1413" type="line"/>
      <point x="923" y="827" type="line"/>
    </contour>
  </outline>
</glyph>
<glyph name="N" format="2">
  <advance width="1465"/>
  <unicode hex="004E"/>
  <outline>
    <contour>
      <point x="1292" y="0" type="line"/>
      <point x="1032" y="0" type="line"/>
      <point x="443" y="911" type="line"/>
      <point x="443" y="0" type="line"/>
      <point x="173" y="0" type="line"/>
      <point x="173" y="1413" type="line"/>
      <point x="432" y="1413" type="line"/>
      <point x="1021" y="504" type="line"/>
      <point x="1021" y="1413" type="line"/>
      <point x="1292" y="1413" type="line"/>
    </contour>
  </outline>
</glyph>
<glyph name="Q" format="2">
  <advance width="1582"/>
  <unicode hex="0051"/>
  <outline>
    <contour>
      <point x="1349" y="-126" type="line"/>
      <point x="1246" y="-23" type="line"/>
      <point x="1143" y="78" type="line"/>
      <point x="981" y="-20"/>
      <point x="766" y="-20" type="qcurve" smooth="yes"/>
      <point x="753" y="-20" type="line" smooth="yes"/>
      <point x="541" y="-20"/>
      <point x="382" y="77" type="qcurve" smooth="yes"/>
      <point x="304" y="124"/>
      <point x="186" y="259"/>
      <point x="107" y="422"/>
      <point x="88" y="515" type="qcurve"/>
      <point x="69" y="602"/>
      <point x="69" y="695" type="qcurve" smooth="yes"/>
      <point x="69" y="721" type="line" smooth="yes"/>
      <point x="69" y="910"/>
      <point x="145" y="1070" type="qcurve"/>
      <point x="228" y="1241"/>
      <point x="379" y="1335" type="qcurve" smooth="yes"/>
      <point x="537" y="1434"/>
      <point x="753" y="1434" type="qcurve" smooth="yes"/>
      <point x="783" y="1434" type="line" smooth="yes"/>
      <point x="945" y="1434"/>
      <point x="1069" y="1379" type="qcurve" smooth="yes"/>
      <point x="1200" y="1321"/>
      <point x="1377" y="1120"/>
      <point x="1420" y="986" type="qcurve"/>
      <point x="1463" y="857"/>
      <point x="1463" y="713" type="qcurve"/>
      <point x="1462" y="430"/>
      <point x="1329" y="237" type="qcurve"/>
      <point x="1533" y="46" type="line"/>
    </contour>
    <contour>
      <point x="766" y="249" type="line" smooth="yes"/>
      <point x="856" y="249"/>
      <point x="941" y="277" type="qcurve"/>
      <point x="750" y="444" type="line"/>
      <point x="936" y="611" type="line"/>
      <point x="983" y="569"/>
      <point x="1029" y="529" type="qcurve" smooth="yes"/>
      <point x="1075" y="488"/>
      <point x="1120" y="446" type="qcurve"/>
      <point x="1152" y="506"/>
      <point x="1179" y="632"/>
      <point x="1179" y="707" type="qcurve" smooth="yes"/>
      <point x="1179" y="911"/>
      <point x="1081" y="1033" type="qcurve"/>
      <point x="972" y="1164"/>
      <point x="766" y="1164" type="qcurve" smooth="yes"/>
      <point x="562" y="1164"/>
      <point x="454" y="1035" type="qcurve" smooth="yes"/>
      <point x="353" y="913"/>
      <point x="353" y="707" type="qcurve" smooth="yes"/>
      <point x="353" y="608"/>
      <point x="403" y="439"/>
      <point x="506" y="317"/>
      <point x="584" y="282" type="qcurve" smooth="yes"/>
      <point x="658" y="249"/>
      <point x="757" y="249" type="qcurve" smooth="yes"/>
    </contour>
  </outline>
</glyph>
<glyph name="R" format="2">
  <advance width="1283"/>
  <unicode hex="0052"/>
  <outline>
    <contour>
      <point x="1277" y="-2" type="qcurve"/>
      <point x="953" y="-2" type="line"/>
      <point x="607" y="595" type="line"/>
      <point x="456" y="595" type="line"/>
      <point x="456" y="-2" type="line"/>
      <point x="173" y="-2" type="line"/>
      <point x="173" y="1413" type="line"/>
      <point x="656" y="1413" type="line" smooth="yes"/>
      <point x="753" y="1413"/>
      <point x="840" y="1386" type="qcurve"/>
      <point x="1031" y="1324"/>
      <point x="1111" y="1166" type="qcurve" smooth="yes"/>
      <point x="1149" y="1090"/>
      <point x="1149" y="997" type="qcurve" smooth="yes"/>
      <point x="1149" y="990" type="line" smooth="yes"/>
      <point x="1149" y="867"/>
      <point x="1001" y="667"/>
      <point x="881" y="621" type="qcurve"/>
      <point x="982" y="465"/>
      <point x="1080" y="310" type="qcurve" smooth="yes"/>
      <point x="1177" y="154"/>
    </contour>
    <contour>
      <point x="668" y="821" type="line"/>
      <point x="761" y="826"/>
      <point x="868" y="911"/>
      <point x="868" y="985" type="qcurve" smooth="yes"/>
      <point x="868" y="1064"/>
      <point x="750" y="1159"/>
      <point x="648" y="1159" type="qcurve" smooth="yes"/>
      <point x="458" y="1159" type="line"/>
      <point x="458" y="821" type="line"/>
    </contour>
  </outline>
</glyph>
<glyph name="U" format="2">
  <advance width="1388"/>
  <unicode hex="0055"/>
  <outline>
    <contour>
      <point x="694" y="-20" type="qcurve" smooth="yes"/>
      <point x="426" y="-20"/>
      <point x="139" y="263"/>
      <point x="139" y="561" type="qcurve" smooth="yes"/>
      <point x="139" y="1413" type="line"/>
      <point x="422" y="1413" type="line"/>
      <point x="422" y="573" type="line" smooth="yes"/>
      <point x="422" y="408"/>
      <point x="534" y="257"/>
      <point x="694" y="255" type="qcurve"/>
      <point x="804" y="255"/>
      <point x="922" y="326"/>
      <point x="966" y="472"/>
      <point x="966" y="585" type="qcurve" smooth="yes"/>
      <point x="966" y="1413" type="line"/>
      <point x="1250" y="1413" type="line"/>
      <point x="1250" y="571" type="line" smooth="yes"/>
      <point x="1250" y="-20"/>
    </contour>
  </outline>
</glyph>
<glyph name="V" format="2">
  <advance width="1349"/>
  <unicode hex="0056"/>
  <outline>
    <contour>
      <point x="779" y="0" type="line"/>
      <point x="572" y="0" type="line"/>
      <point x="-4" y="1413" type="line"/>
      <point x="313" y="1413" type="line"/>
      <point x="677" y="475" type="line"/>
      <point x="1039" y="1413" type="line"/>
      <point x="1353" y="1413" type="line"/>
    </contour>
  </outline>
</glyph>
<glyph name="bracketleft" format="2">
  <advance width="643"/>
  <unicode hex="005B"/>
  <outline>
    <contour>
      <point x="621" y="-186" type="line"/>
      <point x="167" y="-186" type="line"/>
      <point x="167" y="1594" type="line"/>
      <point x="621" y="1594" type="line"/>
      <point x="621" y="1410" type="line"/>
      <point x="386" y="1410" type="line"/>
      <point x="386" y="0" type="line"/>
      <point x="621" y="0" type="line"/>
    </contour>
  </outline>
</glyph>
<glyph name="asciicircum" format="2">
  <advance width="983"/>
  <unicode hex="005E"/>
  <outline>
    <contour>
      <point x="938" y="794" type="line"/>
      <point x="670" y="794" type="line"/>
      <point x="490" y="1085" type="line"/>
      <point x="312" y="794" type="line"/>
      <point x="44" y="794" type="line"/>
      <point x="490" y="1518" type="line"/>
    </contour>
  </outline>
</glyph>
<glyph name="underscore" format="2">
  <advance width="1250"/>
  <unicode hex="005F"/>
  <outline>
    <contour>
      <point x="1062" y="-206" type="line"/>
      <point x="190" y="-206" type="line"/>
      <point x="190" y="0" type="line"/>
      <point x="1062" y="0" type="line"/>
    </contour>
  </outline>
</glyph>
<glyph name="grave" format="2">
  <advance width="531"/>
  <unicode hex="0060"/>
  <outline>
    <contour>
      <point x="511" y="1098" type="line"/>
      <point x="325" y="1098" type="line"/>
      <point x="1" y="1413" type="line"/>
      <point x="282" y="1413" type="line"/>
    </contour>
  </outline>
</glyph>
<glyph name="a" format="2">
  <advance width="1072"/>
  <unicode hex="0061"/>
  <outline>
    <contour>
      <point x="423" y="-20" type="qcurve" smooth="yes"/>
      <point x="413" y="-20" type="line" smooth="yes"/>
      <point x="341" y="-20"/>
      <point x="274" y="1" type="qcurve" smooth="yes"/>
      <point x="202" y="24"/>
      <point x="94" y="112"/>
      <point x="33" y="235"/>
      <point x="33" y="309" type="qcurve" smooth="yes"/>
      <point x="33" y="316" type="line" smooth="yes"/>
      <point x="33" y="466"/>
      <point x="149" y="540" type="qcurve" smooth="yes"/>
      <point x="249" y="604"/>
      <point x="433" y="604" type="qcurve" smooth="yes"/>
      <point x="703" y="604" type="line"/>
      <point x="703" y="684"/>
      <point x="607" y="777"/>
      <point x="521" y="777" type="qcurve" smooth="yes"/>
      <point x="445" y="777"/>
      <point x="334" y="705"/>
      <point x="299" y="643" type="qcurve"/>
      <point x="194" y="719"/>
      <point x="88" y="794" type="qcurve"/>
      <point x="165" y="901"/>
      <point x="377" y="1016"/>
      <point x="519" y="1016" type="qcurve" smooth="yes"/>
      <point x="623" y="1016"/>
      <point x="788" y="957"/>
      <point x="904" y="849"/>
      <point x="966" y="697"/>
      <point x="966" y="604" type="qcurve" smooth="yes"/>
      <point x="966" y="0" type="line"/>
      <point x="742" y="0" type="line"/>
      <point x="722" y="127" type="line"/>
      <point x="661" y="46"/>
      <point x="515" y="-20"/>
    </contour>
    <contour>
      <point x="473" y="211" type="line" smooth="yes"/>
      <point x="512" y="211"/>
      <point x="592" y="241"/>
      <point x="660" y="296"/>
      <point x="703" y="369"/>
      <point x="703" y="408" type="qcurve"/>
      <point x="569" y="408" type="line" smooth="yes"/>
      <point x="523" y="408"/>
      <point x="477" y="406" type="qcurve" smooth="yes"/>
      <point x="380" y="403"/>
      <point x="336" y="364" type="qcurve"/>
      <point x="313" y="345"/>
      <point x="313" y="307" type="qcurve" smooth="yes"/>
      <point x="313" y="265"/>
      <point x="397" y="211"/>
      <point x="464" y="211" type="qcurve" smooth="yes"/>
    </contour>
  </outline>
</glyph>
<glyph name="b" format="2">
  <advance width="1191"/>
  <unicode hex="0062"/>
  <outline>
    <contour>
      <point x="715" y="-20" type="qcurve" smooth="yes"/>
      <point x="701" y="-20" type="line" smooth="yes"/>
      <point x="622" y="-20"/>
      <point x="474" y="33"/>
      <point x="424" y="89" type="qcurve"/>
      <point x="424" y="0" type="line"/>
      <point x="140" y="0" type="line"/>
      <point x="140" y="1410" type="line"/>
      <point x="424" y="1410" type="line"/>
      <point x="424" y="910" type="line"/>
      <point x="517" y="1018"/>
      <point x="703" y="1019" type="qcurve"/>
      <point x="802" y="1019"/>
      <point x="965" y="936"/>
      <point x="1079" y="793"/>
      <point x="1109" y="698" type="qcurve" smooth="yes"/>
      <point x="1137" y="608"/>
      <point x="1137" y="509" type="qcurve" smooth="yes"/>
      <point x="1137" y="491" type="line" smooth="yes"/>
      <point x="1137" y="392"/>
      <point x="1109" y="302" type="qcurve" smooth="yes"/>
      <point x="1079" y="206"/>
      <point x="965" y="61"/>
      <point x="884" y="19" type="qcurve" smooth="yes"/>
      <point x="808" y="-20"/>
    </contour>
    <contour>
      <point x="633" y="234" type="qcurve" smooth="yes"/>
      <point x="698" y="234"/>
      <point x="801" y="287"/>
      <point x="861" y="404"/>
      <point x="861" y="500" type="qcurve" smooth="yes"/>
      <point x="861" y="567"/>
      <point x="819" y="691"/>
      <point x="719" y="770"/>
      <point x="633" y="770" type="qcurve" smooth="yes"/>
      <point x="528" y="770"/>
      <point x="399" y="638"/>
      <point x="399" y="500" type="qcurve" smooth="yes"/>
      <point x="399" y="427"/>
      <point x="446" y="306"/>
      <point x="549" y="234"/>
    </contour>
  </outline>
</glyph>
<glyph name="d" format="2">
  <advance width="1184"/>
  <unicode hex="0064"/>
  <outline>
    <contour>
      <point x="495" y="-20" type="qcurve" smooth="yes"/>
      <point x="488" y="-20" type="line" smooth="yes"/>
      <point x="387" y="-20"/>
      <point x="224" y="62"/>
      <point x="110" y="206"/>
      <point x="81" y="301" type="qcurve" smooth="yes"/>
      <point x="53" y="390"/>
      <point x="53" y="490" type="qcurve" smooth="yes"/>
      <point x="53" y="510" type="line" smooth="yes"/>
      <point x="53" y="607"/>
      <point x="81" y="697" type="qcurve" smooth="yes"/>
      <point x="111" y="792"/>
      <point x="224" y="936"/>
      <point x="306" y="979" type="qcurve" smooth="yes"/>
      <point x="384" y="1020"/>
      <point x="483" y="1020" type="qcurve"/>
      <point x="571" y="1019"/>
      <point x="718" y="966"/>
      <point x="766" y="910" type="qcurve"/>
      <point x="766" y="1413" type="line"/>
      <point x="1044" y="1413" type="line"/>
      <point x="1044" y="0" type="line"/>
      <point x="792" y="0" type="line"/>
      <point x="788" y="23"/>
      <point x="786" y="47" type="qcurve"/>
      <point x="778" y="103" type="line"/>
      <point x="754" y="71"/>
      <point x="691" y="24"/>
      <point x="616" y="-6"/>
      <point x="536" y="-20"/>
    </contour>
    <contour>
      <point x="561" y="233" type="qcurve" smooth="yes"/>
      <point x="664" y="233"/>
      <point x="789" y="363"/>
      <point x="789" y="500" type="qcurve" smooth="yes"/>
      <point x="789" y="572"/>
      <point x="745" y="697"/>
      <point x="645" y="773"/>
      <point x="561" y="773" type="qcurve" smooth="yes"/>
      <point x="496" y="773"/>
      <point x="391" y="716"/>
      <point x="330" y="595"/>
      <point x="330" y="500" type="qcurve" smooth="yes"/>
      <point x="330" y="421"/>
      <point x="377" y="301"/>
      <point x="479" y="233"/>
    </contour>
  </outline>
</glyph>
<glyph name="e" format="2">
  <advance width="1076"/>
  <unicode hex="0065"/>
  <outline>
    <contour>
      <point x="559" y="-12" type="qcurve" smooth="yes"/>
      <point x="543" y="-12" type="line" smooth="yes"/>
      <point x="430" y="-12"/>
      <point x="340" y="26" type="qcurve" smooth="yes"/>
      <point x="244" y="66"/>
      <point x="111" y="206"/>
      <point x="44" y="388"/>
      <point x="44" y="486" type="qcurve" smooth="yes"/>
      <point x="44" y="503" type="line" smooth="yes"/>
      <point x="44" y="596"/>
      <point x="105" y="779"/>
      <point x="230" y="924"/>
      <point x="417" y="1012"/>
      <point x="541" y="1012" type="qcurve" smooth="yes"/>
      <point x="645" y="1012"/>
      <point x="798" y="967"/>
      <point x="857" y="920" type="qcurve" smooth="yes"/>
      <point x="1027" y="785"/>
      <point x="1027" y="502" type="qcurve" smooth="yes"/>
      <point x="1027" y="469"/>
      <point x="1019" y="419"/>
      <point x="1016" y="411" type="qcurve"/>
      <point x="333" y="411" type="line"/>
      <point x="369" y="245"/>
      <point x="557" y="245" type="qcurve" smooth="yes"/>
      <point x="645" y="245"/>
      <point x="692" y="262" type="qcurve" smooth="yes"/>
      <point x="749" y="284"/>
      <point x="797" y="333" type="qcurve"/>
      <point x="892" y="250"/>
      <point x="986" y="166" type="qcurve"/>
      <point x="900" y="71"/>
      <point x="693" y="-12"/>
    </contour>
    <contour>
      <point x="756" y="604" type="line"/>
      <point x="741" y="695"/>
      <point x="640" y="784"/>
      <point x="541" y="784" type="qcurve" smooth="yes"/>
      <point x="378" y="784"/>
      <point x="333" y="604" type="qcurve"/>
    </contour>
  </outline>
</glyph>
<glyph name="h" format="2">
  <advance width="1183"/>
  <unicode hex="0068"/>
  <outline>
    <contour>
      <point x="1076" y="0" type="line"/>
      <point x="798" y="0" type="line"/>
      <point x="798" y="562" type="line" smooth="yes"/>
      <point x="798" y="610"/>
      <point x="791" y="647" type="qcurve" smooth="yes"/>
      <point x="776" y="724"/>
      <point x="722" y="748" type="qcurve" smooth="yes"/>
      <point x="694" y="761"/>
      <point x="646" y="761" type="qcurve" smooth="yes"/>
      <point x="577" y="761"/>
      <point x="534" y="733" type="qcurve" smooth="yes"/>
      <point x="419" y="661"/>
      <point x="419" y="449" type="qcurve" smooth="yes"/>
      <point x="419" y="0" type="line"/>
      <point x="140" y="0" type="line"/>
      <point x="140" y="1413" type="line"/>
      <point x="419" y="1413" type="line"/>
      <point x="419" y="898" type="line"/>
      <point x="479" y="964"/>
      <point x="620" y="1015"/>
      <point x="705" y="1016" type="qcurve"/>
      <point x="797" y="1016"/>
      <point x="866" y="983" type="qcurve"/>
      <point x="937" y="947"/>
      <point x="1031" y="828"/>
      <point x="1076" y="675"/>
      <point x="1076" y="595" type="qcurve" smooth="yes"/>
    </contour>
  </outline>
</glyph>
<glyph name="i" format="2">
  <advance width="546"/>
  <unicode hex="0069"/>
  <outline>
    <contour>
      <point x="415" y="1178" type="line"/>
      <point x="133" y="1178" type="line"/>
      <point x="133" y="1413" type="line"/>
      <point x="415" y="1413" type="line"/>
    </contour>
    <contour>
      <point x="408" y="0" type="line"/>
      <point x="138" y="0" type="line"/>
      <point x="138" y="999" type="line"/>
      <point x="408" y="999" type="line"/>
    </contour>
  </outline>
</glyph>
<glyph name="n" format="2">
  <advance width="1182"/>
  <unicode hex="006E"/>
  <outline>
    <contour>
      <point x="1075" y="0" type="line"/>
      <point x="796" y="0" type="line"/>
      <point x="796" y="562" type="line" smooth="yes"/>
      <point x="796" y="660"/>
      <point x="733" y="761"/>
      <point x="652" y="761" type="qcurve" smooth="yes"/>
      <point x="645" y="761" type="line" smooth="yes"/>
      <point x="516" y="761"/>
      <point x="460" y="659" type="qcurve" smooth="yes"/>
      <point x="416" y="579"/>
      <point x="416" y="443" type="qcurve" smooth="yes"/>
      <point x="416" y="0" type="line"/>
      <point x="138" y="0" type="line"/>
      <point x="138" y="999" type="line"/>
      <point x="416" y="999" type="line"/>
      <point x="416" y="896" type="line"/>
      <point x="473" y="959"/>
      <point x="617" y="1015"/>
      <point x="705" y="1016" type="qcurve"/>
      <point x="797" y="1016"/>
      <point x="936" y="946"/>
      <point x="1029" y="830"/>
      <point x="1075" y="678"/>
      <point x="1075" y="598" type="qcurve" smooth="yes"/>
    </contour>
  </outline>
</glyph>
<glyph name="p" format="2">
  <advance width="1184"/>
  <unicode hex="0070"/>
  <outline>
    <contour>
      <point x="418" y="-438" type="line"/>
      <point x="140" y="-438" type="line"/>
      <point x="140" y="999" type="line"/>
      <point x="418" y="999" type="line"/>
      <point x="418" y="910" type="line"/>
      <point x="471" y="970"/>
      <point x="610" y="1019"/>
      <point x="697" y="1020" type="qcurve"/>
      <point x="796" y="1020"/>
      <point x="958" y="938"/>
      <point x="1072" y="795"/>
      <point x="1102" y="700" type="qcurve" smooth="yes"/>
      <point x="1131" y="609"/>
      <point x="1131" y="510" type="qcurve" smooth="yes"/>
      <point x="1131" y="491" type="line" smooth="yes"/>
      <point x="1131" y="392"/>
      <point x="1072" y="206"/>
      <point x="958" y="61"/>
      <point x="877" y="19" type="qcurve" smooth="yes"/>
      <point x="801" y="-20"/>
      <point x="708" y="-20" type="qcurve" smooth="yes"/>
      <point x="695" y="-20" type="line" smooth="yes"/>
      <point x="616" y="-20"/>
      <point x="468" y="33"/>
      <point x="418" y="89" type="qcurve"/>
    </contour>
    <contour>
      <point x="624" y="234" type="qcurve" smooth="yes"/>
      <point x="685" y="234"/>
      <point x="789" y="286"/>
      <point x="853" y="403"/>
      <point x="853" y="500" type="qcurve" smooth="yes"/>
      <point x="853" y="571"/>
      <point x="810" y="696"/>
      <point x="709" y="774"/>
      <point x="624" y="774" type="qcurve" smooth="yes"/>
      <point x="520" y="774"/>
      <point x="394" y="638"/>
      <point x="394" y="500" type="qcurve" smooth="yes"/>
      <point x="394" y="419"/>
      <point x="441" y="300"/>
      <point x="543" y="234"/>
    </contour>
  </outline>
</glyph>
<glyph name="q" format="2">
  <advance width="1181"/>
  <unicode hex="0071"/>
  <outline>
    <contour>
      <point x="1041" y="-438" type="line"/>
      <point x="766" y="-438" type="line"/>
      <point x="766" y="89" type="line"/>
      <point x="743" y="60"/>
      <point x="713" y="39" type="qcurve"/>
      <point x="650" y="-2"/>
      <point x="573" y="-14" type="qcurve" smooth="yes"/>
      <point x="536" y="-20"/>
      <point x="488" y="-20" type="qcurve" smooth="yes"/>
      <point x="387" y="-20"/>
      <point x="224" y="62"/>
      <point x="110" y="206"/>
      <point x="81" y="301" type="qcurve" smooth="yes"/>
      <point x="53" y="390"/>
      <point x="53" y="490" type="qcurve" smooth="yes"/>
      <point x="53" y="510" type="line" smooth="yes"/>
      <point x="53" y="608"/>
      <point x="81" y="698" type="qcurve" smooth="yes"/>
      <point x="111" y="792"/>
      <point x="224" y="936"/>
      <point x="306" y="979" type="qcurve" smooth="yes"/>
      <point x="384" y="1020"/>
      <point x="483" y="1020" type="qcurve" smooth="yes"/>
      <point x="490" y="1020" type="line" smooth="yes"/>
      <point x="569" y="1020"/>
      <point x="644" y="993" type="qcurve"/>
      <point x="722" y="963"/>
      <point x="766" y="910" type="qcurve"/>
      <point x="766" y="999" type="line"/>
      <point x="1041" y="999" type="line"/>
    </contour>
    <contour>
      <point x="561" y="234" type="qcurve" smooth="yes"/>
      <point x="665" y="234"/>
      <point x="789" y="364"/>
      <point x="789" y="500" type="qcurve" smooth="yes"/>
      <point x="789" y="574"/>
      <point x="745" y="697"/>
      <point x="645" y="771"/>
      <point x="561" y="771" type="qcurve" smooth="yes"/>
      <point x="498" y="771"/>
      <point x="393" y="716"/>
      <point x="330" y="597"/>
      <point x="330" y="500" type="qcurve" smooth="yes"/>
      <point x="330" y="379"/>
      <point x="442" y="234"/>
    </contour>
  </outline>
</glyph>
<glyph name="r" format="2">
  <advance width="821"/>
  <unicode hex="0072"/>
  <outline>
    <contour>
      <point x="400" y="0" type="line"/>
      <point x="138" y="0" type="line"/>
      <point x="138" y="999" type="line"/>
      <point x="402" y="999" type="line"/>
      <point x="402" y="839" type="line"/>
      <point x="417" y="882"/>
      <point x="466" y="948"/>
      <point x="526" y="993"/>
      <point x="595" y="1014"/>
      <point x="629" y="1014" type="qcurve" smooth="yes"/>
      <point x="686" y="1014"/>
      <point x="810" y="979"/>
      <point x="853" y="942" type="qcurve"/>
      <point x="825" y="892"/>
      <point x="723" y="719" type="qcurve"/>
      <point x="700" y="738"/>
      <point x="676" y="745" type="qcurve" smooth="yes"/>
      <point x="656" y="750"/>
      <point x="627" y="750" type="qcurve" smooth="yes"/>
      <point x="618" y="750"/>
      <point x="608" y="750" type="qcurve" smooth="yes"/>
      <point x="597" y="750"/>
      <point x="575" y="746"/>
      <point x="564" y="743" type="qcurve"/>
      <point x="528" y="730"/>
      <point x="468" y="678"/>
      <point x="425" y="608"/>
      <point x="400" y="523"/>
      <point x="400" y="475" type="qcurve" smooth="yes"/>
    </contour>
  </outline>
</glyph>
<glyph name="s" format="2">
  <advance width="929"/>
  <unicode hex="0073"/>
  <outline>
    <contour>
      <point x="490" y="-20" type="qcurve" smooth="yes"/>
      <point x="469" y="-21" type="line"/>
      <point x="459" y="-21"/>
      <point x="449" y="-21" type="qcurve" smooth="yes"/>
      <point x="388" y="-21"/>
      <point x="330" y="-6" type="qcurve" smooth="yes"/>
      <point x="259" y="13"/>
      <point x="138" y="88"/>
      <point x="52" y="191"/>
      <point x="31" y="251" type="qcurve"/>
      <point x="137" y="301"/>
      <point x="242" y="353" type="qcurve"/>
      <point x="275" y="277"/>
      <point x="318" y="243" type="qcurve"/>
      <point x="365" y="202"/>
      <point x="438" y="202" type="qcurve" smooth="yes"/>
      <point x="444" y="202"/>
      <point x="451" y="202" type="qcurve"/>
      <point x="523" y="205"/>
      <point x="566" y="246" type="qcurve" smooth="yes"/>
      <point x="598" y="276"/>
      <point x="598" y="311" type="qcurve" smooth="yes"/>
      <point x="598" y="313"/>
      <point x="598" y="315" type="qcurve"/>
      <point x="597" y="344"/>
      <point x="541" y="376"/>
      <point x="495" y="387" type="qcurve" smooth="yes"/>
      <point x="389" y="411" type="line" smooth="yes"/>
      <point x="328" y="425"/>
      <point x="261" y="450" type="qcurve" smooth="yes"/>
      <point x="225" y="463"/>
      <point x="195" y="484" type="qcurve" smooth="yes"/>
      <point x="131" y="529"/>
      <point x="106" y="601" type="qcurve"/>
      <point x="92" y="638"/>
      <point x="90" y="696" type="qcurve"/>
      <point x="90" y="705"/>
      <point x="90" y="714" type="qcurve" smooth="yes"/>
      <point x="90" y="780"/>
      <point x="144" y="889"/>
      <point x="250" y="969"/>
      <point x="390" y="1011"/>
      <point x="463" y="1014" type="qcurve" smooth="yes"/>
      <point x="478" y="1015"/>
      <point x="492" y="1015" type="qcurve" smooth="yes"/>
      <point x="742" y="1015"/>
      <point x="868" y="815" type="qcurve"/>
      <point x="790" y="769"/>
      <point x="664" y="692" type="qcurve"/>
      <point x="632" y="742"/>
      <point x="544" y="800"/>
      <point x="478" y="800" type="qcurve" smooth="yes"/>
      <point x="472" y="800"/>
      <point x="465" y="800" type="qcurve"/>
      <point x="352" y="795"/>
      <point x="352" y="737" type="qcurve"/>
      <point x="352" y="736"/>
      <point x="352" y="735" type="qcurve"/>
      <point x="354" y="704"/>
      <point x="430" y="672" type="qcurve" smooth="yes"/>
      <point x="455" y="662"/>
      <point x="516" y="644" type="qcurve"/>
      <point x="646" y="608" type="line"/>
      <point x="706" y="588"/>
      <point x="752" y="558" type="qcurve"/>
      <point x="819" y="510"/>
      <point x="849" y="430" type="qcurve" smooth="yes"/>
      <point x="864" y="390"/>
      <point x="867" y="329" type="qcurve"/>
      <point x="867" y="322"/>
      <point x="867" y="315" type="qcurve" smooth="yes"/>
      <point x="867" y="245"/>
      <point x="809" y="122"/>
      <point x="698" y="32"/>
      <point x="626" y="6" type="qcurve" smooth="yes"/>
      <point x="559" y="-17"/>
    </contour>
  </outline>
</glyph>
<glyph name="v" format="2">
  <advance width="1015"/>
  <unicode hex="0076"/>
  <outline>
    <contour>
      <point x="618" y="0" type="line"/>
      <point x="396" y="0" type="line"/>
      <point x="-22" y="999" type="line"/>
      <point x="276" y="999" type="line"/>
      <point x="508" y="353" type="line"/>
      <point x="740" y="999" type="line"/>
      <point x="1038" y="999" type="line"/>
    </contour>
  </outline>
</glyph>
<glyph name="x" format="2">
  <advance width="1064"/>
  <unicode hex="0078"/>
  <outline>
    <contour>
      <point x="1065" y="0" type="line"/>
      <point x="729" y="0" type="line"/>
      <point x="530" y="323" type="line"/>
      <point x="331" y="0" type="line"/>
      <point x="-1" y="0" type="line"/>
      <point x="342" y="504" type="line"/>
      <point x="-1" y="999" type="line"/>
      <point x="331" y="999" type="line"/>
      <point x="530" y="683" type="line"/>
      <point x="729" y="999" type="line"/>
      <point x="1065" y="999" type="line"/>
      <point x="718" y="504" type="line"/>
    </contour>
  </outline>
</glyph>
<glyph name="y" format="2">
  <advance width="1050"/>
  <unicode hex="0079"/>
  <outline>
    <contour>
      <point x="486" y="-430" type="line"/>
      <point x="186" y="-430" type="line"/>
      <point x="374" y="34" type="line"/>
      <point x="-19" y="999" type="line"/>
      <point x="281" y="999" type="line"/>
      <point x="521" y="343" type="line"/>
      <point x="768" y="999" type="line"/>
      <point x="1069" y="999" type="line"/>
    </contour>
  </outline>
</glyph>
<glyph name="z" format="2">
  <advance width="1027"/>
  <unicode hex="007A"/>
  <outline>
    <contour>
      <point x="960" y="0" type="line"/>
      <point x="49" y="0" type="line"/>
      <point x="49" y="177" type="line"/>
      <point x="599" y="769" type="line"/>
      <point x="78" y="769" type="line"/>
      <point x="78" y="999" type="line"/>
      <point x="960" y="999" type="line"/>
      <point x="960" y="809" type="line"/>
      <point x="435" y="229" type="line"/>
      <point x="960" y="229" type="line"/>
    </contour>
  </outline>
</glyph>
<glyph name="braceright" format="2">
  <advance width="624"/>
  <unicode hex="007D"/>
  <outline>
    <contour>
      <point x="215" y="-167" type="qcurve" smooth="yes"/>
      <point x="143" y="-167" type="line" smooth="yes"/>
      <point x="131" y="-167"/>
      <point x="96" y="-165" type="qcurve" smooth="yes"/>
      <point x="61" y="-162"/>
      <point x="47" y="-162" type="qcurve"/>
      <point x="47" y="25" type="line"/>
      <point x="73" y="19"/>
      <point x="115" y="14"/>
      <point x="131" y="14" type="qcurve" smooth="yes"/>
      <point x="184" y="14"/>
      <point x="221" y="84"/>
      <point x="221" y="136" type="qcurve" smooth="yes"/>
      <point x="221" y="497" type="line" smooth="yes"/>
      <point x="221" y="550"/>
      <point x="291" y="643"/>
      <point x="351" y="675" type="qcurve"/>
      <point x="287" y="715"/>
      <point x="258" y="760" type="qcurve"/>
      <point x="221" y="813"/>
      <point x="221" y="891" type="qcurve" smooth="yes"/>
      <point x="221" y="1402" type="line" smooth="yes"/>
      <point x="221" y="1419"/>
      <point x="200" y="1427"/>
      <point x="162" y="1427" type="qcurve" smooth="yes"/>
      <point x="151" y="1427"/>
      <point x="111" y="1422" type="qcurve" smooth="yes"/>
      <point x="89" y="1420"/>
      <point x="47" y="1410" type="qcurve"/>
      <point x="47" y="1597" type="line"/>
      <point x="58" y="1599"/>
      <point x="67" y="1599" type="qcurve" smooth="yes"/>
      <point x="72" y="1599" type="line"/>
      <point x="100" y="1602" type="line"/>
      <point x="192" y="1602" type="line" smooth="yes"/>
      <point x="323" y="1602"/>
      <point x="387" y="1534" type="qcurve" smooth="yes"/>
      <point x="450" y="1465"/>
      <point x="450" y="1331" type="qcurve" smooth="yes"/>
      <point x="450" y="905" type="line"/>
      <point x="451" y="873"/>
      <point x="465" y="833"/>
      <point x="495" y="805"/>
      <point x="545" y="782"/>
      <point x="581" y="768" type="qcurve"/>
      <point x="581" y="594" type="line"/>
      <point x="556" y="584"/>
      <point x="506" y="564"/>
      <point x="471" y="542"/>
      <point x="450" y="514"/>
      <point x="450" y="491" type="qcurve" smooth="yes"/>
      <point x="450" y="134" type="line" smooth="yes"/>
      <point x="450" y="73"/>
      <point x="426" y="-37"/>
      <point x="370" y="-119"/>
      <point x="281" y="-167"/>
    </contour>
  </outline>
</glyph>
<glyph name="asciitilde" format="2">
  <advance width="1156"/>
  <unicode hex="007E"/>
  <outline>
    <contour>
      <point x="619" y="376" type="qcurve"/>
      <point x="563" y="389"/>
      <point x="490" y="425" type="qcurve" smooth="yes"/>
      <point x="462" y="438"/>
      <point x="435" y="449" type="qcurve" smooth="yes"/>
      <point x="412" y="459"/>
      <point x="400" y="459" type="qcurve" smooth="yes"/>
      <point x="382" y="459"/>
      <point x="363" y="456"/>
      <point x="355" y="445"/>
      <point x="352" y="424"/>
      <point x="352" y="406" type="qcurve"/>
      <point x="160" y="406" type="line"/>
      <point x="160" y="534"/>
      <point x="286" y="651"/>
      <point x="398" y="651" type="qcurve" smooth="yes"/>
      <point x="442" y="651"/>
      <point x="516" y="644"/>
      <point x="549" y="637" type="qcurve"/>
      <point x="607" y="623"/>
      <point x="668" y="594" type="qcurve"/>
      <point x="716" y="574"/>
      <point x="741" y="574" type="qcurve"/>
      <point x="762" y="575" type="line"/>
      <point x="791" y="581"/>
      <point x="795" y="614"/>
      <point x="795" y="645" type="qcurve"/>
      <point x="995" y="645" type="line"/>
      <point x="995" y="512"/>
      <point x="869" y="379"/>
      <point x="734" y="379" type="qcurve" smooth="yes"/>
      <point x="701" y="379"/>
      <point x="672" y="378" type="qcurve" smooth="yes"/>
      <point x="643" y="376"/>
    </contour>
  </outline>
</glyph>
<glyph name="exclamdown" format="2">
  <advance width="637"/>
  <unicode hex="00A1"/>
  <outline>
    <contour>
      <point x="463" y="713" type="line"/>
      <point x="174" y="713" type="line"/>
      <point x="174" y="999" type="line"/>
      <point x="463" y="999" type="line"/>
    </contour>
    <contour>
      <point x="450" y="-434" type="line"/>
      <point x="187" y="-434" type="line"/>
      <point x="215" y="556" type="line"/>
      <point x="422" y="556" type="line"/>
    </contour>
  </outline>
</glyph>
<glyph name="cent" format="2">
  <advance width="1110"/>
  <unicode hex="00A2"/>
  <outline>
    <contour>
      <point x="680" y="-205" type="line"/>
      <point x="478" y="-205" type="line"/>
      <point x="478" y="-22" type="line"/>
      <point x="301" y="8"/>
      <point x="195" y="163" type="qcurve" smooth="yes"/>
      <point x="146" y="233"/>
      <point x="122" y="320" type="qcurve" smooth="yes"/>
      <point x="99" y="401"/>
      <point x="99" y="487" type="qcurve" smooth="yes"/>
      <point x="99" y="509" type="line" smooth="yes"/>
      <point x="99" y="592"/>
      <point x="122" y="672" type="qcurve" smooth="yes"/>
      <point x="172" y="851"/>
      <point x="314" y="950" type="qcurve" smooth="yes"/>
      <point x="385" y="1000"/>
      <point x="478" y="1017" type="qcurve"/>
      <point x="478" y="1200" type="line"/>
      <point x="680" y="1200" type="line"/>
      <point x="680" y="1017" type="line"/>
      <point x="807" y="993"/>
      <point x="972" y="847"/>
      <point x="1031" y="713" type="qcurve"/>
      <point x="793" y="622" type="line"/>
      <point x="780" y="669"/>
      <point x="747" y="739"/>
      <point x="696" y="785"/>
      <point x="628" y="806"/>
      <point x="581" y="806" type="qcurve" smooth="yes"/>
      <point x="520" y="806"/>
      <point x="433" y="756"/>
      <point x="376" y="671"/>
      <point x="348" y="560"/>
      <point x="348" y="498" type="qcurve" smooth="yes"/>
      <point x="348" y="432"/>
      <point x="376" y="319"/>
      <point x="434" y="235"/>
      <point x="521" y="188"/>
      <point x="581" y="188" type="qcurve" smooth="yes"/>
      <point x="626" y="188"/>
      <point x="691" y="209"/>
      <point x="740" y="254"/>
      <point x="777" y="323"/>
      <point x="793" y="373" type="qcurve"/>
      <point x="1017" y="285" type="line"/>
      <point x="964" y="149"/>
      <point x="887" y="79" type="qcurve" smooth="yes"/>
      <point x="803" y="2"/>
      <point x="680" y="-21" type="qcurve"/>
    </contour>
  </outline>
</glyph>
<glyph name="sterling" format="2">
  <advance width="1187"/>
  <unicode hex="00A3"/>
  <outline>
    <contour>
      <point x="1177" y="0" type="line"/>
      <point x="129" y="0" type="line"/>
      <point x="129" y="235" type="line"/>
      <point x="129" y="234"/>
      <point x="131" y="234" type="qcurve" smooth="yes"/>
      <point x="136" y="234"/>
      <point x="150" y="240" type="qcurve" smooth="yes"/>
      <point x="170" y="248"/>
      <point x="200" y="265" type="qcurve" smooth="yes"/>
      <point x="277" y="309"/>
      <point x="320" y="351" type="qcurve"/>
      <point x="359" y="387"/>
      <point x="371" y="434" type="qcurve"/>
      <point x="376" y="470" type="line"/>
      <point x="376" y="483"/>
      <point x="374" y="498" type="qcurve"/>
      <point x="371" y="542"/>
      <point x="356" y="594" type="qcurve"/>
      <point x="133" y="594" type="line"/>
      <point x="133" y="821" type="line"/>
      <point x="301" y="821" type="line"/>
      <point x="298" y="825"/>
      <point x="291" y="850" type="qcurve"/>
      <point x="282" y="888"/>
      <point x="275" y="936" type="qcurve" smooth="yes"/>
      <point x="269" y="980"/>
      <point x="268" y="1050" type="qcurve"/>
      <point x="268" y="1130"/>
      <point x="325" y="1274"/>
      <point x="438" y="1385"/>
      <point x="604" y="1450"/>
      <point x="710" y="1450" type="qcurve" smooth="yes"/>
      <point x="787" y="1450"/>
      <point x="919" y="1400"/>
      <point x="1025" y="1314"/>
      <point x="1103" y="1197"/>
      <point x="1126" y="1131" type="qcurve"/>
      <point x="915" y="1054" type="line"/>
      <point x="887" y="1133"/>
      <point x="781" y="1222"/>
      <point x="710" y="1222" type="qcurve" smooth="yes"/>
      <point x="610" y="1222"/>
      <point x="496" y="1138"/>
      <point x="496" y="1037" type="qcurve" smooth="yes"/>
      <point x="496" y="971"/>
      <point x="517" y="887" type="qcurve"/>
      <point x="524" y="855"/>
      <point x="536" y="821"/>
      <point x="537" y="821" type="qcurve"/>
      <point x="1015" y="821" type="line"/>
      <point x="1015" y="594" type="line"/>
      <point x="588" y="594" type="line"/>
      <point x="592" y="568" type="line"/>
      <point x="596" y="528" type="line" smooth="yes"/>
      <point x="600" y="487"/>
      <point x="600" y="464" type="qcurve"/>
      <point x="599" y="441"/>
      <point x="595" y="395"/>
      <point x="590" y="375" type="qcurve" smooth="yes"/>
      <point x="577" y="327"/>
      <point x="538" y="262"/>
      <point x="516" y="246" type="qcurve"/>
      <point x="499" y="231"/>
      <point x="491" y="227" type="qcurve"/>
      <point x="1177" y="227" type="line"/>
    </contour>
  </outline>
</glyph>
<glyph name="yen" format="2">
  <advance width="1328"/>
  <unicode hex="00A5"/>
  <outline>
    <contour>
      <point x="779" y="0" type="line"/>
      <point x="549" y="0" type="line"/>
      <point x="549" y="163" type="line"/>
      <point x="250" y="163" type="line"/>
      <point x="250" y="368" type="line"/>
      <point x="549" y="368" type="line"/>
      <point x="549" y="485" type="line"/>
      <point x="250" y="485" type="line"/>
      <point x="250" y="693" type="line"/>
      <point x="453" y="693" type="line"/>
      <point x="-19" y="1413" type="line"/>
      <point x="257" y="1413" type="line"/>
      <point x="664" y="752" type="line"/>
      <point x="1071" y="1413" type="line"/>
      <point x="1347" y="1413" type="line"/>
      <point x="874" y="690" type="line"/>
      <point x="1077" y="690" type="line"/>
      <point x="1077" y="485" type="line"/>
      <point x="779" y="485" type="line"/>
      <point x="779" y="368" type="line"/>
      <point x="1077" y="368" type="line"/>
      <point x="1077" y="163" type="line"/>
      <point x="779" y="163" type="line"/>
    </contour>
  </outline>
</glyph>
<glyph name="brokenbar" format="2">
  <advance width="651"/>
  <unicode hex="00A6"/>
  <outline>
    <contour>
      <point x="440" y="731" type="line"/>
      <point x="210" y="731" type="line"/>
      <point x="210" y="1475" type="line"/>
      <point x="440" y="1475" type="line"/>
    </contour>
    <contour>
      <point x="440" y="-307" type="line"/>
      <point x="210" y="-307" type="line"/>
      <point x="210" y="420" type="line"/>
      <point x="440" y="420" type="line"/>
    </contour>
  </outline>
</glyph>
<glyph name="section" format="2">
  <advance width="1108"/>
  <unicode hex="00A7"/>
  <outline>
    <contour>
      <point x="559" y="-18" type="qcurve" smooth="yes"/>
      <point x="548" y="-18" type="line" smooth="yes"/>
      <point x="477" y="-18"/>
      <point x="407" y="-1" type="qcurve" smooth="yes"/>
      <point x="332" y="16"/>
      <point x="209" y="90"/>
      <point x="124" y="203"/>
      <point x="112" y="279" type="qcurve"/>
      <point x="374" y="357" type="line"/>
      <point x="392" y="276"/>
      <point x="487" y="198"/>
      <point x="580" y="198" type="qcurve" smooth="yes"/>
      <point x="661" y="198"/>
      <point x="756" y="249"/>
      <point x="756" y="295" type="qcurve" smooth="yes"/>
      <point x="756" y="346"/>
      <point x="643" y="411"/>
      <point x="525" y="432" type="qcurve"/>
      <point x="447" y="449"/>
      <point x="313" y="488"/>
      <point x="215" y="553"/>
      <point x="158" y="651"/>
      <point x="158" y="727" type="qcurve" smooth="yes"/>
      <point x="158" y="790"/>
      <point x="200" y="886"/>
      <point x="239" y="931" type="qcurve"/>
      <point x="199" y="970"/>
      <point x="161" y="1061"/>
      <point x="160" y="1126" type="qcurve"/>
      <point x="160" y="1198"/>
      <point x="226" y="1313"/>
      <point x="340" y="1393"/>
      <point x="486" y="1434"/>
      <point x="562" y="1434" type="qcurve" smooth="yes"/>
      <point x="686" y="1434"/>
      <point x="799" y="1381" type="qcurve" smooth="yes"/>
      <point x="904" y="1331"/>
      <point x="944" y="1261" type="qcurve"/>
      <point x="731" y="1127" type="line"/>
      <point x="715" y="1172"/>
      <point x="621" y="1226"/>
      <point x="552" y="1226" type="qcurve" smooth="yes"/>
      <point x="510" y="1226"/>
      <point x="447" y="1206"/>
      <point x="406" y="1174"/>
      <point x="385" y="1135"/>
      <point x="385" y="1115" type="qcurve" smooth="yes"/>
      <point x="385" y="1088"/>
      <point x="407" y="1068" type="qcurve" smooth="yes"/>
      <point x="448" y="1030"/>
      <point x="541" y="1007" type="qcurve"/>
      <point x="593" y="993"/>
      <point x="667" y="977" type="qcurve" smooth="yes"/>
      <point x="756" y="958"/>
      <point x="797" y="942" type="qcurve"/>
      <point x="881" y="913"/>
      <point x="929" y="852" type="qcurve" smooth="yes"/>
      <point x="983" y="785"/>
      <point x="983" y="688" type="qcurve" smooth="yes"/>
      <point x="983" y="628"/>
      <point x="946" y="530"/>
      <point x="908" y="485" type="qcurve"/>
      <point x="946" y="445"/>
      <point x="982" y="354"/>
      <point x="983" y="290" type="qcurve"/>
      <point x="983" y="214"/>
      <point x="913" y="98"/>
      <point x="793" y="20"/>
      <point x="640" y="-18"/>
    </contour>
    <contour>
      <point x="680" y="583" type="line"/>
      <point x="713" y="594"/>
      <point x="756" y="642"/>
      <point x="756" y="678" type="qcurve" smooth="yes"/>
      <point x="756" y="726"/>
      <point x="688" y="782"/>
      <point x="576" y="818"/>
      <point x="507" y="834" type="qcurve" smooth="yes"/>
      <point x="456" y="846" type="line"/>
      <point x="420" y="827"/>
      <point x="385" y="765"/>
      <point x="385" y="736" type="qcurve" smooth="yes"/>
      <point x="385" y="660"/>
      <point x="517" y="621" type="qcurve" smooth="yes"/>
      <point x="589" y="599"/>
      <point x="665" y="586" type="qcurve"/>
    </contour>
  </outline>
</glyph>
<glyph name="copyright" format="2">
  <advance width="1735"/>
  <unicode hex="00A9"/>
  <outline>
    <contour>
      <point x="868" y="-49" type="qcurve" smooth="yes"/>
      <point x="713" y="-49"/>
      <point x="426" y="63"/>
      <point x="201" y="266"/>
      <point x="69" y="542"/>
      <point x="69" y="707" type="qcurve" smooth="yes"/>
      <point x="69" y="913"/>
      <point x="284" y="1255"/>
      <point x="646" y="1461"/>
      <point x="868" y="1461" type="qcurve" smooth="yes"/>
      <point x="1027" y="1461"/>
      <point x="1314" y="1348"/>
      <point x="1537" y="1144"/>
      <point x="1666" y="869"/>
      <point x="1666" y="707" type="qcurve" smooth="yes"/>
      <point x="1666" y="556"/>
      <point x="1545" y="283"/>
      <point x="1328" y="73"/>
      <point x="1038" y="-49"/>
    </contour>
    <contour>
      <point x="868" y="161" type="qcurve" smooth="yes"/>
      <point x="1023" y="161"/>
      <point x="1291" y="308"/>
      <point x="1455" y="556"/>
      <point x="1455" y="707" type="qcurve" smooth="yes"/>
      <point x="1455" y="822"/>
      <point x="1358" y="1021"/>
      <point x="1192" y="1169"/>
      <point x="981" y="1252"/>
      <point x="868" y="1252" type="qcurve" smooth="yes"/>
      <point x="757" y="1252"/>
      <point x="548" y="1171"/>
      <point x="381" y="1024"/>
      <point x="282" y="825"/>
      <point x="282" y="707" type="qcurve" smooth="yes"/>
      <point x="282" y="591"/>
      <point x="379" y="392"/>
      <point x="544" y="244"/>
      <point x="754" y="161"/>
    </contour>
    <contour>
      <point x="885" y="253" type="qcurve" smooth="yes"/>
      <point x="878" y="253" type="line" smooth="yes"/>
      <point x="785" y="253"/>
      <point x="638" y="326"/>
      <point x="536" y="452"/>
      <point x="485" y="612"/>
      <point x="485" y="696" type="qcurve" smooth="yes"/>
      <point x="485" y="715" type="line" smooth="yes"/>
      <point x="485" y="799"/>
      <point x="536" y="958"/>
      <point x="638" y="1082"/>
      <point x="789" y="1156"/>
      <point x="885" y="1156" type="qcurve" smooth="yes"/>
      <point x="953" y="1156"/>
      <point x="1062" y="1124"/>
      <point x="1152" y="1061"/>
      <point x="1224" y="961"/>
      <point x="1254" y="895" type="qcurve"/>
      <point x="1060" y="812" type="line"/>
      <point x="1044" y="848"/>
      <point x="1010" y="898"/>
      <point x="971" y="929"/>
      <point x="920" y="943"/>
      <point x="885" y="943" type="qcurve" smooth="yes"/>
      <point x="789" y="943"/>
      <point x="693" y="813"/>
      <point x="693" y="705" type="qcurve" smooth="yes"/>
      <point x="693" y="650"/>
      <point x="716" y="562"/>
      <point x="763" y="501"/>
      <point x="834" y="468"/>
      <point x="883" y="468" type="qcurve" smooth="yes"/>
      <point x="954" y="468"/>
      <point x="992" y="499" type="qcurve" smooth="yes"/>
      <point x="1022" y="524"/>
      <point x="1058" y="598" type="qcurve"/>
      <point x="1254" y="516" type="line"/>
      <point x="1189" y="377"/>
      <point x="1106" y="318" type="qcurve" smooth="yes"/>
      <point x="1017" y="253"/>
    </contour>
  </outline>
</glyph>
<glyph name="ordfeminine" format="2">
  <advance width="987"/>
  <unicode hex="00AA"/>
  <outline>
    <contour>
      <point x="409" y="709" type="qcurve" smooth="yes"/>
      <point x="343" y="709"/>
      <point x="227" y="763"/>
      <point x="156" y="862"/>
      <point x="156" y="930" type="qcurve" smooth="yes"/>
      <point x="156" y="1041"/>
      <point x="312" y="1153"/>
      <point x="440" y="1153" type="qcurve" smooth="yes"/>
      <point x="629" y="1153" type="line"/>
      <point x="624" y="1286"/>
      <point x="479" y="1286" type="qcurve" smooth="yes"/>
      <point x="378" y="1286"/>
      <point x="302" y="1179" type="qcurve"/>
      <point x="175" y="1265" type="line"/>
      <point x="239" y="1354"/>
      <point x="383" y="1434"/>
      <point x="483" y="1434" type="qcurve" smooth="yes"/>
      <point x="624" y="1434"/>
      <point x="784" y="1277"/>
      <point x="784" y="1148" type="qcurve" smooth="yes"/>
      <point x="784" y="723" type="line"/>
      <point x="640" y="723" type="line"/>
      <point x="636" y="797" type="line"/>
      <point x="549" y="709"/>
    </contour>
    <contour>
      <point x="436" y="857" type="qcurve" smooth="yes"/>
      <point x="504" y="857"/>
      <point x="615" y="943"/>
      <point x="629" y="1008" type="qcurve"/>
      <point x="450" y="1008" type="line" smooth="yes"/>
      <point x="392" y="1008"/>
      <point x="327" y="969"/>
      <point x="327" y="930" type="qcurve" smooth="yes"/>
      <point x="327" y="908"/>
      <point x="385" y="857"/>
    </contour>
  </outline>
</glyph>
<glyph name="logicalnot" format="2">
  <advance width="1305"/>
  <unicode hex="00AC"/>
  <outline>
    <contour>
      <point x="1099" y="291" type="line"/>
      <point x="837" y="291" type="line"/>
      <point x="837" y="554" type="line"/>
      <point x="129" y="554" type="line"/>
      <point x="129" y="797" type="line"/>
      <point x="1099" y="797" type="line"/>
    </contour>
  </outline>
</glyph>
<glyph name="sfthyphen" format="2">
  <advance width="1020"/>
  <unicode hex="00AD"/>
  <outline>
    <contour>
      <point x="884" y="486" type="line"/>
      <point x="135" y="486" type="line"/>
      <point x="135" y="692" type="line"/>
      <point x="884" y="692" type="line"/>
    </contour>
  </outline>
</glyph>
<glyph name="registered" format="2">
  <advance width="1735"/>
  <unicode hex="00AE"/>
  <outline>
    <contour>
      <point x="868" y="-47" type="qcurve" smooth="yes"/>
      <point x="713" y="-47"/>
      <point x="426" y="65"/>
      <point x="201" y="268"/>
      <point x="69" y="544"/>
      <point x="69" y="709" type="qcurve" smooth="yes"/>
      <point x="69" y="915"/>
      <point x="284" y="1257"/>
      <point x="646" y="1463"/>
      <point x="868" y="1463" type="qcurve" smooth="yes"/>
      <point x="1027" y="1463"/>
      <point x="1314" y="1350"/>
      <point x="1537" y="1146"/>
      <point x="1666" y="871"/>
      <point x="1666" y="709" type="qcurve" smooth="yes"/>
      <point x="1666" y="558"/>
      <point x="1545" y="285"/>
      <point x="1328" y="75"/>
      <point x="1038" y="-47"/>
    </contour>
    <contour>
      <point x="868" y="155" type="qcurve" smooth="yes"/>
      <point x="982" y="155"/>
      <point x="1089" y="197" type="qcurve" smooth="yes"/>
      <point x="1174" y="230"/>
      <point x="1245" y="284" type="qcurve"/>
      <point x="1046" y="284" type="line"/>
      <point x="875" y="594" type="line"/>
      <point x="798" y="594" type="line"/>
      <point x="798" y="284" type="line"/>
      <point x="594" y="284" type="line"/>
      <point x="594" y="1118" type="line"/>
      <point x="922" y="1118" type="line" smooth="yes"/>
      <point x="1021" y="1118"/>
      <point x="1150" y="1052"/>
      <point x="1213" y="935"/>
      <point x="1213" y="858" type="qcurve" smooth="yes"/>
      <point x="1213" y="694"/>
      <point x="1080" y="625" type="qcurve"/>
      <point x="1175" y="464"/>
      <point x="1268" y="302" type="qcurve"/>
      <point x="1274" y="307"/>
      <point x="1281" y="313" type="qcurve" smooth="yes"/>
      <point x="1365" y="388"/>
      <point x="1465" y="590"/>
      <point x="1465" y="709" type="qcurve" smooth="yes"/>
      <point x="1465" y="858"/>
      <point x="1303" y="1109"/>
      <point x="1031" y="1262"/>
      <point x="868" y="1262" type="qcurve" smooth="yes"/>
      <point x="753" y="1262"/>
      <point x="539" y="1179"/>
      <point x="370" y="1029"/>
      <point x="271" y="828"/>
      <point x="271" y="709" type="qcurve" smooth="yes"/>
      <point x="271" y="566"/>
      <point x="429" y="313"/>
      <point x="700" y="155"/>
    </contour>
    <contour>
      <point x="922" y="788" type="line" smooth="yes"/>
      <point x="982" y="788"/>
      <point x="1020" y="819"/>
      <point x="1020" y="858" type="qcurve" smooth="yes"/>
      <point x="1020" y="901"/>
      <point x="980" y="925"/>
      <point x="922" y="925" type="qcurve" smooth="yes"/>
      <point x="788" y="925" type="line"/>
      <point x="788" y="788" type="line"/>
    </contour>
  </outline>
</glyph>
<glyph name="degree" format="2">
  <advance width="854"/>
  <unicode hex="00B0"/>
  <outline>
    <contour>
      <point x="433" y="848" type="qcurve" smooth="yes"/>
      <point x="419" y="848" type="line" smooth="yes"/>
      <point x="364" y="848"/>
      <point x="315" y="870" type="qcurve" smooth="yes"/>
      <point x="261" y="894"/>
      <point x="178" y="976"/>
      <point x="155" y="1030" type="qcurve" smooth="yes"/>
      <point x="133" y="1079"/>
      <point x="133" y="1134" type="qcurve" smooth="yes"/>
      <point x="133" y="1148" type="line" smooth="yes"/>
      <point x="133" y="1204"/>
      <point x="179" y="1308"/>
      <point x="261" y="1387"/>
      <point x="368" y="1434"/>
      <point x="426" y="1434" type="qcurve" smooth="yes"/>
      <point x="433" y="1434" type="line" smooth="yes"/>
      <point x="488" y="1434"/>
      <point x="593" y="1390"/>
      <point x="674" y="1308"/>
      <point x="720" y="1203"/>
      <point x="720" y="1148" type="qcurve" smooth="yes"/>
      <point x="720" y="1134" type="line" smooth="yes"/>
      <point x="720" y="1079"/>
      <point x="674" y="975"/>
      <point x="593" y="894"/>
      <point x="489" y="848"/>
    </contour>
    <contour>
      <point x="426" y="1034" type="qcurve" smooth="yes"/>
      <point x="466" y="1034"/>
      <point x="536" y="1088"/>
      <point x="536" y="1141" type="qcurve" smooth="yes"/>
      <point x="536" y="1188"/>
      <point x="472" y="1248"/>
      <point x="426" y="1248" type="qcurve" smooth="yes"/>
      <point x="382" y="1248"/>
      <point x="319" y="1185"/>
      <point x="319" y="1141" type="qcurve" smooth="yes"/>
      <point x="319" y="1097"/>
      <point x="382" y="1034"/>
    </contour>
  </outline>
</glyph>
<glyph name="plusminus" format="2">
  <advance width="1334"/>
  <unicode hex="00B1"/>
  <outline>
    <contour>
      <point x="771" y="106" type="line"/>
      <point x="564" y="106" type="line"/>
      <point x="564" y="520" type="line"/>
      <point x="108" y="520" type="line"/>
      <point x="108" y="728" type="line"/>
      <point x="564" y="728" type="line"/>
      <point x="564" y="1143" type="line"/>
      <point x="771" y="1143" type="line"/>
      <point x="771" y="728" type="line"/>
      <point x="1227" y="728" type="line"/>
      <point x="1227" y="520" type="line"/>
      <point x="771" y="520" type="line"/>
    </contour>
    <contour>
      <point x="1224" y="-206" type="line"/>
      <point x="110" y="-206" type="line"/>
      <point x="110" y="0" type="line"/>
      <point x="1224" y="0" type="line"/>
    </contour>
  </outline>
</glyph>
<glyph name="twosuperior" format="2">
  <advance width="840"/>
  <unicode hex="00B2"/>
  <outline>
    <contour>
      <point x="21" y="625" type="line"/>
      <point x="127" y="684"/>
      <point x="194" y="731" type="qcurve" smooth="yes"/>
      <point x="308" y="811"/>
      <point x="396" y="886" type="qcurve"/>
      <point x="464" y="946"/>
      <point x="545" y="1066"/>
      <point x="545" y="1129" type="qcurve" smooth="yes"/>
      <point x="545" y="1180"/>
      <point x="486" y="1249"/>
      <point x="421" y="1249" type="qcurve" smooth="yes"/>
      <point x="342" y="1249"/>
      <point x="302" y="1194" type="qcurve"/>
      <point x="268" y="1150"/>
      <point x="265" y="1068" type="qcurve"/>
      <point x="213" y="1070"/>
      <point x="162" y="1073" type="qcurve" smooth="yes"/>
      <point x="110" y="1076"/>
      <point x="58" y="1078" type="qcurve"/>
      <point x="58" y="1085" type="line" smooth="yes"/>
      <point x="58" y="1149"/>
      <point x="107" y="1275"/>
      <point x="203" y="1378"/>
      <point x="338" y="1441"/>
      <point x="422" y="1441" type="qcurve" smooth="yes"/>
      <point x="430" y="1441" type="line" smooth="yes"/>
      <point x="493" y="1441"/>
      <point x="610" y="1403"/>
      <point x="702" y="1328"/>
      <point x="756" y="1227"/>
      <point x="756" y="1167" type="qcurve" smooth="yes"/>
      <point x="756" y="1082"/>
      <point x="642" y="894"/>
      <point x="529" y="795" type="qcurve"/>
      <point x="479" y="756"/>
      <point x="427" y="719" type="qcurve"/>
      <point x="364" y="680" type="line"/>
      <point x="802" y="680" type="line"/>
      <point x="802" y="486" type="line"/>
      <point x="21" y="486" type="line"/>
    </contour>
  </outline>
</glyph>
<glyph name="threesuperior" format="2">
  <advance width="873"/>
  <unicode hex="00B3"/>
  <outline>
    <contour>
      <point x="428" y="461" type="qcurve" smooth="yes"/>
      <point x="417" y="461" type="line" smooth="yes"/>
      <point x="343" y="461"/>
      <point x="276" y="480" type="qcurve" smooth="yes"/>
      <point x="202" y="501"/>
      <point x="90" y="585"/>
      <point x="24" y="708"/>
      <point x="24" y="786" type="qcurve" smooth="yes"/>
      <point x="24" y="793" type="line"/>
      <point x="229" y="802" type="line"/>
      <point x="229" y="769"/>
      <point x="259" y="716"/>
      <point x="312" y="679"/>
      <point x="386" y="659"/>
      <point x="429" y="659" type="qcurve" smooth="yes"/>
      <point x="468" y="659"/>
      <point x="538" y="674"/>
      <point x="591" y="705"/>
      <point x="621" y="751"/>
      <point x="621" y="782" type="qcurve" smooth="yes"/>
      <point x="621" y="833"/>
      <point x="539" y="896"/>
      <point x="458" y="896" type="qcurve" smooth="yes"/>
      <point x="324" y="896" type="line"/>
      <point x="324" y="1075" type="line"/>
      <point x="457" y="1075" type="line" smooth="yes"/>
      <point x="511" y="1075"/>
      <point x="563" y="1120"/>
      <point x="563" y="1159" type="qcurve" smooth="yes"/>
      <point x="563" y="1209"/>
      <point x="487" y="1253"/>
      <point x="427" y="1253" type="qcurve" smooth="yes"/>
      <point x="361" y="1253"/>
      <point x="322" y="1226" type="qcurve" smooth="yes"/>
      <point x="278" y="1195"/>
      <point x="278" y="1142" type="qcurve"/>
      <point x="227" y="1144"/>
      <point x="178" y="1147" type="qcurve" smooth="yes"/>
      <point x="128" y="1150"/>
      <point x="77" y="1152" type="qcurve"/>
      <point x="77" y="1160" type="line" smooth="yes"/>
      <point x="77" y="1224"/>
      <point x="130" y="1332"/>
      <point x="225" y="1410"/>
      <point x="352" y="1453"/>
      <point x="422" y="1453" type="qcurve" smooth="yes"/>
      <point x="431" y="1453" type="line" smooth="yes"/>
      <point x="493" y="1453"/>
      <point x="613" y="1418"/>
      <point x="710" y="1348"/>
      <point x="769" y="1248"/>
      <point x="769" y="1186" type="qcurve" smooth="yes"/>
      <point x="769" y="1081"/>
      <point x="685" y="1000" type="qcurve"/>
      <point x="824" y="919"/>
      <point x="826" y="761" type="qcurve"/>
      <point x="826" y="690"/>
      <point x="795" y="635" type="qcurve" smooth="yes"/>
      <point x="762" y="577"/>
      <point x="651" y="500"/>
      <point x="506" y="461"/>
    </contour>
  </outline>
</glyph>
<glyph name="acute" format="2">
  <advance width="539"/>
  <unicode hex="00B4"/>
  <outline>
    <contour>
      <point x="215" y="1124" type="line"/>
      <point x="23" y="1124" type="line"/>
      <point x="250" y="1413" type="line"/>
      <point x="531" y="1413" type="line"/>
    </contour>
  </outline>
</glyph>
<glyph name="mu" format="2">
  <advance width="1293"/>
  <unicode hex="00B5"/>
  <outline>
    <contour>
      <point x="434" y="-266" type="line"/>
      <point x="208" y="-266" type="line"/>
      <point x="208" y="999" type="line"/>
      <point x="457" y="999" type="line"/>
      <point x="457" y="423" type="line" smooth="yes"/>
      <point x="457" y="316"/>
      <point x="491" y="268" type="qcurve"/>
      <point x="527" y="210"/>
      <point x="616" y="210" type="qcurve" smooth="yes"/>
      <point x="629" y="210" type="line" smooth="yes"/>
      <point x="763" y="210"/>
      <point x="823" y="320" type="qcurve" smooth="yes"/>
      <point x="868" y="403"/>
      <point x="868" y="546" type="qcurve" smooth="yes"/>
      <point x="868" y="999" type="line"/>
      <point x="1117" y="999" type="line"/>
      <point x="1117" y="0" type="line"/>
      <point x="868" y="0" type="line"/>
      <point x="868" y="76" type="line"/>
      <point x="808" y="26"/>
      <point x="671" y="-23"/>
      <point x="599" y="-23" type="qcurve" smooth="yes"/>
      <point x="517" y="-23"/>
      <point x="451" y="2" type="qcurve"/>
    </contour>
  </outline>
</glyph>
<glyph name="cedilla" format="2">
  <advance width="556"/>
  <unicode hex="00B8"/>
  <anchor x="277" y="-500" name="b.uni0326_2"/>
  <outline>
    <contour>
      <point x="253" y="-528" type="qcurve" smooth="yes"/>
      <point x="189" y="-528"/>
      <point x="79" y="-455"/>
      <point x="52" y="-397" type="qcurve"/>
      <point x="199" y="-338" type="line"/>
      <point x="222" y="-377"/>
      <point x="259" y="-377" type="qcurve" smooth="yes"/>
      <point x="290" y="-377"/>
      <point x="334" y="-338"/>
      <point x="334" y="-305" type="qcurve" smooth="yes"/>
      <point x="334" y="-253"/>
      <point x="235" y="-200"/>
      <point x="171" y="-200" type="qcurve" smooth="yes"/>
      <point x="92" y="-200" type="line"/>
      <point x="223" y="-3" type="line"/>
      <point x="375" y="-3" type="line"/>
      <point x="296" y="-95" type="line"/>
      <point x="488" y="-127"/>
      <point x="488" y="-297" type="qcurve" smooth="yes"/>
      <point x="488" y="-399"/>
      <point x="349" y="-528"/>
    </contour>
  </outline>
</glyph>
<glyph name="onesuperior" format="2">
  <advance width="815"/>
  <unicode hex="00B9"/>
  <outline>
    <contour>
      <point x="571" y="486" type="line"/>
      <point x="361" y="486" type="line"/>
      <point x="361" y="1147" type="line"/>
      <point x="113" y="1147" type="line"/>
      <point x="113" y="1308" type="line"/>
      <point x="271" y="1308" type="line" smooth="yes"/>
      <point x="367" y="1308"/>
      <point x="367" y="1401" type="qcurve" smooth="yes"/>
      <point x="367" y="1428" type="line"/>
      <point x="571" y="1428" type="line"/>
    </contour>
  </outline>
</glyph>
<glyph name="ordmasculine" format="2">
  <advance width="1020"/>
  <unicode hex="00BA"/>
  <outline>
    <contour>
      <point x="518" y="711" type="qcurve" smooth="yes"/>
      <point x="502" y="711" type="line" smooth="yes"/>
      <point x="429" y="711"/>
      <point x="298" y="767"/>
      <point x="200" y="867"/>
      <point x="146" y="996"/>
      <point x="146" y="1065" type="qcurve" smooth="yes"/>
      <point x="146" y="1081" type="line" smooth="yes"/>
      <point x="146" y="1152"/>
      <point x="199" y="1279"/>
      <point x="298" y="1378"/>
      <point x="432" y="1434"/>
      <point x="510" y="1434" type="qcurve" smooth="yes"/>
      <point x="518" y="1434" type="line" smooth="yes"/>
      <point x="590" y="1434"/>
      <point x="721" y="1379"/>
      <point x="819" y="1279"/>
      <point x="872" y="1150"/>
      <point x="872" y="1080" type="qcurve" smooth="yes"/>
      <point x="872" y="1066" type="line" smooth="yes"/>
      <point x="872" y="996"/>
      <point x="846" y="934" type="qcurve" smooth="yes"/>
      <point x="818" y="867"/>
      <point x="720" y="766"/>
      <point x="590" y="711"/>
    </contour>
    <contour>
      <point x="510" y="867" type="qcurve" smooth="yes"/>
      <point x="575" y="867"/>
      <point x="656" y="920"/>
      <point x="693" y="1013"/>
      <point x="693" y="1073" type="qcurve" smooth="yes"/>
      <point x="693" y="1131"/>
      <point x="657" y="1225"/>
      <point x="576" y="1279"/>
      <point x="510" y="1279" type="qcurve" smooth="yes"/>
      <point x="412" y="1279"/>
      <point x="325" y="1166"/>
      <point x="325" y="1073" type="qcurve" smooth="yes"/>
      <point x="325" y="980"/>
      <point x="415" y="867"/>
    </contour>
  </outline>
</glyph>
<glyph name="Aring" format="2">
  <advance width="1355"/>
  <unicode hex="00C5"/>
  <outline>
    <contour>
      <point x="1358" y="0" type="line"/>
      <point x="1052" y="0" type="line"/>
      <point x="943" y="307" type="line"/>
      <point x="416" y="307" type="line"/>
      <point x="374" y="189" type="line" smooth="yes"/>
      <point x="340" y="93"/>
      <point x="305" y="0" type="qcurve"/>
      <point x="-4" y="0" type="line"/>
      <point x="536" y="1321" type="line"/>
      <point x="487" y="1357"/>
      <point x="439" y="1460"/>
      <point x="439" y="1514" type="qcurve" smooth="yes"/>
      <point x="439" y="1581"/>
      <point x="507" y="1688"/>
      <point x="616" y="1752"/>
      <point x="678" y="1752" type="qcurve" smooth="yes"/>
      <point x="778" y="1752"/>
      <point x="917" y="1611"/>
      <point x="917" y="1514" type="qcurve" smooth="yes"/>
      <point x="917" y="1460"/>
      <point x="871" y="1357"/>
      <point x="821" y="1320" type="qcurve"/>
    </contour>
    <contour>
      <point x="678" y="1413" type="qcurve" smooth="yes"/>
      <point x="727" y="1413"/>
      <point x="778" y="1473"/>
      <point x="778" y="1517" type="qcurve" smooth="yes"/>
      <point x="778" y="1557"/>
      <point x="726" y="1612"/>
      <point x="678" y="1612" type="qcurve" smooth="yes"/>
      <point x="638" y="1612"/>
      <point x="579" y="1561"/>
      <point x="579" y="1517" type="qcurve" smooth="yes"/>
      <point x="579" y="1470"/>
      <point x="636" y="1413"/>
    </contour>
    <contour>
      <point x="846" y="546" type="line"/>
      <point x="680" y="996" type="line"/>
      <point x="512" y="546" type="line"/>
    </contour>
  </outline>
</glyph>
<glyph name="AE" format="2">
  <advance width="1871"/>
  <unicode hex="00C6"/>
  <outline>
    <contour>
      <point x="1773" y="0" type="line"/>
      <point x="767" y="0" type="line"/>
      <point x="767" y="307" type="line"/>
      <point x="392" y="307" type="line"/>
      <point x="281" y="0" type="line"/>
      <point x="-4" y="0" type="line"/>
      <point x="565" y="1413" type="line"/>
      <point x="1773" y="1413" type="line"/>
      <point x="1773" y="1174" type="line"/>
      <point x="1026" y="1174" type="line"/>
      <point x="1026" y="825" type="line"/>
      <point x="1685" y="825" type="line"/>
      <point x="1685" y="588" type="line"/>
      <point x="1026" y="588" type="line"/>
      <point x="1026" y="245" type="line"/>
      <point x="1773" y="245" type="line"/>
    </contour>
    <contour>
      <point x="767" y="521" type="line"/>
      <point x="767" y="1174" type="line"/>
      <point x="741" y="1174" type="line"/>
      <point x="481" y="521" type="line"/>
    </contour>
  </outline>
</glyph>
<glyph name="multiply" format="2">
  <advance width="1085"/>
  <unicode hex="00D7"/>
  <outline>
    <contour>
      <point x="218" y="157" type="line"/>
      <point x="74" y="301" type="line"/>
      <point x="396" y="625" type="line"/>
      <point x="103" y="918" type="line"/>
      <point x="250" y="1065" type="line"/>
      <point x="542" y="772" type="line"/>
      <point x="866" y="1092" type="line"/>
      <point x="1010" y="948" type="line"/>
      <point x="689" y="625" type="line"/>
      <point x="983" y="332" type="line"/>
      <point x="836" y="185" type="line"/>
      <point x="542" y="478" type="line"/>
    </contour>
  </outline>
</glyph>
<glyph name="germandbls" format="2">
  <advance width="1188"/>
  <unicode hex="00DF"/>
  <outline>
    <contour>
      <point x="732" y="-18" type="qcurve" smooth="yes"/>
      <point x="641" y="-18"/>
      <point x="548" y="9" type="qcurve"/>
      <point x="639" y="237" type="line"/>
      <point x="678" y="225"/>
      <point x="724" y="225" type="qcurve" smooth="yes"/>
      <point x="784" y="225"/>
      <point x="845" y="279"/>
      <point x="845" y="327" type="qcurve" smooth="yes"/>
      <point x="845" y="365"/>
      <point x="794" y="434"/>
      <point x="725" y="494"/>
      <point x="690" y="521" type="qcurve" smooth="yes"/>
      <point x="655" y="548"/>
      <point x="638" y="571" type="qcurve"/>
      <point x="604" y="606"/>
      <point x="557" y="702"/>
      <point x="557" y="759" type="qcurve" smooth="yes"/>
      <point x="557" y="836"/>
      <point x="593" y="877" type="qcurve" smooth="yes"/>
      <point x="609" y="895"/>
      <point x="641" y="916" type="qcurve"/>
      <point x="691" y="946"/>
      <point x="721" y="975" type="qcurve" smooth="yes"/>
      <point x="775" y="1028"/>
      <point x="775" y="1075" type="qcurve" smooth="yes"/>
      <point x="775" y="1083"/>
      <point x="772" y="1097"/>
      <point x="768" y="1107"/>
      <point x="765" y="1112" type="qcurve"/>
      <point x="748" y="1153"/>
      <point x="671" y="1202"/>
      <point x="600" y="1202" type="qcurve" smooth="yes"/>
      <point x="546" y="1202"/>
      <point x="511" y="1191" type="qcurve" smooth="yes"/>
      <point x="444" y="1168"/>
      <point x="425" y="1106" type="qcurve" smooth="yes"/>
      <point x="410" y="1059"/>
      <point x="410" y="980" type="qcurve"/>
      <point x="411" y="899"/>
      <point x="411" y="0" type="qcurve"/>
      <point x="140" y="0" type="line"/>
      <point x="140" y="943"/>
      <point x="141" y="1063"/>
      <point x="150" y="1114" type="qcurve"/>
      <point x="165" y="1214"/>
      <point x="243" y="1296" type="qcurve" smooth="yes"/>
      <point x="302" y="1359"/>
      <point x="397" y="1399" type="qcurve" smooth="yes"/>
      <point x="483" y="1434"/>
      <point x="572" y="1434" type="qcurve" smooth="yes"/>
      <point x="593" y="1434" type="line" smooth="yes"/>
      <point x="674" y="1434"/>
      <point x="834" y="1381"/>
      <point x="961" y="1282"/>
      <point x="1039" y="1140"/>
      <point x="1039" y="1056" type="qcurve" smooth="yes"/>
      <point x="1039" y="992"/>
      <point x="1006" y="911"/>
      <point x="952" y="854"/>
      <point x="916" y="833" type="qcurve" smooth="yes"/>
      <point x="879" y="812"/>
      <point x="841" y="790" type="qcurve" smooth="yes"/>
      <point x="822" y="778"/>
      <point x="805" y="761"/>
      <point x="805" y="747" type="qcurve" smooth="yes"/>
      <point x="805" y="719"/>
      <point x="876" y="674" type="qcurve"/>
      <point x="933" y="634" type="line" smooth="yes"/>
      <point x="967" y="610"/>
      <point x="1001" y="582" type="qcurve" smooth="yes"/>
      <point x="1118" y="484"/>
      <point x="1120" y="319" type="qcurve"/>
      <point x="1120" y="247"/>
      <point x="1091" y="186" type="qcurve" smooth="yes"/>
      <point x="1060" y="122"/>
      <point x="953" y="32"/>
      <point x="812" y="-18"/>
    </contour>
  </outline>
</glyph>
<glyph name="eth" format="2">
  <advance width="1185"/>
  <unicode hex="00F0"/>
  <outline>
    <contour>
      <point x="592" y="-16" type="qcurve" smooth="yes"/>
      <point x="583" y="-16" type="line" smooth="yes"/>
      <point x="458" y="-16"/>
      <point x="257" y="66"/>
      <point x="117" y="211"/>
      <point x="45" y="407"/>
      <point x="45" y="516" type="qcurve" smooth="yes"/>
      <point x="45" y="525" type="line" smooth="yes"/>
      <point x="45" y="625"/>
      <point x="113" y="804"/>
      <point x="241" y="941"/>
      <point x="426" y="1020"/>
      <point x="540" y="1020" type="qcurve" smooth="yes"/>
      <point x="611" y="1020"/>
      <point x="675" y="1004" type="qcurve"/>
      <point x="737" y="985"/>
      <point x="791" y="946" type="qcurve"/>
      <point x="751" y="1041"/>
      <point x="620" y="1170"/>
      <point x="515" y="1219" type="qcurve"/>
      <point x="477" y="1163"/>
      <point x="438" y="1108" type="qcurve"/>
      <point x="333" y="1176" type="line"/>
      <point x="349" y="1199"/>
      <point x="365" y="1222" type="qcurve" smooth="yes"/>
      <point x="380" y="1245"/>
      <point x="396" y="1267" type="qcurve"/>
      <point x="271" y="1301" type="line"/>
      <point x="392" y="1516" type="line"/>
      <point x="428" y="1503"/>
      <point x="497" y="1476"/>
      <point x="530" y="1459" type="qcurve"/>
      <point x="600" y="1558" type="line"/>
      <point x="708" y="1496" type="line"/>
      <point x="692" y="1473"/>
      <point x="676" y="1449" type="qcurve" smooth="yes"/>
      <point x="659" y="1424"/>
      <point x="642" y="1401" type="qcurve"/>
      <point x="760" y="1334"/>
      <point x="935" y="1168"/>
      <point x="1050" y="966"/>
      <point x="1107" y="725"/>
      <point x="1107" y="581" type="qcurve" smooth="yes"/>
      <point x="1107" y="436"/>
      <point x="1073" y="324" type="qcurve"/>
      <point x="967" y="-16"/>
    </contour>
    <contour>
      <point x="575" y="235" type="qcurve" smooth="yes"/>
      <point x="660" y="235"/>
      <point x="776" y="313"/>
      <point x="836" y="442"/>
      <point x="836" y="518" type="qcurve" smooth="yes"/>
      <point x="836" y="596"/>
      <point x="775" y="723"/>
      <point x="659" y="797"/>
      <point x="575" y="797" type="qcurve" smooth="yes"/>
      <point x="492" y="797"/>
      <point x="377" y="719"/>
      <point x="316" y="591"/>
      <point x="316" y="516" type="qcurve" smooth="yes"/>
      <point x="316" y="444"/>
      <point x="374" y="315"/>
      <point x="489" y="235"/>
    </contour>
  </outline>
</glyph>
<glyph name="divide" format="2">
  <advance width="1362"/>
  <unicode hex="00F7"/>
  <outline>
    <contour>
      <point x="826" y="812" type="line"/>
      <point x="538" y="812" type="line"/>
      <point x="538" y="1098" type="line"/>
      <point x="826" y="1098" type="line"/>
    </contour>
    <contour>
      <point x="1294" y="526" type="line"/>
      <point x="71" y="526" type="line"/>
      <point x="71" y="732" type="line"/>
      <point x="1294" y="732" type="line"/>
    </contour>
    <contour>
      <point x="826" y="143" type="line"/>
      <point x="538" y="143" type="line"/>
      <point x="538" y="431" type="line"/>
      <point x="826" y="431" type="line"/>
    </contour>
  </outline>
</glyph>
<glyph name="oslash" format="2">
  <advance width="1131"/>
  <unicode hex="00F8"/>
  <outline>
    <contour>
      <point x="579" y="-20" type="qcurve" smooth="yes"/>
      <point x="564" y="-20" type="line" smooth="yes"/>
      <point x="443" y="-20"/>
      <point x="340" y="25" type="qcurve"/>
      <point x="324" y="-2" type="line"/>
      <point x="183" y="-2" type="line"/>
      <point x="236" y="85" type="line"/>
      <point x="139" y="160"/>
      <point x="40" y="372"/>
      <point x="40" y="496" type="qcurve" smooth="yes"/>
      <point x="40" y="504" type="line" smooth="yes"/>
      <point x="40" y="603"/>
      <point x="115" y="788"/>
      <point x="254" y="931"/>
      <point x="351" y="973" type="qcurve" smooth="yes"/>
      <point x="442" y="1012"/>
      <point x="549" y="1012" type="qcurve" smooth="yes"/>
      <point x="564" y="1012" type="line" smooth="yes"/>
      <point x="683" y="1012"/>
      <point x="783" y="970" type="qcurve"/>
      <point x="793" y="984"/>
      <point x="801" y="999" type="qcurve"/>
      <point x="942" y="999" type="line"/>
      <point x="887" y="910" type="line"/>
      <point x="935" y="875"/>
      <point x="973" y="830" type="qcurve"/>
      <point x="1048" y="737"/>
      <point x="1075" y="619" type="qcurve" smooth="yes"/>
      <point x="1088" y="561"/>
      <point x="1088" y="488" type="qcurve" smooth="yes"/>
      <point x="1088" y="388"/>
      <point x="1051" y="297" type="qcurve" smooth="yes"/>
      <point x="1013" y="202"/>
      <point x="874" y="59"/>
      <point x="777" y="18" type="qcurve" smooth="yes"/>
      <point x="686" y="-20"/>
    </contour>
    <contour>
      <point x="371" y="306" type="qcurve"/>
      <point x="656" y="763" type="line"/>
      <point x="616" y="776"/>
      <point x="564" y="776" type="qcurve" smooth="yes"/>
      <point x="483" y="776"/>
      <point x="375" y="702"/>
      <point x="321" y="575"/>
      <point x="321" y="496" type="qcurve" smooth="yes"/>
      <point x="321" y="381"/>
    </contour>
    <contour>
      <point x="564" y="214" type="qcurve" smooth="yes"/>
      <point x="673" y="214"/>
      <point x="807" y="352"/>
      <point x="807" y="496" type="qcurve" smooth="yes"/>
      <point x="807" y="608"/>
      <point x="753" y="690" type="qcurve"/>
      <point x="466" y="231" type="line"/>
      <point x="512" y="214"/>
    </contour>
  </outline>
</glyph>
<glyph name="ydieresis" format="2">
  <advance width="1050"/>
  <unicode hex="00FF"/>
  <outline>
    <contour>
      <point x="453" y="1178" type="line"/>
      <point x="237" y="1178" type="line"/>
      <point x="237" y="1413" type="line"/>
      <point x="453" y="1413" type="line"/>
    </contour>
    <contour>
      <point x="813" y="1178" type="line"/>
      <point x="598" y="1178" type="line"/>
      <point x="598" y="1413" type="line"/>
      <point x="813" y="1413" type="line"/>
    </contour>
    <contour>
      <point x="486" y="-430" type="line"/>
      <point x="186" y="-430" type="line"/>
      <point x="374" y="34" type="line"/>
      <point x="-19" y="999" type="line"/>
      <point x="281" y="999" type="line"/>
      <point x="521" y="343" type="line"/>
      <point x="768" y="999" type="line"/>
      <point x="1069" y="999" type="line"/>
    </contour>
  </outline>
</glyph>
<glyph name="aogonek" format="2">
  <advance width="1072"/>
  <unicode hex="0105"/>
  <outline>
    <contour>
      <point x="837" y="-451" type="qcurve" smooth="yes"/>
      <point x="791" y="-451"/>
      <point x="706" y="-422"/>
      <point x="643" y="-369"/>
      <point x="606" y="-292"/>
      <point x="606" y="-246" type="qcurve" smooth="yes"/>
      <point x="606" y="-208"/>
      <point x="620" y="-175" type="qcurve"/>
      <point x="644" y="-114"/>
      <point x="694" y="-59" type="qcurve" smooth="yes"/>
      <point x="718" y="-33"/>
      <point x="759" y="3" type="qcurve"/>
      <point x="755" y="0" type="line"/>
      <point x="742" y="0" type="line"/>
      <point x="722" y="127" type="line"/>
      <point x="661" y="46"/>
      <point x="515" y="-20"/>
      <point x="423" y="-20" type="qcurve" smooth="yes"/>
      <point x="413" y="-20" type="line" smooth="yes"/>
      <point x="339" y="-20"/>
      <point x="272" y="2" type="qcurve" smooth="yes"/>
      <point x="201" y="25"/>
      <point x="96" y="112"/>
      <point x="33" y="238"/>
      <point x="33" y="316" type="qcurve" smooth="yes"/>
      <point x="33" y="466"/>
      <point x="149" y="540" type="qcurve" smooth="yes"/>
      <point x="249" y="604"/>
      <point x="433" y="604" type="qcurve" smooth="yes"/>
      <point x="703" y="604" type="line"/>
      <point x="703" y="681"/>
      <point x="608" y="777"/>
      <point x="521" y="777" type="qcurve" smooth="yes"/>
      <point x="376" y="777"/>
      <point x="299" y="643" type="qcurve"/>
      <point x="194" y="719"/>
      <point x="88" y="794" type="qcurve"/>
      <point x="166" y="900"/>
      <point x="374" y="1016"/>
      <point x="519" y="1016" type="qcurve" smooth="yes"/>
      <point x="621" y="1016"/>
      <point x="787" y="957"/>
      <point x="904" y="849"/>
      <point x="966" y="697"/>
      <point x="966" y="604" type="qcurve" smooth="yes"/>
      <point x="966" y="0" type="line"/>
      <point x="934" y="-14" type="line"/>
      <point x="915" y="-23"/>
      <point x="869" y="-50"/>
      <point x="823" y="-85"/>
      <point x="803" y="-107" type="qcurve" smooth="yes"/>
      <point x="762" y="-152"/>
      <point x="762" y="-208" type="qcurve" smooth="yes"/>
      <point x="762" y="-257"/>
      <point x="798" y="-290"/>
      <point x="832" y="-290" type="qcurve" smooth="yes"/>
      <point x="864" y="-290"/>
      <point x="908" y="-262"/>
      <point x="929" y="-235" type="qcurve"/>
      <point x="1060" y="-325" type="line"/>
      <point x="980" y="-451"/>
    </contour>
    <contour>
      <point x="473" y="211" type="line" smooth="yes"/>
      <point x="512" y="211"/>
      <point x="592" y="241"/>
      <point x="660" y="296"/>
      <point x="703" y="369"/>
      <point x="703" y="408" type="qcurve"/>
      <point x="569" y="408" type="line" smooth="yes"/>
      <point x="523" y="408"/>
      <point x="477" y="406" type="qcurve" smooth="yes"/>
      <point x="380" y="403"/>
      <point x="336" y="364" type="qcurve"/>
      <point x="313" y="345"/>
      <point x="313" y="307" type="qcurve" smooth="yes"/>
      <point x="313" y="265"/>
      <point x="397" y="211"/>
      <point x="464" y="211" type="qcurve" smooth="yes"/>
    </contour>
  </outline>
</glyph>
<glyph name="dcaron" format="2">
  <advance width="1307"/>
  <unicode hex="010F"/>
  <outline>
    <contour>
      <point x="495" y="-20" type="qcurve" smooth="yes"/>
      <point x="488" y="-20" type="line" smooth="yes"/>
      <point x="387" y="-20"/>
      <point x="224" y="62"/>
      <point x="110" y="206"/>
      <point x="81" y="301" type="qcurve" smooth="yes"/>
      <point x="53" y="390"/>
      <point x="53" y="490" type="qcurve" smooth="yes"/>
      <point x="53" y="510" type="line" smooth="yes"/>
      <point x="53" y="607"/>
      <point x="81" y="697" type="qcurve" smooth="yes"/>
      <point x="111" y="792"/>
      <point x="224" y="936"/>
      <point x="306" y="979" type="qcurve" smooth="yes"/>
      <point x="384" y="1020"/>
      <point x="483" y="1020" type="qcurve"/>
      <point x="571" y="1019"/>
      <point x="718" y="966"/>
      <point x="766" y="910" type="qcurve"/>
      <point x="766" y="1413" type="line"/>
      <point x="1044" y="1413" type="line"/>
      <point x="1044" y="0" type="line"/>
      <point x="766" y="0" type="line"/>
      <point x="766" y="89" type="line"/>
      <point x="722" y="34"/>
      <point x="647" y="5" type="qcurve" smooth="yes"/>
      <point x="579" y="-20"/>
    </contour>
    <contour>
      <point x="1310" y="939" type="line"/>
      <point x="1155" y="939" type="line"/>
      <point x="1273" y="1413" type="line"/>
      <point x="1543" y="1413" type="line"/>
    </contour>
    <contour>
      <point x="561" y="233" type="qcurve" smooth="yes"/>
      <point x="664" y="233"/>
      <point x="789" y="363"/>
      <point x="789" y="500" type="qcurve" smooth="yes"/>
      <point x="789" y="572"/>
      <point x="745" y="697"/>
      <point x="645" y="773"/>
      <point x="561" y="773" type="qcurve" smooth="yes"/>
      <point x="496" y="773"/>
      <point x="391" y="716"/>
      <point x="330" y="595"/>
      <point x="330" y="500" type="qcurve" smooth="yes"/>
      <point x="330" y="421"/>
      <point x="377" y="301"/>
      <point x="479" y="233"/>
    </contour>
  </outline>
</glyph>
<glyph name="Eogonek" format="2">
  <advance width="1247"/>
  <unicode hex="0118"/>
  <outline>
    <contour>
      <point x="1120" y="0" type="line"/>
      <point x="1121" y="0" type="line"/>
      <point x="1048" y="-28"/>
      <point x="1000" y="-68" type="qcurve"/>
      <point x="917" y="-134"/>
      <point x="917" y="-208" type="qcurve" smooth="yes"/>
      <point x="917" y="-257"/>
      <point x="953" y="-290"/>
      <point x="987" y="-290" type="qcurve" smooth="yes"/>
      <point x="1016" y="-290"/>
      <point x="1066" y="-261"/>
      <point x="1084" y="-235" type="qcurve"/>
      <point x="1215" y="-325" type="line"/>
      <point x="1129" y="-451"/>
      <point x="992" y="-451" type="qcurve" smooth="yes"/>
      <point x="943" y="-451"/>
      <point x="859" y="-422"/>
      <point x="797" y="-368"/>
      <point x="761" y="-292"/>
      <point x="761" y="-246" type="qcurve" smooth="yes"/>
      <point x="761" y="-185"/>
      <point x="809" y="-116" type="qcurve"/>
      <point x="845" y="-62"/>
      <point x="892" y="-18" type="qcurve" smooth="yes"/>
      <point x="904" y="-7"/>
      <point x="912" y="0" type="qcurve"/>
      <point x="173" y="0" type="line"/>
      <point x="173" y="1413" type="line"/>
      <point x="1120" y="1413" type="line"/>
      <point x="1120" y="1150" type="line"/>
      <point x="456" y="1150" type="line"/>
      <point x="456" y="838" type="line"/>
      <point x="1090" y="838" type="line"/>
      <point x="1090" y="574" type="line"/>
      <point x="456" y="574" type="line"/>
      <point x="456" y="270" type="line"/>
      <point x="1120" y="270" type="line"/>
    </contour>
  </outline>
</glyph>
<glyph name="eogonek" format="2">
  <advance width="1076"/>
  <unicode hex="0119"/>
  <outline>
    <contour>
      <point x="706" y="-404" type="qcurve" smooth="yes"/>
      <point x="658" y="-404"/>
      <point x="574" y="-375"/>
      <point x="511" y="-322"/>
      <point x="474" y="-245"/>
      <point x="474" y="-199" type="qcurve" smooth="yes"/>
      <point x="474" y="-103"/>
      <point x="554" y="-12" type="qcurve"/>
      <point x="436" y="-12"/>
      <point x="244" y="68"/>
      <point x="112" y="206"/>
      <point x="44" y="387"/>
      <point x="44" y="485" type="qcurve" smooth="yes"/>
      <point x="44" y="503" type="line" smooth="yes"/>
      <point x="44" y="600"/>
      <point x="75" y="690" type="qcurve" smooth="yes"/>
      <point x="108" y="784"/>
      <point x="235" y="927"/>
      <point x="421" y="1012"/>
      <point x="541" y="1012" type="qcurve" smooth="yes"/>
      <point x="770" y="1012"/>
      <point x="900" y="879" type="qcurve"/>
      <point x="1015" y="756"/>
      <point x="1025" y="545" type="qcurve"/>
      <point x="1025" y="535"/>
      <point x="1026" y="524" type="qcurve" smooth="yes"/>
      <point x="1027" y="512"/>
      <point x="1027" y="500" type="qcurve" smooth="yes"/>
      <point x="1027" y="470"/>
      <point x="1019" y="417"/>
      <point x="1016" y="411" type="qcurve"/>
      <point x="333" y="411" type="line"/>
      <point x="367" y="245"/>
      <point x="557" y="245" type="qcurve" smooth="yes"/>
      <point x="645" y="245"/>
      <point x="692" y="262" type="qcurve" smooth="yes"/>
      <point x="749" y="284"/>
      <point x="797" y="333" type="qcurve"/>
      <point x="892" y="250"/>
      <point x="986" y="166" type="qcurve"/>
      <point x="896" y="69"/>
      <point x="784" y="25" type="qcurve"/>
      <point x="718" y="-11"/>
      <point x="681" y="-51" type="qcurve"/>
      <point x="631" y="-102"/>
      <point x="631" y="-161" type="qcurve" smooth="yes"/>
      <point x="631" y="-210"/>
      <point x="667" y="-242"/>
      <point x="701" y="-242" type="qcurve" smooth="yes"/>
      <point x="758" y="-242"/>
      <point x="798" y="-187" type="qcurve"/>
      <point x="864" y="-232"/>
      <point x="929" y="-278" type="qcurve"/>
      <point x="844" y="-404"/>
    </contour>
    <contour>
      <point x="756" y="604" type="line"/>
      <point x="739" y="699"/>
      <point x="635" y="784"/>
      <point x="541" y="784" type="qcurve" smooth="yes"/>
      <point x="378" y="784"/>
      <point x="333" y="604" type="qcurve"/>
    </contour>
  </outline>
</glyph>
<glyph name="Itilde" format="2">
  <advance width="629"/>
  <unicode hex="0128"/>
  <outline>
    <contour>
      <point x="443" y="1504" type="qcurve" smooth="yes"/>
      <point x="379" y="1504"/>
      <point x="335" y="1531" type="qcurve"/>
      <point x="300" y="1551"/>
      <point x="258" y="1595" type="qcurve"/>
      <point x="234" y="1618"/>
      <point x="202" y="1644"/>
      <point x="182" y="1644" type="qcurve" smooth="yes"/>
      <point x="154" y="1644"/>
      <point x="118" y="1576"/>
      <point x="118" y="1507" type="qcurve"/>
      <point x="-34" y="1507" type="line"/>
      <point x="-34" y="1710"/>
      <point x="87" y="1783" type="qcurve"/>
      <point x="131" y="1804"/>
      <point x="183" y="1805" type="qcurve"/>
      <point x="197" y="1805" type="line" smooth="yes"/>
      <point x="245" y="1805"/>
      <point x="281" y="1786" type="qcurve"/>
      <point x="321" y="1763"/>
      <point x="366" y="1718" type="qcurve"/>
      <point x="398" y="1689"/>
      <point x="429" y="1668"/>
      <point x="446" y="1668" type="qcurve" smooth="yes"/>
      <point x="449" y="1668"/>
      <point x="452" y="1668" type="qcurve" smooth="yes"/>
      <point x="456" y="1668"/>
      <point x="464" y="1672" type="qcurve"/>
      <point x="481" y="1683"/>
      <point x="504" y="1749"/>
      <point x="504" y="1798" type="qcurve"/>
      <point x="662" y="1798" type="line"/>
      <point x="662" y="1731"/>
      <point x="633" y="1621"/>
      <point x="577" y="1545"/>
      <point x="496" y="1504"/>
    </contour>
    <contour>
      <point x="456" y="0" type="line"/>
      <point x="173" y="0" type="line"/>
      <point x="173" y="1413" type="line"/>
      <point x="456" y="1413" type="line"/>
    </contour>
  </outline>
</glyph>
<glyph name="Idotaccent" format="2">
  <advance width="629"/>
  <unicode hex="0130"/>
  <outline>
    <contour>
      <point x="455" y="1589" type="line"/>
      <point x="173" y="1589" type="line"/>
      <point x="173" y="1824" type="line"/>
      <point x="455" y="1824" type="line"/>
    </contour>
    <contour>
      <point x="456" y="0" type="line"/>
      <point x="173" y="0" type="line"/>
      <point x="173" y="1413" type="line"/>
      <point x="456" y="1413" type="line"/>
    </contour>
  </outline>
</glyph>
<glyph name="dotlessi" format="2">
  <advance width="520"/>
  <unicode hex="0131"/>
  <outline>
    <contour>
      <point x="383" y="0" type="line"/>
      <point x="138" y="0" type="line"/>
      <point x="138" y="999" type="line"/>
      <point x="383" y="999" type="line"/>
    </contour>
  </outline>
</glyph>
<glyph name="IJ" format="2">
  <advance width="1774"/>
  <unicode hex="0132"/>
  <outline>
    <contour>
      <point x="456" y="0" type="line"/>
      <point x="173" y="0" type="line"/>
      <point x="173" y="1413" type="line"/>
      <point x="456" y="1413" type="line"/>
    </contour>
    <contour>
      <point x="1140" y="-20" type="qcurve" smooth="yes"/>
      <point x="1131" y="-20" type="line" smooth="yes"/>
      <point x="1031" y="-20"/>
      <point x="859" y="51"/>
      <point x="730" y="180"/>
      <point x="653" y="354"/>
      <point x="647" y="454" type="qcurve"/>
      <point x="927" y="485" type="line"/>
      <point x="930" y="433"/>
      <point x="959" y="345"/>
      <point x="1011" y="281"/>
      <point x="1089" y="245"/>
      <point x="1140" y="245" type="qcurve"/>
      <point x="1215" y="246"/>
      <point x="1299" y="289"/>
      <point x="1339" y="379"/>
      <point x="1347" y="519"/>
      <point x="1347" y="618" type="qcurve" smooth="yes"/>
      <point x="1347" y="1150" type="line"/>
      <point x="815" y="1150" type="line"/>
      <point x="815" y="1413" type="line"/>
      <point x="1631" y="1413" type="line"/>
      <point x="1631" y="512" type="line" smooth="yes"/>
      <point x="1631" y="395"/>
      <point x="1574" y="201"/>
      <point x="1454" y="59"/>
      <point x="1268" y="-20"/>
    </contour>
  </outline>
</glyph>
<glyph name="Lcaron" format="2">
  <advance width="1115"/>
  <unicode hex="013D"/>
  <outline>
    <contour>
      <point x="1060" y="0" type="line"/>
      <point x="173" y="0" type="line"/>
      <point x="173" y="1413" type="line"/>
      <point x="456" y="1413" type="line"/>
      <point x="456" y="270" type="line"/>
      <point x="1060" y="270" type="line"/>
    </contour>
    <contour>
      <point x="846" y="939" type="line"/>
      <point x="691" y="939" type="line"/>
      <point x="809" y="1413" type="line"/>
      <point x="1079" y="1413" type="line"/>
    </contour>
  </outline>
</glyph>
<glyph name="ldot" format="2">
  <advance width="765"/>
  <unicode hex="0140"/>
  <outline>
    <contour>
      <point x="362" y="-20" type="qcurve" smooth="yes"/>
      <point x="295" y="-20"/>
      <point x="191" y="17"/>
      <point x="131" y="116"/>
      <point x="131" y="207" type="qcurve" smooth="yes"/>
      <point x="131" y="1413" type="line"/>
      <point x="404" y="1413" type="line"/>
      <point x="404" y="302" type="line" smooth="yes"/>
      <point x="404" y="227"/>
      <point x="488" y="226" type="qcurve"/>
      <point x="509" y="226"/>
      <point x="551" y="232" type="qcurve"/>
      <point x="551" y="0" type="line"/>
      <point x="508" y="-9"/>
      <point x="396" y="-20"/>
    </contour>
    <contour>
      <point x="607" y="541" type="qcurve" smooth="yes"/>
      <point x="541" y="541"/>
      <point x="453" y="636"/>
      <point x="453" y="699" type="qcurve" smooth="yes"/>
      <point x="453" y="761"/>
      <point x="541" y="853"/>
      <point x="607" y="853" type="qcurve" smooth="yes"/>
      <point x="670" y="853"/>
      <point x="765" y="765"/>
      <point x="765" y="699" type="qcurve" smooth="yes"/>
      <point x="765" y="638"/>
      <point x="674" y="541"/>
    </contour>
  </outline>
</glyph>
<glyph name="uogonek" format="2">
  <advance width="1183"/>
  <unicode hex="0173"/>
  <outline>
    <contour>
      <point x="916" y="-451" type="qcurve" smooth="yes"/>
      <point x="870" y="-451"/>
      <point x="785" y="-423"/>
      <point x="722" y="-370"/>
      <point x="685" y="-294"/>
      <point x="685" y="-246" type="qcurve" smooth="yes"/>
      <point x="685" y="-208"/>
      <point x="699" y="-175" type="qcurve"/>
      <point x="723" y="-114"/>
      <point x="773" y="-59" type="qcurve" smooth="yes"/>
      <point x="797" y="-33"/>
      <point x="838" y="3" type="qcurve"/>
      <point x="834" y="0" type="line"/>
      <point x="766" y="0" type="line"/>
      <point x="766" y="101" type="line"/>
      <point x="706" y="31"/>
      <point x="564" y="-22"/>
      <point x="477" y="-23" type="qcurve"/>
      <point x="385" y="-23"/>
      <point x="246" y="51"/>
      <point x="151" y="173"/>
      <point x="128" y="252" type="qcurve" smooth="yes"/>
      <point x="106" y="326"/>
      <point x="106" y="404" type="qcurve" smooth="yes"/>
      <point x="106" y="999" type="line"/>
      <point x="384" y="999" type="line"/>
      <point x="384" y="431" type="line" smooth="yes"/>
      <point x="384" y="331"/>
      <point x="420" y="288" type="qcurve" smooth="yes"/>
      <point x="458" y="241"/>
      <point x="556" y="241" type="qcurve" smooth="yes"/>
      <point x="606" y="241"/>
      <point x="683" y="267"/>
      <point x="737" y="333"/>
      <point x="766" y="445"/>
      <point x="766" y="530" type="qcurve" smooth="yes"/>
      <point x="766" y="999" type="line"/>
      <point x="1045" y="999" type="line"/>
      <point x="1045" y="0" type="line"/>
      <point x="1013" y="-14" type="line"/>
      <point x="994" y="-23"/>
      <point x="948" y="-50"/>
      <point x="902" y="-85"/>
      <point x="882" y="-107" type="qcurve" smooth="yes"/>
      <point x="841" y="-152"/>
      <point x="841" y="-208" type="qcurve" smooth="yes"/>
      <point x="841" y="-259"/>
      <point x="878" y="-290"/>
      <point x="911" y="-290" type="qcurve" smooth="yes"/>
      <point x="943" y="-290"/>
      <point x="987" y="-262"/>
      <point x="1008" y="-235" type="qcurve"/>
      <point x="1139" y="-325" type="line"/>
      <point x="1056" y="-451"/>
    </contour>
  </outline>
</glyph>
<glyph name="florin" format="2">
  <advance width="1022"/>
  <unicode hex="0192"/>
  <outline>
    <contour>
      <point x="47" y="-457" type="qcurve"/>
      <point x="47" y="-230" type="line"/>
      <point x="115" y="-228"/>
      <point x="217" y="-219"/>
      <point x="290" y="-197"/>
      <point x="338" y="-158"/>
      <point x="368" y="-98"/>
      <point x="382" y="-14"/>
      <point x="385" y="42" type="qcurve"/>
      <point x="385" y="775" type="line"/>
      <point x="207" y="775" type="line"/>
      <point x="207" y="999" type="line"/>
      <point x="385" y="999" type="line"/>
      <point x="385" y="1122" type="line" smooth="yes"/>
      <point x="385" y="1186"/>
      <point x="408" y="1244" type="qcurve" smooth="yes"/>
      <point x="434" y="1306"/>
      <point x="520" y="1399"/>
      <point x="577" y="1424" type="qcurve" smooth="yes"/>
      <point x="628" y="1447"/>
      <point x="684" y="1447" type="qcurve"/>
      <point x="739" y="1446"/>
      <point x="800" y="1433"/>
      <point x="863" y="1404"/>
      <point x="925" y="1360"/>
      <point x="961" y="1331" type="qcurve"/>
      <point x="935" y="1301" type="line"/>
      <point x="917" y="1279"/>
      <point x="899" y="1259" type="qcurve" smooth="yes"/>
      <point x="875" y="1231" type="line" smooth="yes"/>
      <point x="857" y="1211"/>
      <point x="839" y="1189" type="qcurve"/>
      <point x="813" y="1159" type="line"/>
      <point x="779" y="1190" type="line"/>
      <point x="765" y="1201"/>
      <point x="741" y="1215"/>
      <point x="717" y="1220"/>
      <point x="697" y="1220" type="qcurve" smooth="yes"/>
      <point x="663" y="1220"/>
      <point x="612" y="1169"/>
      <point x="612" y="1113" type="qcurve" smooth="yes"/>
      <point x="612" y="999" type="line"/>
      <point x="917" y="999" type="line"/>
      <point x="917" y="775" type="line"/>
      <point x="612" y="775" type="line"/>
      <point x="612" y="42" type="line" smooth="yes"/>
      <point x="612" y="-199"/>
      <point x="328" y="-457"/>
    </contour>
  </outline>
</glyph>
<glyph name="aturned" format="2">
  <advance width="1109"/>
  <unicode hex="0250"/>
  <outline>
    <contour>
      <point x="586" y="-20" type="qcurve" smooth="yes"/>
      <point x="483" y="-20"/>
      <point x="318" y="39"/>
      <point x="201" y="147"/>
      <point x="138" y="298"/>
      <point x="138" y="391" type="qcurve" smooth="yes"/>
      <point x="138" y="995" type="line"/>
      <point x="350" y="995" type="line"/>
      <point x="381" y="863" type="line"/>
      <point x="467" y="985"/>
      <point x="599" y="1008" type="qcurve" smooth="yes"/>
      <point x="640" y="1015"/>
      <point x="701" y="1016" type="qcurve"/>
      <point x="770" y="1016"/>
      <point x="902" y="973"/>
      <point x="1008" y="886"/>
      <point x="1072" y="764"/>
      <point x="1072" y="689" type="qcurve" smooth="yes"/>
      <point x="1072" y="392"/>
      <point x="647" y="392" type="qcurve" smooth="yes"/>
      <point x="403" y="392" type="line"/>
      <point x="403" y="310"/>
      <point x="497" y="218"/>
      <point x="594" y="218" type="qcurve" smooth="yes"/>
      <point x="626" y="218"/>
      <point x="690" y="239"/>
      <point x="747" y="276"/>
      <point x="792" y="325"/>
      <point x="806" y="353" type="qcurve"/>
      <point x="1016" y="202" type="line"/>
      <point x="937" y="92"/>
      <point x="729" y="-20"/>
    </contour>
    <contour>
      <point x="633" y="584" type="line" smooth="yes"/>
      <point x="704" y="584"/>
      <point x="751" y="617" type="qcurve" smooth="yes"/>
      <point x="792" y="647"/>
      <point x="792" y="689" type="qcurve" smooth="yes"/>
      <point x="792" y="709"/>
      <point x="781" y="727" type="qcurve" smooth="yes"/>
      <point x="758" y="764"/>
      <point x="704" y="779" type="qcurve"/>
      <point x="679" y="785"/>
      <point x="638" y="786" type="qcurve"/>
      <point x="596" y="786"/>
      <point x="514" y="755"/>
      <point x="445" y="699"/>
      <point x="403" y="625"/>
      <point x="403" y="584" type="qcurve"/>
    </contour>
  </outline>
</glyph>
<glyph name="oopen" format="2">
  <advance width="1008"/>
  <unicode hex="0254"/>
  <outline>
    <contour>
      <point x="485" y="-20" type="qcurve" smooth="yes"/>
      <point x="469" y="-20" type="line" smooth="yes"/>
      <point x="393" y="-20"/>
      <point x="257" y="22"/>
      <point x="143" y="99"/>
      <point x="54" y="210"/>
      <point x="24" y="279" type="qcurve"/>
      <point x="153" y="329"/>
      <point x="283" y="378" type="qcurve"/>
      <point x="302" y="309"/>
      <point x="399" y="241"/>
      <point x="469" y="241" type="qcurve" smooth="yes"/>
      <point x="576" y="241"/>
      <point x="634" y="313" type="qcurve" smooth="yes"/>
      <point x="688" y="381"/>
      <point x="688" y="498" type="qcurve" smooth="yes"/>
      <point x="688" y="552"/>
      <point x="663" y="646"/>
      <point x="611" y="715"/>
      <point x="528" y="754"/>
      <point x="469" y="754" type="qcurve" smooth="yes"/>
      <point x="399" y="754"/>
      <point x="302" y="680"/>
      <point x="283" y="616" type="qcurve"/>
      <point x="33" y="709" type="line"/>
      <point x="59" y="781"/>
      <point x="102" y="838" type="qcurve" smooth="yes"/>
      <point x="188" y="953"/>
      <point x="324" y="995" type="qcurve" smooth="yes"/>
      <point x="389" y="1016"/>
      <point x="475" y="1016" type="qcurve" smooth="yes"/>
      <point x="590" y="1016"/>
      <point x="773" y="932"/>
      <point x="901" y="788"/>
      <point x="965" y="603"/>
      <point x="965" y="506" type="qcurve" smooth="yes"/>
      <point x="965" y="490" type="line" smooth="yes"/>
      <point x="965" y="394"/>
      <point x="934" y="304" type="qcurve" smooth="yes"/>
      <point x="867" y="106"/>
      <point x="682" y="20" type="qcurve" smooth="yes"/>
      <point x="595" y="-20"/>
    </contour>
  </outline>
</glyph>
<glyph name="ereversed" format="2">
  <advance width="1066"/>
  <unicode hex="0258"/>
  <outline>
    <contour>
      <point x="525" y="-12" type="qcurve" smooth="yes"/>
      <point x="509" y="-12" type="line" smooth="yes"/>
      <point x="379" y="-12"/>
      <point x="169" y="71"/>
      <point x="81" y="165" type="qcurve"/>
      <point x="270" y="332" type="line"/>
      <point x="321" y="280"/>
      <point x="424" y="245"/>
      <point x="510" y="245" type="qcurve" smooth="yes"/>
      <point x="697" y="245"/>
      <point x="732" y="411" type="qcurve"/>
      <point x="50" y="411" type="line"/>
      <point x="46" y="424"/>
      <point x="40" y="478"/>
      <point x="40" y="503" type="qcurve" smooth="yes"/>
      <point x="40" y="536"/>
      <point x="43" y="569" type="qcurve" smooth="yes"/>
      <point x="59" y="756"/>
      <point x="162" y="873" type="qcurve"/>
      <point x="288" y="1012"/>
      <point x="526" y="1012" type="qcurve" smooth="yes"/>
      <point x="539" y="1012" type="line" smooth="yes"/>
      <point x="613" y="1012"/>
      <point x="676" y="995" type="qcurve"/>
      <point x="744" y="975"/>
      <point x="855" y="904"/>
      <point x="940" y="806"/>
      <point x="997" y="689"/>
      <point x="1010" y="625" type="qcurve" smooth="yes"/>
      <point x="1023" y="566"/>
      <point x="1023" y="505" type="qcurve" smooth="yes"/>
      <point x="1023" y="486" type="line" smooth="yes"/>
      <point x="1023" y="393"/>
      <point x="991" y="304" type="qcurve"/>
      <point x="919" y="110"/>
      <point x="730" y="27" type="qcurve" smooth="yes"/>
      <point x="640" y="-12"/>
    </contour>
    <contour>
      <point x="732" y="603" type="line"/>
      <point x="694" y="784"/>
      <point x="526" y="784" type="qcurve" smooth="yes"/>
      <point x="428" y="784"/>
      <point x="326" y="695"/>
      <point x="311" y="603" type="qcurve"/>
    </contour>
  </outline>
</glyph>
<glyph name="schwa" format="2">
  <advance width="1066"/>
  <unicode hex="0259"/>
  <outline>
    <contour>
      <point x="541" y="-12" type="qcurve" smooth="yes"/>
      <point x="526" y="-12" type="line" smooth="yes"/>
      <point x="393" y="-12"/>
      <point x="206" y="73"/>
      <point x="90" y="215"/>
      <point x="65" y="308" type="qcurve"/>
      <point x="40" y="395"/>
      <point x="40" y="490" type="qcurve" smooth="yes"/>
      <point x="40" y="536"/>
      <point x="44" y="559" type="qcurve" smooth="yes"/>
      <point x="50" y="589" type="line"/>
      <point x="732" y="589" type="line"/>
      <point x="716" y="666"/>
      <point x="611" y="754"/>
      <point x="510" y="754" type="qcurve" smooth="yes"/>
      <point x="426" y="754"/>
      <point x="375" y="736" type="qcurve" smooth="yes"/>
      <point x="319" y="715"/>
      <point x="270" y="666" type="qcurve"/>
      <point x="222" y="708"/>
      <point x="176" y="751" type="qcurve" smooth="yes"/>
      <point x="129" y="793"/>
      <point x="81" y="835" type="qcurve"/>
      <point x="168" y="929"/>
      <point x="376" y="1012"/>
      <point x="509" y="1012" type="qcurve" smooth="yes"/>
      <point x="525" y="1012" type="line" smooth="yes"/>
      <point x="637" y="1012"/>
      <point x="728" y="974" type="qcurve" smooth="yes"/>
      <point x="824" y="934"/>
      <point x="956" y="793"/>
      <point x="1023" y="612"/>
      <point x="1023" y="514" type="qcurve" smooth="yes"/>
      <point x="1023" y="497" type="line" smooth="yes"/>
      <point x="1023" y="404"/>
      <point x="993" y="314" type="qcurve" smooth="yes"/>
      <point x="961" y="220"/>
      <point x="834" y="73"/>
      <point x="741" y="29" type="qcurve" smooth="yes"/>
      <point x="653" y="-12"/>
    </contour>
    <contour>
      <point x="526" y="216" type="qcurve" smooth="yes"/>
      <point x="601" y="216"/>
      <point x="711" y="301"/>
      <point x="732" y="396" type="qcurve"/>
      <point x="311" y="396" type="line"/>
      <point x="324" y="306"/>
      <point x="429" y="216"/>
    </contour>
  </outline>
</glyph>
<glyph name="circumflex" format="2">
  <advance width="623"/>
  <unicode hex="02C6"/>
  <outline>
    <contour>
      <point x="625" y="1098" type="line"/>
      <point x="429" y="1098" type="line"/>
      <point x="312" y="1230" type="line"/>
      <point x="197" y="1098" type="line"/>
      <point x="0" y="1098" type="line"/>
      <point x="312" y="1449" type="line"/>
    </contour>
  </outline>
</glyph>
<glyph name="colontriangularhalfmod" format="2">
  <advance width="563"/>
  <unicode hex="02D1"/>
  <outline>
    <contour>
      <point x="276" y="194" type="line"/>
      <point x="17" y="709" type="line"/>
      <point x="552" y="698" type="line"/>
    </contour>
  </outline>
</glyph>
<glyph name="breve" format="2">
  <advance width="805"/>
  <unicode hex="02D8"/>
  <outline>
    <contour>
      <point x="404" y="1143" type="qcurve" smooth="yes"/>
      <point x="244" y="1143"/>
      <point x="85" y="1273"/>
      <point x="85" y="1413" type="qcurve"/>
      <point x="269" y="1413" type="line"/>
      <point x="269" y="1295"/>
      <point x="404" y="1295" type="qcurve" smooth="yes"/>
      <point x="461" y="1295"/>
      <point x="539" y="1352"/>
      <point x="539" y="1413" type="qcurve"/>
      <point x="722" y="1413" type="line"/>
      <point x="722" y="1327"/>
      <point x="658" y="1206"/>
      <point x="518" y="1143"/>
    </contour>
  </outline>
</glyph>
<glyph name="dotaccent" format="2">
  <advance width="551"/>
  <unicode hex="02D9"/>
  <outline>
    <contour>
      <point x="428" y="1178" type="line"/>
      <point x="146" y="1178" type="line"/>
      <point x="146" y="1413" type="line"/>
      <point x="428" y="1413" type="line"/>
    </contour>
  </outline>
</glyph>
<glyph name="ring" format="2">
  <advance width="632"/>
  <unicode hex="02DA"/>
  <outline>
    <contour>
      <point x="315" y="1066" type="qcurve" smooth="yes"/>
      <point x="308" y="1066" type="line" smooth="yes"/>
      <point x="265" y="1066"/>
      <point x="181" y="1104"/>
      <point x="115" y="1171"/>
      <point x="78" y="1255"/>
      <point x="78" y="1298" type="qcurve" smooth="yes"/>
      <point x="78" y="1313" type="line" smooth="yes"/>
      <point x="78" y="1358"/>
      <point x="114" y="1441"/>
      <point x="179" y="1506"/>
      <point x="267" y="1544"/>
      <point x="315" y="1544" type="qcurve" smooth="yes"/>
      <point x="411" y="1544"/>
      <point x="556" y="1407"/>
      <point x="556" y="1305" type="qcurve" smooth="yes"/>
      <point x="556" y="1257"/>
      <point x="518" y="1170"/>
      <point x="453" y="1105"/>
      <point x="365" y="1066"/>
    </contour>
    <contour>
      <point x="315" y="1205" type="qcurve" smooth="yes"/>
      <point x="409" y="1205"/>
      <point x="416" y="1309" type="qcurve"/>
      <point x="416" y="1351"/>
      <point x="365" y="1405"/>
      <point x="315" y="1405" type="qcurve" smooth="yes"/>
      <point x="273" y="1405"/>
      <point x="217" y="1354"/>
      <point x="217" y="1309" type="qcurve" smooth="yes"/>
      <point x="217" y="1267"/>
      <point x="268" y="1205"/>
    </contour>
  </outline>
</glyph>
<glyph name="ogonek" format="2">
  <advance width="567"/>
  <unicode hex="02DB"/>
  <outline>
    <contour>
      <point x="310" y="-451" type="qcurve" smooth="yes"/>
      <point x="261" y="-451"/>
      <point x="177" y="-422"/>
      <point x="115" y="-368"/>
      <point x="79" y="-292"/>
      <point x="79" y="-246" type="qcurve" smooth="yes"/>
      <point x="79" y="-185"/>
      <point x="127" y="-116" type="qcurve"/>
      <point x="163" y="-62"/>
      <point x="210" y="-18" type="qcurve" smooth="yes"/>
      <point x="233" y="4"/>
      <point x="243" y="9" type="qcurve"/>
      <point x="241" y="5" type="line"/>
      <point x="316" y="0" type="line"/>
      <point x="439" y="0" type="line"/>
      <point x="366" y="-28"/>
      <point x="318" y="-68" type="qcurve"/>
      <point x="235" y="-134"/>
      <point x="235" y="-208" type="qcurve" smooth="yes"/>
      <point x="235" y="-257"/>
      <point x="271" y="-290"/>
      <point x="305" y="-290" type="qcurve" smooth="yes"/>
      <point x="334" y="-290"/>
      <point x="384" y="-261"/>
      <point x="402" y="-235" type="qcurve"/>
      <point x="533" y="-325" type="line"/>
      <point x="447" y="-451"/>
    </contour>
  </outline>
</glyph>
<glyph name="hungarumlaut" format="2">
  <advance width="889"/>
  <unicode hex="02DD"/>
  <outline>
    <contour>
      <point x="217" y="1072" type="line"/>
      <point x="25" y="1072" type="line"/>
      <point x="252" y="1413" type="line"/>
      <point x="481" y="1413" type="line"/>
    </contour>
    <contour>
      <point x="570" y="1072" type="line"/>
      <point x="379" y="1072" type="line"/>
      <point x="606" y="1413" type="line"/>
      <point x="887" y="1413" type="line"/>
    </contour>
  </outline>
</glyph>
<glyph name="uni02F6" format="2">
  <advance width="975"/>
  <unicode hex="02F6"/>
  <outline>
    <contour>
      <point x="274" y="655" type="line"/>
      <point x="91" y="655" type="line"/>
      <point x="321" y="999" type="line"/>
      <point x="601" y="999" type="line"/>
    </contour>
    <contour>
      <point x="578" y="655" type="line"/>
      <point x="396" y="655" type="line"/>
      <point x="625" y="999" type="line"/>
      <point x="906" y="999" type="line"/>
    </contour>
  </outline>
</glyph>
<glyph name="gravecmb" format="2">
  <unicode hex="0300"/>
  <anchor x="-145" y="999" name="_t.ringcmb_1"/>
  <outline>
    <contour>
      <point x="-21" y="1098" type="line"/>
      <point x="-207" y="1098" type="line"/>
      <point x="-531" y="1413" type="line"/>
      <point x="-250" y="1413" type="line"/>
    </contour>
  </outline>
</glyph>
<glyph name="acutecmb" format="2">
  <unicode hex="0301"/>
  <anchor x="-347" y="999" name="_t.ringcmb_1"/>
  <outline>
    <contour>
      <point x="-324" y="1124" type="line"/>
      <point x="-516" y="1124" type="line"/>
      <point x="-289" y="1413" type="line"/>
      <point x="-8" y="1413" type="line"/>
    </contour>
  </outline>
</glyph>
<glyph name="circumflexcmb" format="2">
  <unicode hex="0302"/>
  <anchor x="-325" y="999" name="_t.ringcmb_1"/>
  <outline>
    <contour>
      <point x="1" y="1098" type="line"/>
      <point x="-195" y="1098" type="line"/>
      <point x="-312" y="1230" type="line"/>
      <point x="-427" y="1098" type="line"/>
      <point x="-624" y="1098" type="line"/>
      <point x="-312" y="1449" type="line"/>
    </contour>
  </outline>
</glyph>
<glyph name="tildecmb" format="2">
  <unicode hex="0303"/>
  <anchor x="-436" y="1020" name="_t.ringcmb_1"/>
  <outline>
    <contour>
      <point x="-310" y="1119" type="qcurve" smooth="yes"/>
      <point x="-374" y="1119"/>
      <point x="-418" y="1146" type="qcurve"/>
      <point x="-453" y="1166"/>
      <point x="-495" y="1210" type="qcurve"/>
      <point x="-519" y="1233"/>
      <point x="-551" y="1259"/>
      <point x="-571" y="1259" type="qcurve" smooth="yes"/>
      <point x="-599" y="1259"/>
      <point x="-635" y="1191"/>
      <point x="-635" y="1122" type="qcurve"/>
      <point x="-787" y="1122" type="line"/>
      <point x="-787" y="1325"/>
      <point x="-666" y="1398" type="qcurve"/>
      <point x="-622" y="1419"/>
      <point x="-570" y="1420" type="qcurve"/>
      <point x="-556" y="1420" type="line" smooth="yes"/>
      <point x="-508" y="1420"/>
      <point x="-472" y="1401" type="qcurve"/>
      <point x="-432" y="1378"/>
      <point x="-387" y="1333" type="qcurve"/>
      <point x="-355" y="1304"/>
      <point x="-324" y="1283"/>
      <point x="-307" y="1283" type="qcurve" smooth="yes"/>
      <point x="-304" y="1283"/>
      <point x="-301" y="1283" type="qcurve" smooth="yes"/>
      <point x="-297" y="1283"/>
      <point x="-289" y="1287" type="qcurve"/>
      <point x="-272" y="1298"/>
      <point x="-249" y="1364"/>
      <point x="-249" y="1413" type="qcurve"/>
      <point x="-91" y="1413" type="line"/>
      <point x="-91" y="1346"/>
      <point x="-120" y="1236"/>
      <point x="-176" y="1160"/>
      <point x="-257" y="1119"/>
    </contour>
  </outline>
</glyph>
<glyph name="macroncmb" format="2">
  <unicode hex="0304"/>
  <anchor x="-418" y="999" name="_t.ringcmb_1"/>
  <outline>
    <contour>
      <point x="-134" y="1136" type="line"/>
      <point x="-698" y="1136" type="line"/>
      <point x="-698" y="1284" type="line"/>
      <point x="-134" y="1284" type="line"/>
    </contour>
  </outline>
</glyph>
<glyph name="brevecmb" format="2">
  <unicode hex="0306"/>
  <anchor x="-405" y="999" name="_t.ringcmb_1"/>
  <outline>
    <contour>
      <point x="-402" y="1143" type="qcurve" smooth="yes"/>
      <point x="-562" y="1143"/>
      <point x="-721" y="1273"/>
      <point x="-721" y="1413" type="qcurve"/>
      <point x="-537" y="1413" type="line"/>
      <point x="-537" y="1295"/>
      <point x="-402" y="1295" type="qcurve" smooth="yes"/>
      <point x="-345" y="1295"/>
      <point x="-267" y="1352"/>
      <point x="-267" y="1413" type="qcurve"/>
      <point x="-84" y="1413" type="line"/>
      <point x="-84" y="1327"/>
      <point x="-148" y="1206"/>
      <point x="-288" y="1143"/>
    </contour>
  </outline>
</glyph>
<glyph name="dieresiscmb" format="2">
  <unicode hex="0308"/>
  <anchor x="-420" y="999" name="_t.ringcmb_1"/>
  <outline>
    <contour>
      <point x="-495" y="1178" type="line"/>
      <point x="-711" y="1178" type="line"/>
      <point x="-711" y="1413" type="line"/>
      <point x="-495" y="1413" type="line"/>
    </contour>
    <contour>
      <point x="-135" y="1178" type="line"/>
      <point x="-350" y="1178" type="line"/>
      <point x="-350" y="1413" type="line"/>
      <point x="-135" y="1413" type="line"/>
    </contour>
  </outline>
</glyph>
<glyph name="ringcmb" format="2">
  <unicode hex="030A"/>
  <anchor x="-316" y="999" name="_t.ringcmb_1"/>
  <outline>
    <contour>
      <point x="-318" y="1066" type="qcurve" smooth="yes"/>
      <point x="-325" y="1066" type="line" smooth="yes"/>
      <point x="-368" y="1066"/>
      <point x="-452" y="1104"/>
      <point x="-518" y="1171"/>
      <point x="-555" y="1255"/>
      <point x="-555" y="1298" type="qcurve" smooth="yes"/>
      <point x="-555" y="1313" type="line" smooth="yes"/>
      <point x="-555" y="1358"/>
      <point x="-519" y="1441"/>
      <point x="-454" y="1506"/>
      <point x="-366" y="1544"/>
      <point x="-318" y="1544" type="qcurve" smooth="yes"/>
      <point x="-222" y="1544"/>
      <point x="-77" y="1407"/>
      <point x="-77" y="1305" type="qcurve" smooth="yes"/>
      <point x="-77" y="1257"/>
      <point x="-115" y="1170"/>
      <point x="-180" y="1105"/>
      <point x="-268" y="1066"/>
    </contour>
    <contour>
      <point x="-318" y="1205" type="qcurve" smooth="yes"/>
      <point x="-224" y="1205"/>
      <point x="-217" y="1309" type="qcurve"/>
      <point x="-217" y="1351"/>
      <point x="-268" y="1405"/>
      <point x="-318" y="1405" type="qcurve" smooth="yes"/>
      <point x="-360" y="1405"/>
      <point x="-416" y="1354"/>
      <point x="-416" y="1309" type="qcurve" smooth="yes"/>
      <point x="-416" y="1267"/>
      <point x="-365" y="1205"/>
    </contour>
  </outline>
</glyph>
<glyph name="dblgravecmb" format="2">
  <unicode hex="030F"/>
  <anchor x="-342" y="999" name="_t.ringcmb_1"/>
  <outline>
    <contour>
      <point x="-404" y="1072" type="line"/>
      <point x="-584" y="1072" type="line"/>
      <point x="-908" y="1413" type="line"/>
      <point x="-633" y="1413" type="line"/>
    </contour>
    <contour>
      <point x="-25" y="1072" type="line"/>
      <point x="-205" y="1072" type="line"/>
      <point x="-528" y="1413" type="line"/>
      <point x="-252" y="1413" type="line"/>
    </contour>
  </outline>
</glyph>
<glyph name="commaturnedabovecmb" format="2">
  <unicode hex="0312"/>
  <anchor x="-291" y="999" name="_t.ringcmb_1"/>
  <outline>
    <contour>
      <point x="-208" y="1117" type="line"/>
      <point x="-475" y="1117" type="line"/>
      <point x="-221" y="1438" type="line"/>
      <point x="-69" y="1438" type="line"/>
    </contour>
  </outline>
</glyph>
<glyph name="uni0326" format="2">
  <unicode hex="0326"/>
  <anchor x="-177" y="0" name="_b.uni0326"/>
  <anchor x="-177" y="0" name="_b.uni0326_2"/>
  <anchor x="-244" y="-459" name="b.uni0326_2"/>
  <outline>
    <contour>
      <point x="-272" y="-463" type="line"/>
      <point x="-424" y="-463" type="line"/>
      <point x="-285" y="-104" type="line"/>
      <point x="-18" y="-104" type="line"/>
    </contour>
  </outline>
</glyph>
<glyph name="cedillacmb" format="2">
  <unicode hex="0327"/>
  <anchor x="-262" y="0" name="_b.uni0326"/>
  <anchor x="-262" y="0" name="_b.uni0326_2"/>
  <anchor x="-285" y="-500" name="b.uni0326_2"/>
  <outline>
    <contour>
      <point x="-303" y="-528" type="qcurve" smooth="yes"/>
      <point x="-364" y="-528"/>
      <point x="-478" y="-457"/>
      <point x="-505" y="-397" type="qcurve"/>
      <point x="-357" y="-338" type="line"/>
      <point x="-336" y="-377"/>
      <point x="-297" y="-377" type="qcurve" smooth="yes"/>
      <point x="-266" y="-377"/>
      <point x="-223" y="-341"/>
      <point x="-223" y="-305" type="qcurve" smooth="yes"/>
      <point x="-223" y="-254"/>
      <point x="-321" y="-200"/>
      <point x="-385" y="-200" type="qcurve" smooth="yes"/>
      <point x="-464" y="-200" type="line"/>
      <point x="-333" y="-3" type="line"/>
      <point x="-181" y="-3" type="line"/>
      <point x="-260" y="-95" type="line"/>
      <point x="-172" y="-109"/>
      <point x="-68" y="-208"/>
      <point x="-68" y="-297" type="qcurve" smooth="yes"/>
      <point x="-68" y="-398"/>
      <point x="-207" y="-528"/>
    </contour>
  </outline>
</glyph>
<glyph name="pi" format="2">
  <advance width="1009"/>
  <unicode hex="03C0"/>
  <outline>
    <contour>
      <point x="836" y="-20" type="qcurve" smooth="yes"/>
      <point x="727" y="-20"/>
      <point x="594" y="117"/>
      <point x="594" y="247" type="qcurve" smooth="yes"/>
      <point x="594" y="778" type="line"/>
      <point x="384" y="778" type="line"/>
      <point x="384" y="0" type="line"/>
      <point x="162" y="0" type="line"/>
      <point x="162" y="778" type="line"/>
      <point x="80" y="778" type="line"/>
      <point x="80" y="999" type="line"/>
      <point x="898" y="999" type="line"/>
      <point x="898" y="778" type="line"/>
      <point x="816" y="778" type="line"/>
      <point x="816" y="287" type="line" smooth="yes"/>
      <point x="816" y="177"/>
      <point x="852" y="177" type="qcurve" smooth="yes"/>
      <point x="871" y="177"/>
      <point x="889" y="190" type="qcurve"/>
      <point x="962" y="15" type="line"/>
      <point x="912" y="-20"/>
    </contour>
  </outline>
</glyph>
<glyph name="afii10052" format="2">
  <advance width="1064"/>
  <unicode hex="0403"/>
  <outline>
    <contour>
      <point x="658" y="1535" type="line"/>
      <point x="461" y="1535" type="line"/>
      <point x="690" y="1824" type="line"/>
      <point x="978" y="1824" type="line"/>
    </contour>
    <contour>
      <point x="457" y="0" type="line"/>
      <point x="173" y="0" type="line"/>
      <point x="173" y="1410" type="line"/>
      <point x="1055" y="1410" type="line"/>
      <point x="1055" y="1147" type="line"/>
      <point x="457" y="1147" type="line"/>
    </contour>
  </outline>
</glyph>
<glyph name="afii10053" format="2">
  <advance width="1436"/>
  <unicode hex="0404"/>
  <outline>
    <contour>
      <point x="768" y="-20" type="qcurve" smooth="yes"/>
      <point x="751" y="-20" type="line" smooth="yes"/>
      <point x="592" y="-20"/>
      <point x="468" y="34" type="qcurve" smooth="yes"/>
      <point x="337" y="91"/>
      <point x="158" y="292"/>
      <point x="113" y="425" type="qcurve" smooth="yes"/>
      <point x="69" y="554"/>
      <point x="69" y="697" type="qcurve" smooth="yes"/>
      <point x="69" y="707" type="line" smooth="yes"/>
      <point x="69" y="856"/>
      <point x="156" y="1119"/>
      <point x="330" y="1320"/>
      <point x="592" y="1436"/>
      <point x="766" y="1436" type="qcurve" smooth="yes"/>
      <point x="979" y="1436"/>
      <point x="1311" y="1221"/>
      <point x="1398" y="1021" type="qcurve"/>
      <point x="1132" y="916" type="line"/>
      <point x="1095" y="1047"/>
      <point x="907" y="1164"/>
      <point x="764" y="1164" type="qcurve" smooth="yes"/>
      <point x="601" y="1164"/>
      <point x="499" y="1086" type="qcurve" smooth="yes"/>
      <point x="389" y="1003"/>
      <point x="360" y="839" type="qcurve"/>
      <point x="907" y="839" type="line"/>
      <point x="907" y="570" type="line"/>
      <point x="363" y="570" type="line"/>
      <point x="394" y="419"/>
      <point x="599" y="251"/>
      <point x="768" y="251" type="qcurve" smooth="yes"/>
      <point x="904" y="251"/>
      <point x="1081" y="368"/>
      <point x="1137" y="503" type="qcurve"/>
      <point x="1201" y="478"/>
      <point x="1400" y="396" type="qcurve"/>
      <point x="1358" y="296"/>
      <point x="1231" y="141"/>
      <point x="1069" y="35"/>
      <point x="876" y="-20"/>
    </contour>
  </outline>
</glyph>
<glyph name="afii10054" format="2">
  <advance width="1145"/>
  <unicode hex="0405"/>
  <outline>
    <contour>
      <point x="601" y="-16" type="qcurve" smooth="yes"/>
      <point x="580" y="-16" type="line" smooth="yes"/>
      <point x="488" y="-16"/>
      <point x="401" y="10" type="qcurve" smooth="yes"/>
      <point x="307" y="38"/>
      <point x="154" y="147"/>
      <point x="48" y="307"/>
      <point x="33" y="411" type="qcurve"/>
      <point x="105" y="428"/>
      <point x="176" y="446" type="qcurve" smooth="yes"/>
      <point x="247" y="464"/>
      <point x="317" y="481" type="qcurve"/>
      <point x="332" y="366"/>
      <point x="472" y="235"/>
      <point x="596" y="235" type="qcurve" smooth="yes"/>
      <point x="695" y="235"/>
      <point x="756" y="283" type="qcurve" smooth="yes"/>
      <point x="812" y="327"/>
      <point x="812" y="392" type="qcurve" smooth="yes"/>
      <point x="812" y="433"/>
      <point x="757" y="502"/>
      <point x="670" y="561"/>
      <point x="562" y="610"/>
      <point x="508" y="632" type="qcurve" smooth="yes"/>
      <point x="457" y="652"/>
      <point x="407" y="671" type="qcurve" smooth="yes"/>
      <point x="357" y="689"/>
      <point x="326" y="705" type="qcurve" smooth="yes"/>
      <point x="188" y="779"/>
      <point x="143" y="922" type="qcurve" smooth="yes"/>
      <point x="128" y="971"/>
      <point x="127" y="1042" type="qcurve"/>
      <point x="127" y="1132"/>
      <point x="198" y="1278"/>
      <point x="323" y="1380"/>
      <point x="492" y="1434"/>
      <point x="586" y="1434" type="qcurve" smooth="yes"/>
      <point x="727" y="1434"/>
      <point x="959" y="1304"/>
      <point x="1028" y="1177" type="qcurve"/>
      <point x="788" y="1033" type="line"/>
      <point x="753" y="1101"/>
      <point x="644" y="1180"/>
      <point x="575" y="1180" type="qcurve" smooth="yes"/>
      <point x="508" y="1180"/>
      <point x="462" y="1145" type="qcurve" smooth="yes"/>
      <point x="412" y="1108"/>
      <point x="412" y="1047" type="qcurve" smooth="yes"/>
      <point x="412" y="981"/>
      <point x="509" y="920" type="qcurve" smooth="yes"/>
      <point x="577" y="877"/>
      <point x="713" y="827" type="qcurve" smooth="yes"/>
      <point x="813" y="790" type="line"/>
      <point x="860" y="774"/>
      <point x="891" y="757" type="qcurve" smooth="yes"/>
      <point x="1035" y="681"/>
      <point x="1081" y="536" type="qcurve"/>
      <point x="1096" y="485"/>
      <point x="1097" y="412" type="qcurve"/>
      <point x="1097" y="317"/>
      <point x="1059" y="240" type="qcurve" smooth="yes"/>
      <point x="1019" y="159"/>
      <point x="880" y="44"/>
      <point x="699" y="-16"/>
    </contour>
  </outline>
</glyph>
<glyph name="afii10055" format="2">
  <advance width="629"/>
  <unicode hex="0406"/>
  <outline>
    <contour>
      <point x="456" y="0" type="line"/>
      <point x="173" y="0" type="line"/>
      <point x="173" y="1410" type="line"/>
      <point x="456" y="1410" type="line"/>
    </contour>
  </outline>
</glyph>
<glyph name="afii10057" format="2">
  <advance width="1145"/>
  <unicode hex="0408"/>
  <outline>
    <contour>
      <point x="510" y="-20" type="qcurve" smooth="yes"/>
      <point x="501" y="-20" type="line" smooth="yes"/>
      <point x="401" y="-20"/>
      <point x="318" y="15" type="qcurve" smooth="yes"/>
      <point x="230" y="51"/>
      <point x="100" y="180"/>
      <point x="24" y="354"/>
      <point x="18" y="454" type="qcurve"/>
      <point x="298" y="485" type="line"/>
      <point x="301" y="433"/>
      <point x="330" y="345"/>
      <point x="382" y="281"/>
      <point x="459" y="245"/>
      <point x="510" y="245" type="qcurve"/>
      <point x="586" y="246"/>
      <point x="670" y="289"/>
      <point x="710" y="379"/>
      <point x="718" y="520"/>
      <point x="718" y="617" type="qcurve" smooth="yes"/>
      <point x="718" y="1147" type="line"/>
      <point x="186" y="1147" type="line"/>
      <point x="186" y="1410" type="line"/>
      <point x="1002" y="1410" type="line"/>
      <point x="1002" y="514" type="line" smooth="yes"/>
      <point x="1002" y="396"/>
      <point x="944" y="201"/>
      <point x="824" y="59"/>
      <point x="638" y="-20"/>
    </contour>
  </outline>
</glyph>
<glyph name="afii10058" format="2">
  <advance width="1909"/>
  <unicode hex="0409"/>
  <outline>
    <contour>
      <point x="215" y="-20" type="qcurve" smooth="yes"/>
      <point x="179" y="-20"/>
      <point x="122" y="-11"/>
      <point x="69" y="4"/>
      <point x="17" y="32"/>
      <point x="-10" y="47" type="qcurve"/>
      <point x="63" y="245" type="line"/>
      <point x="101" y="238"/>
      <point x="117" y="232" type="qcurve" smooth="yes"/>
      <point x="133" y="226"/>
      <point x="148" y="223" type="qcurve"/>
      <point x="162" y="219"/>
      <point x="177" y="215" type="qcurve"/>
      <point x="192" y="215"/>
      <point x="205" y="249" type="qcurve" smooth="yes"/>
      <point x="220" y="289"/>
      <point x="242" y="462"/>
      <point x="253" y="724"/>
      <point x="253" y="896" type="qcurve" smooth="yes"/>
      <point x="253" y="1410" type="line"/>
      <point x="1190" y="1410" type="line"/>
      <point x="1190" y="840" type="line"/>
      <point x="1377" y="840" type="line" smooth="yes"/>
      <point x="1590" y="840"/>
      <point x="1734" y="733" type="qcurve"/>
      <point x="1880" y="618"/>
      <point x="1880" y="432" type="qcurve" smooth="yes"/>
      <point x="1880" y="417" type="line" smooth="yes"/>
      <point x="1880" y="322"/>
      <point x="1843" y="247" type="qcurve" smooth="yes"/>
      <point x="1804" y="168"/>
      <point x="1666" y="59"/>
      <point x="1476" y="0"/>
      <point x="1366" y="0" type="qcurve" smooth="yes"/>
      <point x="908" y="0" type="line"/>
      <point x="908" y="1147" type="line"/>
      <point x="537" y="1147" type="line"/>
      <point x="537" y="899" type="line" smooth="yes"/>
      <point x="537" y="776"/>
      <point x="530" y="545"/>
      <point x="507" y="340"/>
      <point x="464" y="170"/>
      <point x="392" y="48"/>
      <point x="289" y="-20"/>
    </contour>
    <contour>
      <point x="1366" y="268" type="line" smooth="yes"/>
      <point x="1489" y="268"/>
      <point x="1597" y="346"/>
      <point x="1597" y="424" type="qcurve" smooth="yes"/>
      <point x="1597" y="504"/>
      <point x="1484" y="573"/>
      <point x="1366" y="573" type="qcurve" smooth="yes"/>
      <point x="1190" y="573" type="line"/>
      <point x="1190" y="268" type="line"/>
    </contour>
  </outline>
</glyph>
<glyph name="afii10059" format="2">
  <advance width="2046"/>
  <unicode hex="040A"/>
  <outline>
    <contour>
      <point x="1512" y="0" type="qcurve" smooth="yes"/>
      <point x="1046" y="0" type="line"/>
      <point x="1046" y="575" type="line"/>
      <point x="457" y="575" type="line"/>
      <point x="457" y="0" type="line"/>
      <point x="173" y="0" type="line"/>
      <point x="173" y="1410" type="line"/>
      <point x="457" y="1410" type="line"/>
      <point x="457" y="838" type="line"/>
      <point x="1046" y="838" type="line"/>
      <point x="1046" y="1410" type="line"/>
      <point x="1329" y="1410" type="line"/>
      <point x="1329" y="840" type="line"/>
      <point x="1501" y="840" type="line" smooth="yes"/>
      <point x="1611" y="840"/>
      <point x="1799" y="786"/>
      <point x="1938" y="680"/>
      <point x="2017" y="525"/>
      <point x="2017" y="424" type="qcurve" smooth="yes"/>
      <point x="2017" y="417" type="line" smooth="yes"/>
      <point x="2017" y="324"/>
      <point x="1940" y="168"/>
      <point x="1801" y="57"/>
      <point x="1615" y="0"/>
    </contour>
    <contour>
      <point x="1501" y="268" type="line" smooth="yes"/>
      <point x="1625" y="268"/>
      <point x="1735" y="346"/>
      <point x="1735" y="424" type="qcurve" smooth="yes"/>
      <point x="1735" y="502"/>
      <point x="1620" y="573"/>
      <point x="1501" y="573" type="qcurve" smooth="yes"/>
      <point x="1329" y="573" type="line"/>
      <point x="1329" y="268" type="line"/>
    </contour>
  </outline>
</glyph>
<glyph name="afii10060" format="2">
  <advance width="1626"/>
  <unicode hex="040B"/>
  <outline>
    <contour>
      <point x="1550" y="0" type="line"/>
      <point x="1266" y="0" type="line"/>
      <point x="1266" y="401" type="line" smooth="yes"/>
      <point x="1266" y="512"/>
      <point x="1221" y="656"/>
      <point x="1104" y="726"/>
      <point x="996" y="726" type="qcurve" smooth="yes"/>
      <point x="825" y="726"/>
      <point x="723" y="616" type="qcurve"/>
      <point x="723" y="0" type="line"/>
      <point x="439" y="0" type="line"/>
      <point x="439" y="1153" type="line"/>
      <point x="7" y="1153" type="line"/>
      <point x="7" y="1410" type="line"/>
      <point x="1154" y="1410" type="line"/>
      <point x="1154" y="1153" type="line"/>
      <point x="723" y="1153" type="line"/>
      <point x="723" y="947" type="line"/>
      <point x="871" y="1001"/>
      <point x="996" y="1001" type="qcurve" smooth="yes"/>
      <point x="1171" y="1001"/>
      <point x="1419" y="881"/>
      <point x="1550" y="633"/>
      <point x="1550" y="441" type="qcurve" smooth="yes"/>
    </contour>
  </outline>
</glyph>
<glyph name="afii10145" format="2">
  <advance width="1503"/>
  <unicode hex="040F"/>
  <outline>
    <contour>
      <point x="893" y="-307" type="line"/>
      <point x="609" y="-307" type="line"/>
      <point x="609" y="0" type="line"/>
      <point x="173" y="0" type="line"/>
      <point x="173" y="1410" type="line"/>
      <point x="457" y="1410" type="line"/>
      <point x="457" y="263" type="line"/>
      <point x="1046" y="263" type="line"/>
      <point x="1046" y="1410" type="line"/>
      <point x="1330" y="1410" type="line"/>
      <point x="1330" y="0" type="line"/>
      <point x="893" y="0" type="line"/>
    </contour>
  </outline>
</glyph>
<glyph name="Acyrillic" format="2">
  <advance width="1355"/>
  <unicode hex="0410"/>
  <outline>
    <contour>
      <point x="1359" y="0" type="line"/>
      <point x="1052" y="0" type="line"/>
      <point x="944" y="307" type="line"/>
      <point x="416" y="307" type="line"/>
      <point x="306" y="0" type="line"/>
      <point x="-4" y="0" type="line"/>
      <point x="573" y="1410" type="line"/>
      <point x="785" y="1410" type="line"/>
    </contour>
    <contour>
      <point x="846" y="546" type="line"/>
      <point x="680" y="993" type="line"/>
      <point x="513" y="546" type="line"/>
    </contour>
  </outline>
</glyph>
<glyph name="afii10018" format="2">
  <advance width="1283"/>
  <unicode hex="0411"/>
  <outline>
    <contour>
      <point x="760" y="0" type="qcurve" smooth="yes"/>
      <point x="173" y="0" type="line"/>
      <point x="173" y="1410" type="line"/>
      <point x="1021" y="1410" type="line"/>
      <point x="1021" y="1154" type="line"/>
      <point x="457" y="1154" type="line"/>
      <point x="457" y="860" type="line"/>
      <point x="748" y="860" type="line" smooth="yes"/>
      <point x="983" y="860"/>
      <point x="1106" y="733" type="qcurve"/>
      <point x="1215" y="618"/>
      <point x="1215" y="417" type="qcurve" smooth="yes"/>
      <point x="1215" y="403" type="line" smooth="yes"/>
      <point x="1215" y="314"/>
      <point x="1179" y="243" type="qcurve" smooth="yes"/>
      <point x="1139" y="165"/>
      <point x="1007" y="56"/>
      <point x="842" y="0"/>
    </contour>
    <contour>
      <point x="755" y="272" type="line" smooth="yes"/>
      <point x="845" y="272"/>
      <point x="937" y="351"/>
      <point x="937" y="450" type="qcurve" smooth="yes"/>
      <point x="937" y="519"/>
      <point x="829" y="618"/>
      <point x="741" y="618" type="qcurve" smooth="yes"/>
      <point x="457" y="618" type="line"/>
      <point x="457" y="272" type="line"/>
    </contour>
  </outline>
</glyph>
<glyph name="afii10021" format="2">
  <advance width="1482"/>
  <unicode hex="0414"/>
  <outline>
    <contour>
      <point x="1473" y="-324" type="line"/>
      <point x="1189" y="-324" type="line"/>
      <point x="1189" y="0" type="line"/>
      <point x="292" y="0" type="line"/>
      <point x="292" y="-324" type="line"/>
      <point x="7" y="-324" type="line"/>
      <point x="7" y="252" type="line"/>
      <point x="166" y="252" type="line"/>
      <point x="634" y="1413" type="line"/>
      <point x="841" y="1413" type="line"/>
      <point x="1313" y="252" type="line"/>
      <point x="1473" y="252" type="line"/>
    </contour>
    <contour>
      <point x="998" y="252" type="line"/>
      <point x="736" y="938" type="line"/>
      <point x="474" y="252" type="line"/>
    </contour>
  </outline>
</glyph>
<glyph name="afii10026" format="2">
  <advance width="1465"/>
  <unicode hex="0418"/>
  <outline>
    <contour>
      <point x="1292" y="0" type="line"/>
      <point x="1022" y="0" type="line"/>
      <point x="1022" y="911" type="line"/>
      <point x="433" y="0" type="line"/>
      <point x="173" y="0" type="line"/>
      <point x="173" y="1413" type="line"/>
      <point x="444" y="1413" type="line"/>
      <point x="444" y="504" type="line"/>
      <point x="1033" y="1413" type="line"/>
      <point x="1292" y="1413" type="line"/>
    </contour>
  </outline>
</glyph>
<glyph name="afii10029" format="2">
  <advance width="1348"/>
  <unicode hex="041B"/>
  <outline>
    <contour>
      <point x="1352" y="0" type="line"/>
      <point x="1036" y="0" type="line"/>
      <point x="672" y="938" type="line"/>
      <point x="310" y="0" type="line"/>
      <point x="-4" y="0" type="line"/>
      <point x="569" y="1413" type="line"/>
      <point x="777" y="1413" type="line"/>
    </contour>
  </outline>
</glyph>
<glyph name="afii10030" format="2">
  <advance width="1809"/>
  <unicode hex="041C"/>
  <outline>
    <contour>
      <point x="1636" y="0" type="line"/>
      <point x="1365" y="0" type="line"/>
      <point x="1365" y="988" type="line"/>
      <point x="1039" y="123" type="line"/>
      <point x="770" y="123" type="line"/>
      <point x="443" y="988" type="line"/>
      <point x="443" y="0" type="line"/>
      <point x="173" y="0" type="line"/>
      <point x="173" y="1413" type="line"/>
      <point x="541" y="1413" type="line"/>
      <point x="906" y="448" type="line"/>
      <point x="1268" y="1413" type="line"/>
      <point x="1636" y="1413" type="line"/>
    </contour>
  </outline>
</glyph>
<glyph name="afii10031" format="2">
  <advance width="1502"/>
  <unicode hex="041D"/>
  <outline>
    <contour>
      <point x="1329" y="0" type="line"/>
      <point x="1046" y="0" type="line"/>
      <point x="1046" y="574" type="line"/>
      <point x="456" y="574" type="line"/>
      <point x="456" y="0" type="line"/>
      <point x="173" y="0" type="line"/>
      <point x="173" y="1413" type="line"/>
      <point x="456" y="1413" type="line"/>
      <point x="456" y="838" type="line"/>
      <point x="1046" y="838" type="line"/>
      <point x="1046" y="1413" type="line"/>
      <point x="1329" y="1413" type="line"/>
    </contour>
  </outline>
</glyph>
<glyph name="afii10033" format="2">
  <advance width="1503"/>
  <unicode hex="041F"/>
  <outline>
    <contour>
      <point x="1330" y="0" type="line"/>
      <point x="1046" y="0" type="line"/>
      <point x="1046" y="1147" type="line"/>
      <point x="457" y="1147" type="line"/>
      <point x="457" y="0" type="line"/>
      <point x="173" y="0" type="line"/>
      <point x="173" y="1410" type="line"/>
      <point x="1330" y="1410" type="line"/>
    </contour>
  </outline>
</glyph>
<glyph name="afii10034" format="2">
  <advance width="1173"/>
  <unicode hex="0420"/>
  <outline>
    <contour>
      <point x="454" y="0" type="line"/>
      <point x="173" y="0" type="line"/>
      <point x="173" y="1410" type="line"/>
      <point x="640" y="1410" type="line" smooth="yes"/>
      <point x="740" y="1410"/>
      <point x="829" y="1384" type="qcurve" smooth="yes"/>
      <point x="924" y="1356"/>
      <point x="1065" y="1248"/>
      <point x="1144" y="1092"/>
      <point x="1144" y="993" type="qcurve" smooth="yes"/>
      <point x="1144" y="979" type="line" smooth="yes"/>
      <point x="1144" y="886"/>
      <point x="1067" y="733"/>
      <point x="928" y="625"/>
      <point x="834" y="597" type="qcurve" smooth="yes"/>
      <point x="744" y="570"/>
      <point x="641" y="570" type="qcurve" smooth="yes"/>
      <point x="454" y="570" type="line"/>
    </contour>
    <contour>
      <point x="630" y="837" type="line" smooth="yes"/>
      <point x="748" y="837"/>
      <point x="862" y="905"/>
      <point x="862" y="986" type="qcurve" smooth="yes"/>
      <point x="862" y="1065"/>
      <point x="751" y="1143"/>
      <point x="630" y="1143" type="qcurve" smooth="yes"/>
      <point x="454" y="1143" type="line"/>
      <point x="454" y="837" type="line"/>
    </contour>
  </outline>
</glyph>
<glyph name="afii10036" format="2">
  <advance width="1163"/>
  <unicode hex="0422"/>
  <outline>
    <contour>
      <point x="724" y="0" type="line"/>
      <point x="439" y="0" type="line"/>
      <point x="439" y="1153" type="line"/>
      <point x="7" y="1153" type="line"/>
      <point x="7" y="1410" type="line"/>
      <point x="1154" y="1410" type="line"/>
      <point x="1154" y="1153" type="line"/>
      <point x="724" y="1153" type="line"/>
    </contour>
  </outline>
</glyph>
<glyph name="afii10037" format="2">
  <advance width="1108"/>
  <unicode hex="0423"/>
  <outline>
    <contour>
      <point x="502" y="0" type="line"/>
      <point x="206" y="0" type="line"/>
      <point x="397" y="457" type="line"/>
      <point x="-4" y="1410" type="line"/>
      <point x="295" y="1410" type="line"/>
      <point x="548" y="770" type="line"/>
      <point x="814" y="1410" type="line"/>
      <point x="1112" y="1410" type="line"/>
    </contour>
  </outline>
</glyph>
<glyph name="afii10038" format="2">
  <advance width="1811"/>
  <unicode hex="0424"/>
  <outline>
    <contour>
      <point x="1047" y="0" type="line"/>
      <point x="763" y="0" type="line"/>
      <point x="763" y="98" type="line"/>
      <point x="753" y="98" type="line" smooth="yes"/>
      <point x="593" y="98"/>
      <point x="338" y="191"/>
      <point x="162" y="355"/>
      <point x="69" y="577"/>
      <point x="69" y="704" type="qcurve" smooth="yes"/>
      <point x="69" y="712" type="line" smooth="yes"/>
      <point x="69" y="835"/>
      <point x="113" y="942" type="qcurve" smooth="yes"/>
      <point x="160" y="1053"/>
      <point x="336" y="1219"/>
      <point x="592" y="1310"/>
      <point x="753" y="1310" type="qcurve" smooth="yes"/>
      <point x="763" y="1310" type="line"/>
      <point x="763" y="1410" type="line"/>
      <point x="1047" y="1410" type="line"/>
      <point x="1047" y="1310" type="line"/>
      <point x="1057" y="1310" type="line" smooth="yes"/>
      <point x="1219" y="1310"/>
      <point x="1344" y="1264" type="qcurve"/>
      <point x="1473" y="1218"/>
      <point x="1650" y="1052"/>
      <point x="1741" y="830"/>
      <point x="1741" y="704" type="qcurve" smooth="yes"/>
      <point x="1741" y="696" type="line" smooth="yes"/>
      <point x="1741" y="572"/>
      <point x="1695" y="464" type="qcurve" smooth="yes"/>
      <point x="1648" y="352"/>
      <point x="1470" y="189"/>
      <point x="1215" y="98"/>
      <point x="1057" y="98" type="qcurve" smooth="yes"/>
      <point x="1047" y="98" type="line"/>
    </contour>
    <contour>
      <point x="763" y="349" type="qcurve"/>
      <point x="763" y="1059" type="line"/>
      <point x="640" y="1059"/>
      <point x="465" y="963"/>
      <point x="372" y="802"/>
      <point x="372" y="704" type="qcurve" smooth="yes"/>
      <point x="372" y="604"/>
      <point x="465" y="443"/>
      <point x="640" y="349"/>
    </contour>
    <contour>
      <point x="1047" y="349" type="line"/>
      <point x="1172" y="349"/>
      <point x="1347" y="444"/>
      <point x="1438" y="605"/>
      <point x="1438" y="704" type="qcurve" smooth="yes"/>
      <point x="1438" y="807"/>
      <point x="1342" y="967"/>
      <point x="1167" y="1059"/>
      <point x="1047" y="1059" type="qcurve"/>
    </contour>
  </outline>
</glyph>
<glyph name="afii10039" format="2">
  <advance width="1369"/>
  <unicode hex="0425"/>
  <outline>
    <contour>
      <point x="1360" y="0" type="line"/>
      <point x="1021" y="0" type="line"/>
      <point x="683" y="524" type="line"/>
      <point x="349" y="0" type="line"/>
      <point x="10" y="0" type="line"/>
      <point x="485" y="707" type="line"/>
      <point x="12" y="1413" type="line"/>
      <point x="351" y="1413" type="line"/>
      <point x="685" y="881" type="line"/>
      <point x="1019" y="1413" type="line"/>
      <point x="1358" y="1413" type="line"/>
      <point x="884" y="707" type="line"/>
    </contour>
  </outline>
</glyph>
<glyph name="afii10042" format="2">
  <advance width="1820"/>
  <unicode hex="0428"/>
  <outline>
    <contour>
      <point x="1647" y="0" type="line"/>
      <point x="173" y="0" type="line"/>
      <point x="173" y="1410" type="line"/>
      <point x="457" y="1410" type="line"/>
      <point x="457" y="263" type="line"/>
      <point x="769" y="263" type="line"/>
      <point x="769" y="1410" type="line"/>
      <point x="1052" y="1410" type="line"/>
      <point x="1052" y="263" type="line"/>
      <point x="1363" y="263" type="line"/>
      <point x="1363" y="1410" type="line"/>
      <point x="1647" y="1410" type="line"/>
    </contour>
  </outline>
</glyph>
<glyph name="afii10044" format="2">
  <advance width="1416"/>
  <unicode hex="042A"/>
  <outline>
    <contour>
      <point x="883" y="0" type="qcurve" smooth="yes"/>
      <point x="416" y="0" type="line"/>
      <point x="416" y="1152" type="line"/>
      <point x="7" y="1152" type="line"/>
      <point x="7" y="1410" type="line"/>
      <point x="698" y="1410" type="line"/>
      <point x="698" y="840" type="line"/>
      <point x="872" y="840" type="line" smooth="yes"/>
      <point x="982" y="840"/>
      <point x="1169" y="786"/>
      <point x="1308" y="680"/>
      <point x="1387" y="525"/>
      <point x="1387" y="424" type="qcurve" smooth="yes"/>
      <point x="1387" y="417" type="line" smooth="yes"/>
      <point x="1387" y="324"/>
      <point x="1311" y="168"/>
      <point x="1173" y="57"/>
      <point x="1078" y="28" type="qcurve" smooth="yes"/>
      <point x="988" y="0"/>
    </contour>
    <contour>
      <point x="872" y="268" type="line" smooth="yes"/>
      <point x="996" y="268"/>
      <point x="1105" y="346"/>
      <point x="1105" y="424" type="qcurve" smooth="yes"/>
      <point x="1105" y="502"/>
      <point x="991" y="573"/>
      <point x="872" y="573" type="qcurve" smooth="yes"/>
      <point x="698" y="573" type="line"/>
      <point x="698" y="268" type="line"/>
    </contour>
  </outline>
</glyph>
<glyph name="afii10045" format="2">
  <advance width="1782"/>
  <unicode hex="042B"/>
  <outline>
    <contour>
      <point x="641" y="0" type="qcurve" smooth="yes"/>
      <point x="173" y="0" type="line"/>
      <point x="173" y="1410" type="line"/>
      <point x="454" y="1410" type="line"/>
      <point x="454" y="840" type="line"/>
      <point x="641" y="840" type="line" smooth="yes"/>
      <point x="857" y="840"/>
      <point x="998" y="732" type="qcurve"/>
      <point x="1144" y="617"/>
      <point x="1144" y="431" type="qcurve" smooth="yes"/>
      <point x="1144" y="417" type="line" smooth="yes"/>
      <point x="1144" y="324"/>
      <point x="1067" y="168"/>
      <point x="928" y="57"/>
      <point x="834" y="28" type="qcurve" smooth="yes"/>
      <point x="744" y="0"/>
    </contour>
    <contour>
      <point x="1609" y="0" type="line"/>
      <point x="1325" y="0" type="line"/>
      <point x="1325" y="1410" type="line"/>
      <point x="1609" y="1410" type="line"/>
    </contour>
    <contour>
      <point x="630" y="268" type="line" smooth="yes"/>
      <point x="752" y="268"/>
      <point x="862" y="345"/>
      <point x="862" y="424" type="qcurve" smooth="yes"/>
      <point x="862" y="505"/>
      <point x="748" y="573"/>
      <point x="630" y="573" type="qcurve" smooth="yes"/>
      <point x="454" y="573" type="line"/>
      <point x="454" y="268" type="line"/>
    </contour>
  </outline>
</glyph>
<glyph name="afii10047" format="2">
  <advance width="1436"/>
  <unicode hex="042D"/>
  <outline>
    <contour>
      <point x="677" y="-20" type="qcurve" smooth="yes"/>
      <point x="668" y="-20" type="line" smooth="yes"/>
      <point x="560" y="-20"/>
      <point x="367" y="35"/>
      <point x="205" y="141"/>
      <point x="78" y="296"/>
      <point x="35" y="396" type="qcurve"/>
      <point x="298" y="503" type="line"/>
      <point x="355" y="366"/>
      <point x="530" y="251"/>
      <point x="668" y="251" type="qcurve" smooth="yes"/>
      <point x="838" y="251"/>
      <point x="1039" y="416"/>
      <point x="1071" y="570" type="qcurve"/>
      <point x="527" y="570" type="line"/>
      <point x="527" y="839" type="line"/>
      <point x="1076" y="839" type="line"/>
      <point x="1028" y="1071"/>
      <point x="829" y="1141" type="qcurve"/>
      <point x="760" y="1164"/>
      <point x="671" y="1164" type="qcurve" smooth="yes"/>
      <point x="529" y="1164"/>
      <point x="341" y="1047"/>
      <point x="303" y="916" type="qcurve"/>
      <point x="37" y="1021" type="line"/>
      <point x="122" y="1219"/>
      <point x="289" y="1329" type="qcurve"/>
      <point x="456" y="1436"/>
      <point x="669" y="1436" type="qcurve" smooth="yes"/>
      <point x="839" y="1436"/>
      <point x="1100" y="1323"/>
      <point x="1276" y="1128"/>
      <point x="1367" y="860"/>
      <point x="1367" y="707" type="qcurve" smooth="yes"/>
      <point x="1367" y="698" type="line" smooth="yes"/>
      <point x="1367" y="559"/>
      <point x="1324" y="431" type="qcurve"/>
      <point x="1281" y="298"/>
      <point x="1104" y="96"/>
      <point x="844" y="-20"/>
    </contour>
  </outline>
</glyph>
<glyph name="afii10049" format="2">
  <advance width="1283"/>
  <unicode hex="042F"/>
  <outline>
    <contour>
      <point x="1110" y="-2" type="line"/>
      <point x="826" y="-2" type="line"/>
      <point x="826" y="595" type="line"/>
      <point x="676" y="595" type="line"/>
      <point x="588" y="445"/>
      <point x="503" y="297" type="qcurve" smooth="yes"/>
      <point x="418" y="148"/>
      <point x="329" y="-2" type="qcurve"/>
      <point x="6" y="-2" type="line"/>
      <point x="107" y="154"/>
      <point x="205" y="310" type="qcurve" smooth="yes"/>
      <point x="302" y="465"/>
      <point x="402" y="621" type="qcurve"/>
      <point x="344" y="644"/>
      <point x="245" y="717"/>
      <point x="173" y="813"/>
      <point x="133" y="926"/>
      <point x="133" y="996" type="qcurve" smooth="yes"/>
      <point x="133" y="1090"/>
      <point x="214" y="1246"/>
      <point x="353" y="1357"/>
      <point x="445" y="1385" type="qcurve"/>
      <point x="532" y="1413"/>
      <point x="628" y="1413" type="qcurve" smooth="yes"/>
      <point x="1110" y="1413" type="line"/>
    </contour>
    <contour>
      <point x="824" y="821" type="line"/>
      <point x="824" y="1159" type="line"/>
      <point x="635" y="1159" type="line" smooth="yes"/>
      <point x="533" y="1159"/>
      <point x="414" y="1063"/>
      <point x="414" y="985" type="qcurve" smooth="yes"/>
      <point x="414" y="915"/>
      <point x="516" y="825"/>
      <point x="615" y="821" type="qcurve"/>
    </contour>
  </outline>
</glyph>
<glyph name="afii10066" format="2">
  <advance width="1212"/>
  <unicode hex="0431"/>
  <outline>
    <contour>
      <point x="628" y="-20" type="qcurve" smooth="yes"/>
      <point x="618" y="-20" type="line" smooth="yes"/>
      <point x="502" y="-20"/>
      <point x="407" y="14" type="qcurve" smooth="yes"/>
      <point x="306" y="50"/>
      <point x="162" y="191"/>
      <point x="83" y="397"/>
      <point x="83" y="529" type="qcurve" smooth="yes"/>
      <point x="83" y="676" type="line" smooth="yes"/>
      <point x="83" y="787"/>
      <point x="120" y="961"/>
      <point x="182" y="1083"/>
      <point x="251" y="1178"/>
      <point x="332" y="1252"/>
      <point x="425" y="1306"/>
      <point x="538" y="1349"/>
      <point x="638" y="1379"/>
      <point x="750" y="1402"/>
      <point x="885" y="1422"/>
      <point x="976" y="1434" type="qcurve"/>
      <point x="976" y="1164" type="line"/>
      <point x="963" y="1164" type="line" smooth="yes"/>
      <point x="907" y="1164"/>
      <point x="802" y="1145" type="qcurve" smooth="yes"/>
      <point x="735" y="1133"/>
      <point x="659" y="1114" type="qcurve"/>
      <point x="548" y="1084" type="line"/>
      <point x="498" y="1067" type="line"/>
      <point x="461" y="1051"/>
      <point x="398" y="1016"/>
      <point x="375" y="985" type="qcurve" smooth="yes"/>
      <point x="326" y="920"/>
      <point x="322" y="769" type="qcurve"/>
      <point x="385" y="860"/>
      <point x="584" y="962"/>
      <point x="711" y="962" type="qcurve" smooth="yes"/>
      <point x="933" y="962"/>
      <point x="1056" y="834" type="qcurve"/>
      <point x="1170" y="712"/>
      <point x="1170" y="503" type="qcurve" smooth="yes"/>
      <point x="1170" y="488" type="line" smooth="yes"/>
      <point x="1170" y="388"/>
      <point x="1133" y="300" type="qcurve" smooth="yes"/>
      <point x="1093" y="205"/>
      <point x="946" y="63"/>
      <point x="745" y="-20"/>
    </contour>
    <contour>
      <point x="628" y="217" type="qcurve" smooth="yes"/>
      <point x="736" y="217"/>
      <point x="806" y="289" type="qcurve"/>
      <point x="873" y="361"/>
      <point x="873" y="476" type="qcurve" smooth="yes"/>
      <point x="873" y="724"/>
      <point x="628" y="724" type="qcurve" smooth="yes"/>
      <point x="622" y="724" type="line" smooth="yes"/>
      <point x="576" y="724"/>
      <point x="487" y="679"/>
      <point x="419" y="606"/>
      <point x="381" y="519"/>
      <point x="381" y="481" type="qcurve" smooth="yes"/>
      <point x="381" y="476" type="line" smooth="yes"/>
      <point x="381" y="352"/>
      <point x="502" y="217"/>
    </contour>
  </outline>
</glyph>
<glyph name="afii10067" format="2">
  <advance width="1206"/>
  <unicode hex="0432"/>
  <outline>
    <contour>
      <point x="641" y="-20" type="qcurve" smooth="yes"/>
      <point x="628" y="-20" type="line" smooth="yes"/>
      <point x="568" y="-20"/>
      <point x="509" y="-9" type="qcurve" smooth="yes"/>
      <point x="376" y="15"/>
      <point x="164" y="155"/>
      <point x="120" y="269" type="qcurve" smooth="yes"/>
      <point x="99" y="321"/>
      <point x="99" y="381" type="qcurve" smooth="yes"/>
      <point x="99" y="963" type="line" smooth="yes"/>
      <point x="99" y="1109"/>
      <point x="189" y="1293"/>
      <point x="341" y="1396"/>
      <point x="441" y="1415" type="qcurve" smooth="yes"/>
      <point x="534" y="1433"/>
      <point x="658" y="1434" type="qcurve"/>
      <point x="741" y="1434"/>
      <point x="896" y="1379"/>
      <point x="1017" y="1274"/>
      <point x="1088" y="1127"/>
      <point x="1088" y="1038" type="qcurve" smooth="yes"/>
      <point x="1088" y="875"/>
      <point x="975" y="749" type="qcurve"/>
      <point x="1017" y="715"/>
      <point x="1078" y="642"/>
      <point x="1119" y="558"/>
      <point x="1138" y="459"/>
      <point x="1138" y="399" type="qcurve" smooth="yes"/>
      <point x="1138" y="293"/>
      <point x="1064" y="136"/>
      <point x="929" y="32"/>
      <point x="748" y="-20"/>
    </contour>
    <contour>
      <point x="644" y="237" type="qcurve" smooth="yes"/>
      <point x="742" y="237"/>
      <point x="858" y="329"/>
      <point x="858" y="420" type="qcurve" smooth="yes"/>
      <point x="858" y="515"/>
      <point x="755" y="613"/>
      <point x="638" y="613" type="qcurve" smooth="yes"/>
      <point x="588" y="613"/>
      <point x="530" y="596"/>
      <point x="483" y="572" type="qcurve"/>
      <point x="483" y="818" type="line"/>
      <point x="509" y="837"/>
      <point x="542" y="847" type="qcurve" smooth="yes"/>
      <point x="571" y="856"/>
      <point x="618" y="856" type="qcurve" smooth="yes"/>
      <point x="638" y="856" type="line" smooth="yes"/>
      <point x="725" y="856"/>
      <point x="820" y="933"/>
      <point x="820" y="1011" type="qcurve" smooth="yes"/>
      <point x="820" y="1089"/>
      <point x="730" y="1172"/>
      <point x="652" y="1172" type="qcurve" smooth="yes"/>
      <point x="603" y="1172"/>
      <point x="505" y="1158"/>
      <point x="466" y="1128" type="qcurve" smooth="yes"/>
      <point x="376" y="1061"/>
      <point x="376" y="869" type="qcurve" smooth="yes"/>
      <point x="376" y="555"/>
      <point x="374" y="524" type="qcurve"/>
      <point x="373" y="487" type="line"/>
      <point x="375" y="443" type="line"/>
      <point x="382" y="352"/>
      <point x="434" y="302" type="qcurve"/>
      <point x="499" y="237"/>
    </contour>
  </outline>
</glyph>
<glyph name="afii10073" format="2">
  <advance width="1047"/>
  <unicode hex="0437"/>
  <outline>
    <contour>
      <point x="433" y="-437" type="qcurve" smooth="yes"/>
      <point x="372" y="-437"/>
      <point x="236" y="-403"/>
      <point x="110" y="-340"/>
      <point x="60" y="-291" type="qcurve" smooth="yes"/>
      <point x="9" y="-243"/>
      <point x="-17" y="-179" type="qcurve"/>
      <point x="225" y="-8" type="line"/>
      <point x="230" y="-49"/>
      <point x="275" y="-112"/>
      <point x="336" y="-157"/>
      <point x="407" y="-181"/>
      <point x="437" y="-181" type="qcurve" smooth="yes"/>
      <point x="550" y="-181"/>
      <point x="623" y="-136" type="qcurve" smooth="yes"/>
      <point x="703" y="-88"/>
      <point x="703" y="-2" type="qcurve" smooth="yes"/>
      <point x="703" y="83"/>
      <point x="666" y="135" type="qcurve"/>
      <point x="623" y="191"/>
      <point x="536" y="191" type="qcurve" smooth="yes"/>
      <point x="355" y="191" type="line"/>
      <point x="355" y="432" type="line"/>
      <point x="541" y="432" type="line" smooth="yes"/>
      <point x="624" y="432"/>
      <point x="698" y="513"/>
      <point x="698" y="594" type="qcurve"/>
      <point x="697" y="643"/>
      <point x="675" y="679" type="qcurve"/>
      <point x="647" y="708"/>
      <point x="548" y="746"/>
      <point x="497" y="746" type="qcurve" smooth="yes"/>
      <point x="460" y="746"/>
      <point x="392" y="725"/>
      <point x="330" y="679"/>
      <point x="272" y="604"/>
      <point x="243" y="548" type="qcurve"/>
      <point x="108" y="611"/>
      <point x="-28" y="673" type="qcurve"/>
      <point x="9" y="768"/>
      <point x="58" y="832" type="qcurve" smooth="yes"/>
      <point x="155" y="958"/>
      <point x="315" y="994" type="qcurve" smooth="yes"/>
      <point x="391" y="1011"/>
      <point x="503" y="1012" type="qcurve"/>
      <point x="587" y="1012"/>
      <point x="752" y="957"/>
      <point x="883" y="853"/>
      <point x="963" y="706"/>
      <point x="963" y="616" type="qcurve" smooth="yes"/>
      <point x="963" y="519"/>
      <point x="882" y="380"/>
      <point x="793" y="327" type="qcurve"/>
      <point x="851" y="295"/>
      <point x="925" y="224"/>
      <point x="968" y="139"/>
      <point x="985" y="41"/>
      <point x="985" y="-30" type="qcurve" smooth="yes"/>
      <point x="985" y="-132"/>
      <point x="893" y="-285"/>
      <point x="738" y="-387"/>
      <point x="538" y="-437"/>
    </contour>
  </outline>
</glyph>
<glyph name="afii10075" format="2">
  <advance width="1215"/>
  <unicode hex="0439"/>
  <outline>
    <contour>
      <point x="621" y="1143" type="qcurve" smooth="yes"/>
      <point x="462" y="1143"/>
      <point x="302" y="1269"/>
      <point x="302" y="1413" type="qcurve"/>
      <point x="489" y="1413" type="line"/>
      <point x="489" y="1298"/>
      <point x="621" y="1298" type="qcurve" smooth="yes"/>
      <point x="754" y="1298"/>
      <point x="754" y="1413" type="qcurve"/>
      <point x="941" y="1413" type="line"/>
      <point x="941" y="1271"/>
      <point x="782" y="1143"/>
    </contour>
    <contour>
      <point x="517" y="-23" type="qcurve" smooth="yes"/>
      <point x="510" y="-23" type="line" smooth="yes"/>
      <point x="418" y="-23"/>
      <point x="278" y="52"/>
      <point x="183" y="174"/>
      <point x="160" y="253" type="qcurve" smooth="yes"/>
      <point x="138" y="327"/>
      <point x="138" y="405" type="qcurve" smooth="yes"/>
      <point x="138" y="999" type="line"/>
      <point x="416" y="999" type="line"/>
      <point x="416" y="431" type="line" smooth="yes"/>
      <point x="416" y="385"/>
      <point x="424" y="349" type="qcurve" smooth="yes"/>
      <point x="439" y="276"/>
      <point x="493" y="253" type="qcurve" smooth="yes"/>
      <point x="520" y="242"/>
      <point x="569" y="241" type="qcurve"/>
      <point x="609" y="241"/>
      <point x="692" y="274"/>
      <point x="759" y="333"/>
      <point x="798" y="409"/>
      <point x="798" y="447" type="qcurve" smooth="yes"/>
      <point x="798" y="999" type="line"/>
      <point x="1078" y="999" type="line"/>
      <point x="1078" y="0" type="line"/>
      <point x="798" y="0" type="line"/>
      <point x="798" y="101" type="line"/>
      <point x="695" y="-23"/>
    </contour>
  </outline>
</glyph>
<glyph name="afii10076" format="2">
  <advance width="1061"/>
  <unicode hex="043A"/>
  <outline>
    <contour>
      <point x="1056" y="0" type="line"/>
      <point x="731" y="0" type="line"/>
      <point x="697" y="102"/>
      <point x="658" y="212" type="qcurve"/>
      <point x="618" y="330" type="line" smooth="yes"/>
      <point x="599" y="387"/>
      <point x="543" y="451"/>
      <point x="489" y="451" type="qcurve" smooth="yes"/>
      <point x="411" y="451" type="line"/>
      <point x="411" y="0" type="line"/>
      <point x="138" y="0" type="line"/>
      <point x="138" y="1410" type="line"/>
      <point x="411" y="1410" type="line"/>
      <point x="411" y="647" type="line"/>
      <point x="458" y="647" type="line"/>
      <point x="694" y="999" type="line"/>
      <point x="1008" y="999" type="line"/>
      <point x="704" y="617" type="line"/>
      <point x="768" y="617"/>
      <point x="833" y="530" type="qcurve" smooth="yes"/>
      <point x="860" y="494"/>
      <point x="876" y="461" type="qcurve"/>
    </contour>
  </outline>
</glyph>
<glyph name="afii10077" format="2">
  <advance width="1016"/>
  <unicode hex="043B"/>
  <outline>
    <contour>
      <point x="1038" y="0" type="line"/>
      <point x="739" y="0" type="line"/>
      <point x="509" y="646" type="line"/>
      <point x="275" y="0" type="line"/>
      <point x="-21" y="0" type="line"/>
      <point x="397" y="999" type="line"/>
      <point x="619" y="999" type="line"/>
    </contour>
  </outline>
</glyph>
<glyph name="afii10080" format="2">
  <advance width="1131"/>
  <unicode hex="043E"/>
  <outline>
    <contour>
      <point x="577" y="-20" type="qcurve" smooth="yes"/>
      <point x="549" y="-20" type="line" smooth="yes"/>
      <point x="444" y="-20"/>
      <point x="353" y="18" type="qcurve" smooth="yes"/>
      <point x="256" y="59"/>
      <point x="115" y="202"/>
      <point x="40" y="389"/>
      <point x="40" y="488" type="qcurve" smooth="yes"/>
      <point x="40" y="504" type="line" smooth="yes"/>
      <point x="40" y="606"/>
      <point x="116" y="791"/>
      <point x="257" y="932"/>
      <point x="450" y="1012"/>
      <point x="564" y="1012" type="qcurve" smooth="yes"/>
      <point x="579" y="1012" type="line" smooth="yes"/>
      <point x="684" y="1012"/>
      <point x="775" y="974" type="qcurve" smooth="yes"/>
      <point x="873" y="933"/>
      <point x="1013" y="790"/>
      <point x="1088" y="605"/>
      <point x="1088" y="504" type="qcurve" smooth="yes"/>
      <point x="1088" y="485" type="line" smooth="yes"/>
      <point x="1088" y="355"/>
      <point x="1024" y="238" type="qcurve" smooth="yes"/>
      <point x="957" y="118"/>
      <point x="721" y="-20"/>
    </contour>
    <contour>
      <point x="564" y="214" type="qcurve" smooth="yes"/>
      <point x="672" y="214"/>
      <point x="807" y="356"/>
      <point x="807" y="496" type="qcurve" smooth="yes"/>
      <point x="807" y="570"/>
      <point x="759" y="698"/>
      <point x="652" y="776"/>
      <point x="564" y="776" type="qcurve" smooth="yes"/>
      <point x="483" y="776"/>
      <point x="375" y="703"/>
      <point x="321" y="576"/>
      <point x="321" y="496" type="qcurve" smooth="yes"/>
      <point x="321" y="420"/>
      <point x="369" y="292"/>
      <point x="476" y="214"/>
    </contour>
  </outline>
</glyph>
<glyph name="afii10084" format="2">
  <advance width="1757"/>
  <unicode hex="0442"/>
  <outline>
    <contour>
      <point x="1648" y="0" type="line"/>
      <point x="1370" y="0" type="line"/>
      <point x="1370" y="562" type="line" smooth="yes"/>
      <point x="1370" y="658"/>
      <point x="1305" y="760"/>
      <point x="1225" y="760" type="qcurve" smooth="yes"/>
      <point x="1140" y="760"/>
      <point x="1086" y="701" type="qcurve" smooth="yes"/>
      <point x="1059" y="673"/>
      <point x="1030" y="593"/>
      <point x="1030" y="543" type="qcurve" smooth="yes"/>
      <point x="1030" y="0" type="line"/>
      <point x="752" y="0" type="line"/>
      <point x="752" y="566" type="line" smooth="yes"/>
      <point x="752" y="663"/>
      <point x="689" y="760"/>
      <point x="608" y="760" type="qcurve" smooth="yes"/>
      <point x="566" y="760"/>
      <point x="495" y="728"/>
      <point x="442" y="672"/>
      <point x="413" y="591"/>
      <point x="413" y="543" type="qcurve" smooth="yes"/>
      <point x="413" y="0" type="line"/>
      <point x="138" y="0" type="line"/>
      <point x="138" y="999" type="line"/>
      <point x="413" y="999" type="line"/>
      <point x="413" y="916" type="line"/>
      <point x="507" y="1018"/>
      <point x="654" y="1018" type="qcurve" smooth="yes"/>
      <point x="827" y="1018"/>
      <point x="935" y="879" type="qcurve"/>
      <point x="997" y="947"/>
      <point x="1174" y="1016"/>
      <point x="1270" y="1016" type="qcurve" smooth="yes"/>
      <point x="1277" y="1016" type="line" smooth="yes"/>
      <point x="1369" y="1016"/>
      <point x="1508" y="946"/>
      <point x="1602" y="828"/>
      <point x="1648" y="677"/>
      <point x="1648" y="597" type="qcurve" smooth="yes"/>
    </contour>
  </outline>
</glyph>
<glyph name="afii10085" format="2">
  <advance width="1050"/>
  <unicode hex="0443"/>
  <outline>
    <contour>
      <point x="486" y="-430" type="line"/>
      <point x="185" y="-430" type="line"/>
      <point x="375" y="33" type="line"/>
      <point x="-19" y="999" type="line"/>
      <point x="281" y="999" type="line"/>
      <point x="522" y="343" type="line"/>
      <point x="768" y="999" type="line"/>
      <point x="1069" y="999" type="line"/>
    </contour>
  </outline>
</glyph>
<glyph name="afii10087" format="2">
  <advance width="1064"/>
  <unicode hex="0445"/>
  <outline>
    <contour>
      <point x="1065" y="0" type="line"/>
      <point x="729" y="0" type="line"/>
      <point x="530" y="323" type="line"/>
      <point x="331" y="0" type="line"/>
      <point x="-1" y="0" type="line"/>
      <point x="343" y="504" type="line"/>
      <point x="-1" y="999" type="line"/>
      <point x="331" y="999" type="line"/>
      <point x="530" y="683" type="line"/>
      <point x="729" y="999" type="line"/>
      <point x="1065" y="999" type="line"/>
      <point x="717" y="504" type="line"/>
    </contour>
  </outline>
</glyph>
<glyph name="afii10090" format="2">
  <advance width="1787"/>
  <unicode hex="0448"/>
  <outline>
    <contour>
      <point x="1133" y="-18" type="qcurve" smooth="yes"/>
      <point x="961" y="-18"/>
      <point x="853" y="119" type="qcurve"/>
      <point x="792" y="53"/>
      <point x="703" y="19" type="qcurve"/>
      <point x="621" y="-15"/>
      <point x="509" y="-16" type="qcurve"/>
      <point x="419" y="-16"/>
      <point x="279" y="54"/>
      <point x="184" y="171"/>
      <point x="161" y="247" type="qcurve"/>
      <point x="138" y="317"/>
      <point x="138" y="392" type="qcurve" smooth="yes"/>
      <point x="138" y="999" type="line"/>
      <point x="416" y="999" type="line"/>
      <point x="416" y="437" type="line" smooth="yes"/>
      <point x="416" y="340"/>
      <point x="481" y="240"/>
      <point x="563" y="240" type="qcurve" smooth="yes"/>
      <point x="648" y="240"/>
      <point x="757" y="361"/>
      <point x="757" y="457" type="qcurve" smooth="yes"/>
      <point x="757" y="999" type="line"/>
      <point x="1035" y="999" type="line"/>
      <point x="1035" y="433" type="line" smooth="yes"/>
      <point x="1035" y="337"/>
      <point x="1099" y="240"/>
      <point x="1178" y="240" type="qcurve" smooth="yes"/>
      <point x="1262" y="240"/>
      <point x="1373" y="361"/>
      <point x="1373" y="457" type="qcurve" smooth="yes"/>
      <point x="1373" y="999" type="line"/>
      <point x="1648" y="999" type="line"/>
      <point x="1648" y="0" type="line"/>
      <point x="1373" y="0" type="line"/>
      <point x="1373" y="83" type="line"/>
      <point x="1286" y="-18"/>
    </contour>
  </outline>
</glyph>
<glyph name="afii10091" format="2">
  <advance width="1787"/>
  <unicode hex="0449"/>
  <outline>
    <contour>
      <point x="1726" y="-307" type="line"/>
      <point x="1491" y="-307" type="line"/>
      <point x="1491" y="-23" type="line"/>
      <point x="1445" y="-23"/>
      <point x="1358" y="44"/>
      <point x="1338" y="100" type="qcurve"/>
      <point x="1287" y="41"/>
      <point x="1165" y="-18"/>
      <point x="1100" y="-18" type="qcurve" smooth="yes"/>
      <point x="1012" y="-18"/>
      <point x="876" y="49"/>
      <point x="819" y="119" type="qcurve"/>
      <point x="759" y="53"/>
      <point x="581" y="-16"/>
      <point x="483" y="-16" type="qcurve" smooth="yes"/>
      <point x="475" y="-16" type="line" smooth="yes"/>
      <point x="385" y="-16"/>
      <point x="246" y="53"/>
      <point x="151" y="170"/>
      <point x="128" y="246" type="qcurve" smooth="yes"/>
      <point x="106" y="317"/>
      <point x="106" y="392" type="qcurve" smooth="yes"/>
      <point x="106" y="999" type="line"/>
      <point x="383" y="999" type="line"/>
      <point x="383" y="437" type="line" smooth="yes"/>
      <point x="383" y="340"/>
      <point x="448" y="240"/>
      <point x="529" y="240" type="qcurve" smooth="yes"/>
      <point x="613" y="240"/>
      <point x="724" y="361"/>
      <point x="724" y="457" type="qcurve" smooth="yes"/>
      <point x="724" y="999" type="line"/>
      <point x="1002" y="999" type="line"/>
      <point x="1002" y="433" type="line" smooth="yes"/>
      <point x="1002" y="387"/>
      <point x="1009" y="351" type="qcurve" smooth="yes"/>
      <point x="1025" y="275"/>
      <point x="1078" y="253" type="qcurve"/>
      <point x="1107" y="240"/>
      <point x="1147" y="240" type="qcurve" smooth="yes"/>
      <point x="1232" y="240"/>
      <point x="1341" y="361"/>
      <point x="1341" y="457" type="qcurve" smooth="yes"/>
      <point x="1341" y="999" type="line"/>
      <point x="1615" y="999" type="line"/>
      <point x="1615" y="254" type="line" smooth="yes"/>
      <point x="1615" y="187"/>
      <point x="1702" y="109"/>
      <point x="1769" y="109" type="qcurve"/>
    </contour>
  </outline>
</glyph>
